<?xml version="1.0" standalone="no"?>
<!DOCTYPE svg PUBLIC "-//W3C//DTD SVG 20010904//EN"
 "http://www.w3.org/TR/2001/REC-SVG-20010904/DTD/svg10.dtd">
<svg version="1.0" xmlns="http://www.w3.org/2000/svg"
 width="700.000000pt" height="700.000000pt" viewBox="0 0 700.000000 700.000000"
 preserveAspectRatio="xMidYMid meet">
<metadata>
Created by potrace 1.11, written by Peter Selinger 2001-2013
</metadata>
<g transform="translate(0.000000,700.000000) scale(0.100000,-0.100000)"
fill="#000000" stroke="none">
<path d="M3110 6993 c-903 -99 -1860 -639 -2377 -1340 -77 -104 -167 -285
-193 -387 -39 -155 -21 -255 63 -341 61 -63 109 -80 207 -73 93 7 172 50 276
150 46 44 100 105 120 135 167 252 467 548 739 730 493 330 1098 501 1690 480
295 -11 520 -54 828 -158 452 -152 773 -346 1078 -649 232 -231 418 -521 600
-933 26 -58 38 -76 49 -71 8 4 136 53 284 110 147 57 271 105 274 108 9 9 -87
235 -163 381 -89 173 -161 290 -272 442 -574 788 -1443 1294 -2418 1408 -93
11 -217 15 -440 13 -170 0 -326 -3 -345 -5z"/>
<path d="M3804 5644 c-137 -81 -470 -381 -844 -760 -427 -434 -731 -788 -810
-945 -163 -321 -96 -725 275 -1669 147 -375 291 -684 384 -825 123 -187 232
-247 331 -181 226 149 1221 1173 1502 1546 153 203 217 380 204 562 -8 120
-34 234 -131 572 -302 1054 -544 1618 -737 1717 -57 29 -104 25 -174 -17z"/>
<path d="M6551 3844 c-120 -60 -199 -234 -221 -484 -55 -616 -248 -1137 -583
-1569 -104 -134 -371 -403 -506 -510 -122 -97 -366 -260 -468 -314 -83 -43
-301 -131 -367 -148 -25 -6 -46 -14 -46 -18 0 -4 120 -110 266 -236 182 -157
274 -231 293 -233 49 -5 380 170 603 320 259 173 516 422 734 713 355 472 604
1054 701 1640 27 164 24 481 -5 587 -38 139 -100 228 -184 263 -60 24 -155 20
-217 -11z"/>
<path d="M25 3748 c-11 -65 -8 -450 5 -568 88 -826 431 -1551 1005 -2125 509
-509 1155 -846 1850 -965 184 -31 192 -32 175 -21 -11 8 -5 11 25 11 52 0 148
25 203 53 108 53 175 175 153 278 -14 65 -34 101 -83 155 -64 70 -122 101
-203 108 -307 29 -696 159 -992 332 -671 392 -1155 1026 -1363 1784 -68 248
-100 490 -100 762 -1 170 -3 188 -18 188 -9 0 -154 11 -322 25 -167 14 -310
25 -316 25 -7 0 -15 -19 -19 -42z"/>
<path d="M4258 773 c7 -3 16 -2 19 1 4 3 -2 6 -13 5 -11 0 -14 -3 -6 -6z"/>
<path d="M4138 743 c7 -3 16 -2 19 1 4 3 -2 6 -13 5 -11 0 -14 -3 -6 -6z"/>
<path d="M4098 733 c7 -3 16 -2 19 1 4 3 -2 6 -13 5 -11 0 -14 -3 -6 -6z"/>
<path d="M4058 723 c7 -3 16 -2 19 1 4 3 -2 6 -13 5 -11 0 -14 -3 -6 -6z"/>
<path d="M4008 713 c7 -3 16 -2 19 1 4 3 -2 6 -13 5 -11 0 -14 -3 -6 -6z"/>
<path d="M3958 703 c7 -3 16 -2 19 1 4 3 -2 6 -13 5 -11 0 -14 -3 -6 -6z"/>
<path d="M3898 693 c7 -3 16 -2 19 1 4 3 -2 6 -13 5 -11 0 -14 -3 -6 -6z"/>
<path d="M3768 673 c7 -3 16 -2 19 1 4 3 -2 6 -13 5 -11 0 -14 -3 -6 -6z"/>
<path d="M3287 653 c18 -2 50 -2 70 0 21 2 7 4 -32 4 -38 0 -55 -2 -38 -4z"/>
<path d="M3128 53 c6 -2 18 -2 25 0 6 3 1 5 -13 5 -14 0 -19 -2 -12 -5z"/>
</g>
</svg>
