<svg id="svg" width="32" height="32" viewBox="0, 0, 380, 440"><g id="svgg"><path id="path0" d="M183.148 31.536 C 175.093 42.951,160.837 63.208,151.467 76.550 C 142.097 89.892,134.069 101.223,133.626 101.730 C 133.183 102.236,121.494 96.604,107.650 89.214 C 93.807 81.824,77.628 73.224,71.698 70.103 C 65.768 66.982,58.371 62.997,55.261 61.248 C 52.023 59.427,49.806 58.677,50.076 59.492 C 50.335 60.276,55.397 76.442,61.326 95.418 C 67.254 114.394,75.633 140.836,79.945 154.178 L 87.785 178.437 88.149 195.404 L 88.512 212.371 85.496 215.386 C 83.837 217.043,79.742 221.537,76.396 225.372 C 73.050 229.207,63.162 240.491,54.423 250.448 L 38.535 268.551 45.952 276.332 C 50.031 280.611,64.282 295.511,77.620 309.442 C 110.389 343.667,130.255 364.457,170.339 406.469 C 184.766 421.590,196.889 434.334,197.279 434.789 C 197.668 435.243,207.621 425.540,219.395 413.225 C 240.997 390.634,255.926 375.088,279.726 350.400 C 334.306 293.785,357.412 269.409,357.412 268.446 C 357.412 267.949,349.141 258.167,339.031 246.709 C 311.542 215.555,308.203 211.421,308.410 208.804 C 308.511 207.520,308.541 200.592,308.475 193.410 L 308.356 180.350 297.329 178.002 C 262.788 170.647,213.622 165.176,179.160 164.851 C 163.333 164.702,169.913 163.330,193.693 161.821 C 226.651 159.729,276.600 160.438,307.398 163.437 C 314.270 164.106,314.545 164.039,315.075 161.580 C 315.376 160.177,322.524 137.197,330.958 110.512 C 339.392 83.827,346.557 61.103,346.881 60.014 C 347.382 58.330,346.600 58.515,341.660 61.253 C 338.464 63.024,321.051 72.341,302.965 81.956 C 284.879 91.572,268.762 100.207,267.149 101.145 C 265.537 102.084,264.035 102.635,263.812 102.369 C 263.589 102.104,248.957 81.388,231.297 56.334 C 213.637 31.280,198.875 10.782,198.491 10.782 C 198.108 10.782,191.203 20.121,183.148 31.536 M207.108 96.226 C 211.439 101.119,215.894 106.162,217.008 107.435 C 219.148 109.880,202.992 130.622,198.477 131.226 C 196.821 131.448,178.371 111.282,178.646 109.551 C 178.860 108.205,197.358 87.332,198.336 87.332 C 198.829 87.332,202.776 91.334,207.108 96.226 M141.327 215.337 C 144.678 231.804,168.269 231.397,171.912 214.809 C 172.599 211.680,173.070 211.321,176.483 211.321 C 179.887 211.321,180.225 211.576,179.690 213.747 C 179.361 215.081,178.318 221.024,177.371 226.954 C 176.424 232.884,174.942 242.163,174.078 247.573 C 171.790 261.899,171.938 263.481,175.877 266.795 C 179.934 270.209,180.472 269.751,169.227 272.463 C 156.582 275.512,145.087 280.491,134.810 287.370 L 126.146 293.169 126.146 252.196 L 126.146 211.222 133.383 211.541 C 140.583 211.858,140.623 211.877,141.327 215.337 M224.339 212.129 C 226.097 229.874,249.292 233.333,255.189 216.730 L 257.110 211.321 263.865 211.321 C 267.594 211.321,270.657 211.804,270.703 212.399 C 270.748 212.992,270.786 215.418,270.786 217.790 C 270.786 220.162,270.748 238.340,270.703 258.185 L 270.620 294.267 263.783 289.488 C 253.987 282.640,238.181 275.360,227.109 272.597 L 217.560 270.213 221.089 267.333 C 230.343 259.780,221.835 250.456,203.732 248.312 L 198.383 247.678 198.383 229.499 L 198.383 211.321 211.321 211.321 C 218.437 211.321,224.295 211.685,224.339 212.129 M212.690 300.221 C 217.297 301.042,224.453 303.009,228.592 304.590 L 236.119 307.466 236.119 318.795 L 236.119 330.123 223.560 343.498 C 216.653 350.855,210.588 356.873,210.083 356.873 C 209.578 356.873,209.164 347.170,209.164 335.310 L 209.164 313.747 198.383 313.747 L 187.601 313.747 187.601 334.861 C 187.601 346.677,187.180 355.817,186.646 355.615 C 186.120 355.418,180.038 349.345,173.130 342.121 L 160.570 328.986 160.878 317.969 L 161.186 306.951 168.194 304.316 C 182.827 298.814,197.318 297.480,212.690 300.221 " stroke="none" fill="#200b59" fill-rule="evenodd"></path></g></svg>