<svg id="svg" width="32" height="32" viewBox="0, 0, 400,400"><g id="svgg"><path id="path0" d="M193.498 0.500 C 193.367 0.887,191.098 0.969,183.462 0.862 L 173.596 0.725 173.698 1.661 L 173.800 2.598 168.900 2.457 L 164.000 2.316 164.000 3.326 L 164.000 4.336 160.235 4.111 C 156.496 3.888,156.470 3.893,156.335 4.843 C 156.204 5.773,156.111 5.796,153.100 5.659 C 150.020 5.518,150.000 5.524,150.000 6.521 L 150.000 7.524 146.835 7.307 C 143.739 7.095,143.667 7.111,143.535 8.037 C 143.404 8.957,143.308 8.980,140.100 8.857 C 136.981 8.738,136.800 8.776,136.800 9.565 C 136.800 10.249,136.552 10.400,135.428 10.400 C 134.322 10.400,134.031 10.570,133.928 11.275 C 133.810 12.082,133.604 12.143,131.300 12.047 C 129.005 11.952,128.800 12.011,128.800 12.772 C 128.800 13.468,128.551 13.600,127.237 13.600 C 125.872 13.600,125.701 13.701,125.884 14.400 C 126.076 15.136,125.896 15.200,123.647 15.200 C 121.467 15.200,121.200 15.287,121.200 16.000 C 121.200 16.667,120.933 16.800,119.600 16.800 C 118.267 16.800,118.000 16.933,118.000 17.600 C 118.000 18.267,117.733 18.400,116.400 18.400 C 115.067 18.400,114.800 18.533,114.800 19.200 C 114.800 19.845,114.533 20.000,113.428 20.000 C 112.309 20.000,112.032 20.166,111.928 20.900 C 111.817 21.679,111.598 21.782,110.300 21.669 C 109.006 21.557,108.800 21.653,108.800 22.369 C 108.800 23.072,108.553 23.200,107.200 23.200 C 105.867 23.200,105.600 23.333,105.600 24.000 C 105.600 24.681,105.333 24.800,103.800 24.800 C 102.467 24.800,102.000 24.956,102.000 25.400 C 102.000 25.822,101.574 26.000,100.563 26.000 C 99.462 26.000,99.076 26.187,98.916 26.800 C 98.757 27.406,98.370 27.600,97.316 27.600 C 96.262 27.600,95.875 27.794,95.716 28.400 C 95.601 28.840,95.193 29.200,94.809 29.200 C 94.272 29.200,94.157 29.441,94.311 30.244 C 94.506 31.267,94.476 31.283,92.855 31.009 C 91.354 30.756,91.200 30.807,91.200 31.565 C 91.200 32.273,90.956 32.400,89.600 32.400 C 88.267 32.400,88.000 32.533,88.000 33.200 C 88.000 33.733,87.733 34.000,87.200 34.000 C 86.667 34.000,86.400 34.267,86.400 34.800 C 86.400 35.315,86.133 35.600,85.652 35.600 C 85.129 35.600,84.919 35.870,84.952 36.500 C 84.996 37.318,84.845 37.388,83.300 37.273 C 81.807 37.161,81.600 37.247,81.600 37.973 C 81.600 38.533,81.342 38.800,80.800 38.800 C 80.267 38.800,80.000 39.067,80.000 39.600 C 80.000 40.142,79.733 40.400,79.173 40.400 C 78.528 40.400,78.402 40.576,78.600 41.200 C 78.829 41.920,78.672 42.000,77.027 42.000 C 75.467 42.000,75.200 42.117,75.200 42.800 C 75.200 43.333,74.933 43.600,74.400 43.600 C 73.867 43.600,73.600 43.867,73.600 44.400 C 73.600 44.920,73.333 45.200,72.837 45.200 C 72.265 45.200,72.128 45.405,72.290 46.024 C 72.449 46.629,72.280 46.906,71.653 47.070 C 71.184 47.193,70.800 47.542,70.800 47.847 C 70.800 48.236,70.266 48.400,69.000 48.400 C 67.467 48.400,67.200 48.519,67.200 49.200 C 67.200 49.733,66.933 50.000,66.400 50.000 C 65.867 50.000,65.600 50.267,65.600 50.800 C 65.600 51.333,65.333 51.600,64.800 51.600 C 64.267 51.600,64.000 51.867,64.000 52.400 C 64.000 52.933,63.733 53.200,63.200 53.200 C 62.667 53.200,62.400 53.467,62.400 54.000 C 62.400 54.533,62.133 54.800,61.600 54.800 C 61.067 54.800,60.800 55.067,60.800 55.600 C 60.800 56.133,60.533 56.400,60.000 56.400 C 59.467 56.400,59.200 56.667,59.200 57.200 C 59.200 57.644,58.933 58.000,58.600 58.000 C 58.270 58.000,58.000 58.270,58.000 58.600 C 58.000 58.933,57.644 59.200,57.200 59.200 C 56.667 59.200,56.400 59.467,56.400 60.000 C 56.400 60.533,56.133 60.800,55.600 60.800 C 55.067 60.800,54.800 61.067,54.800 61.600 C 54.800 62.133,54.533 62.400,54.000 62.400 C 53.467 62.400,53.200 62.667,53.200 63.200 C 53.200 63.733,52.933 64.000,52.400 64.000 C 51.867 64.000,51.600 64.267,51.600 64.800 C 51.600 65.333,51.333 65.600,50.800 65.600 C 50.133 65.600,50.000 65.867,50.000 67.200 C 50.000 68.356,49.833 68.800,49.400 68.800 C 49.058 68.800,48.800 69.160,48.800 69.637 C 48.800 70.125,48.481 70.558,48.037 70.674 C 47.617 70.784,47.184 71.217,47.074 71.637 C 46.958 72.081,46.525 72.400,46.037 72.400 C 45.560 72.400,45.200 72.658,45.200 73.000 C 45.200 73.333,44.844 73.600,44.400 73.600 C 43.867 73.600,43.600 73.867,43.600 74.400 C 43.600 74.944,43.333 75.200,42.766 75.200 C 42.030 75.200,41.947 75.400,42.066 76.900 C 42.188 78.444,42.117 78.597,41.300 78.568 C 40.683 78.546,40.400 78.767,40.400 79.268 C 40.400 79.733,40.108 80.000,39.600 80.000 C 39.067 80.000,38.800 80.267,38.800 80.800 C 38.800 81.336,38.533 81.600,37.993 81.600 C 37.293 81.600,37.200 81.826,37.293 83.300 C 37.391 84.852,37.321 84.992,36.500 84.905 C 35.836 84.834,35.600 85.018,35.600 85.605 C 35.600 86.133,35.332 86.400,34.800 86.400 C 34.133 86.400,34.000 86.667,34.000 88.000 C 34.000 89.156,33.833 89.600,33.400 89.600 C 32.677 89.600,32.627 89.133,33.280 88.480 C 33.653 88.107,33.609 88.000,33.080 88.000 C 32.553 88.000,32.400 88.361,32.400 89.600 C 32.400 90.900,32.259 91.200,31.647 91.200 C 31.230 91.200,30.800 91.557,30.684 92.000 C 30.569 92.440,30.638 92.800,30.837 92.800 C 31.037 92.800,31.200 93.160,31.200 93.600 C 31.200 94.498,29.804 94.739,29.465 93.900 C 29.354 93.625,29.249 93.874,29.232 94.453 C 29.211 95.154,28.932 95.577,28.400 95.716 C 27.787 95.876,27.600 96.262,27.600 97.363 C 27.600 98.387,27.424 98.800,26.987 98.800 C 26.651 98.800,26.259 99.115,26.117 99.500 C 25.975 99.885,25.665 100.332,25.429 100.494 C 25.171 100.671,25.278 100.790,25.700 100.794 C 26.131 100.798,26.400 101.107,26.400 101.600 C 26.400 102.133,26.133 102.400,25.600 102.400 C 25.156 102.400,24.800 102.667,24.800 103.000 C 24.800 103.333,24.444 103.600,24.000 103.600 C 23.333 103.600,23.200 103.867,23.200 105.200 C 23.200 106.533,23.067 106.800,22.400 106.800 C 21.619 106.800,21.316 108.312,21.579 110.900 C 21.621 111.308,21.380 111.600,21.002 111.600 C 20.645 111.600,20.464 111.420,20.600 111.200 C 20.736 110.980,20.657 110.800,20.424 110.800 C 20.176 110.800,20.000 111.732,20.000 113.047 C 20.000 115.122,19.937 115.277,19.172 115.077 C 18.419 114.880,18.354 115.014,18.457 116.530 C 18.560 118.048,18.487 118.197,17.650 118.164 C 16.818 118.132,16.742 118.278,16.875 119.664 C 17.006 121.038,16.925 121.200,16.111 121.200 C 15.315 121.200,15.200 121.402,15.200 122.800 C 15.200 124.133,15.067 124.400,14.400 124.400 C 13.689 124.400,13.600 124.667,13.600 126.800 C 13.600 128.933,13.511 129.200,12.800 129.200 C 12.152 129.200,12.000 129.467,12.000 130.600 C 12.000 131.370,11.807 132.000,11.571 132.000 C 11.336 132.000,11.427 132.285,11.775 132.632 C 12.526 133.383,12.256 134.000,11.176 134.000 C 10.494 134.000,10.400 134.291,10.400 136.400 C 10.400 138.533,10.311 138.800,9.600 138.800 C 8.895 138.800,8.800 139.067,8.800 141.047 C 8.800 143.132,8.740 143.278,7.960 143.074 C 7.148 142.861,7.125 142.966,7.260 146.227 C 7.398 149.543,7.384 149.600,6.458 149.600 C 5.534 149.600,5.518 149.664,5.661 152.800 C 5.803 155.942,5.789 156.000,4.857 156.000 C 3.916 156.000,3.909 156.032,4.054 159.700 C 4.197 163.321,4.181 163.399,3.300 163.368 C 2.433 163.338,2.400 163.464,2.400 166.853 C 2.400 169.976,2.299 170.465,1.500 171.234 L 0.600 172.099 1.490 171.641 C 2.278 171.235,2.409 171.296,2.628 172.168 C 2.941 173.414,2.584 174.000,1.513 174.000 C 0.675 174.000,0.673 174.026,0.939 183.769 C 1.168 192.181,1.121 193.621,0.603 194.140 C -0.273 195.016,-0.275 204.982,0.600 205.857 C 1.470 206.727,1.447 212.895,0.571 213.771 C 0.226 214.117,0.136 214.400,0.371 214.400 C 0.656 214.400,0.800 216.334,0.800 220.172 C 0.800 225.854,0.814 225.946,1.700 226.072 C 2.599 226.200,2.738 226.764,2.421 229.000 C 1.935 232.434,2.422 236.663,3.300 236.632 C 4.181 236.601,4.197 236.679,4.054 240.300 L 3.908 244.000 4.954 244.000 C 6.165 244.000,6.373 244.943,5.300 245.568 C 4.912 245.794,4.823 245.981,5.100 245.988 C 5.438 245.996,5.600 246.713,5.600 248.200 C 5.600 250.217,5.675 250.400,6.503 250.400 C 7.377 250.400,7.401 250.502,7.261 253.600 C 7.118 256.736,7.134 256.800,8.058 256.799 C 8.955 256.799,8.994 256.910,8.868 259.134 C 8.743 261.340,8.786 261.468,9.639 261.435 C 10.485 261.402,10.536 261.542,10.443 263.669 C 10.353 265.753,10.418 265.948,11.248 266.069 C 12.087 266.191,12.144 266.375,12.048 268.670 C 11.952 270.992,11.995 271.126,12.773 270.923 C 13.547 270.720,13.600 270.875,13.600 273.353 C 13.600 275.733,13.681 276.000,14.400 276.000 C 15.048 276.000,15.200 276.267,15.200 277.400 C 15.200 278.533,15.352 278.800,16.000 278.800 C 16.667 278.800,16.800 279.067,16.800 280.400 C 16.800 281.733,16.933 282.000,17.600 282.000 C 18.267 282.000,18.400 282.267,18.400 283.600 C 18.400 284.933,18.533 285.200,19.200 285.200 C 19.911 285.200,20.000 285.467,20.000 287.600 C 20.000 289.733,20.089 290.000,20.800 290.000 C 21.467 290.000,21.600 290.267,21.600 291.600 C 21.600 292.933,21.733 293.200,22.400 293.200 C 23.067 293.200,23.200 293.467,23.200 294.800 C 23.200 296.133,23.333 296.400,24.000 296.400 C 24.444 296.400,24.800 296.667,24.800 297.000 C 24.800 297.339,25.158 297.600,25.625 297.600 C 26.375 297.600,26.425 297.762,26.179 299.400 C 25.932 301.051,25.979 301.200,26.755 301.200 C 27.474 301.200,27.600 301.438,27.600 302.800 C 27.600 304.133,27.733 304.400,28.400 304.400 C 29.026 304.400,29.210 304.682,29.246 305.700 C 29.272 306.415,29.375 306.685,29.476 306.300 C 29.905 304.658,31.287 305.501,30.995 307.227 C 30.753 308.663,30.819 308.880,31.560 309.074 C 32.210 309.244,32.400 309.608,32.400 310.684 C 32.400 311.738,32.594 312.125,33.200 312.284 C 33.643 312.400,34.000 312.830,34.000 313.247 C 34.000 313.733,34.283 314.000,34.800 314.000 C 35.244 314.000,35.600 314.267,35.600 314.600 C 35.600 314.979,35.982 315.200,36.635 315.200 C 37.621 315.200,37.657 315.276,37.400 316.800 C 37.156 318.242,37.212 318.400,37.965 318.400 C 38.533 318.400,38.800 318.655,38.800 319.200 C 38.800 319.733,39.067 320.000,39.600 320.000 C 40.141 320.000,40.400 320.267,40.400 320.825 C 40.400 321.451,40.617 321.620,41.300 321.525 C 42.129 321.410,42.189 321.535,42.066 323.100 C 41.947 324.600,42.030 324.800,42.766 324.800 C 43.333 324.800,43.600 325.056,43.600 325.600 C 43.600 326.133,43.867 326.400,44.400 326.400 C 44.844 326.400,45.200 326.667,45.200 327.000 C 45.200 327.342,45.560 327.600,46.037 327.600 C 46.538 327.600,46.959 327.921,47.084 328.400 C 47.199 328.840,47.547 329.200,47.857 329.200 C 48.166 329.200,48.591 329.650,48.800 330.200 C 49.009 330.750,49.365 331.200,49.590 331.200 C 49.816 331.200,50.000 331.920,50.000 332.800 C 50.000 334.133,50.133 334.400,50.800 334.400 C 51.333 334.400,51.600 334.667,51.600 335.200 C 51.600 335.733,51.867 336.000,52.400 336.000 C 52.933 336.000,53.200 336.267,53.200 336.800 C 53.200 337.333,53.467 337.600,54.000 337.600 C 54.533 337.600,54.800 337.867,54.800 338.400 C 54.800 338.933,55.067 339.200,55.600 339.200 C 56.133 339.200,56.400 339.467,56.400 340.000 C 56.400 340.533,56.667 340.800,57.200 340.800 C 57.733 340.800,58.000 341.067,58.000 341.600 C 58.000 342.044,58.267 342.400,58.600 342.400 C 58.930 342.400,59.200 342.687,59.200 343.037 C 59.200 343.388,59.560 343.769,60.000 343.884 C 60.440 343.999,60.800 344.359,60.800 344.684 C 60.800 345.009,61.160 345.369,61.600 345.484 C 62.040 345.599,62.400 345.959,62.400 346.284 C 62.400 346.609,62.760 346.969,63.200 347.084 C 63.640 347.199,64.000 347.559,64.000 347.884 C 64.000 348.209,64.360 348.569,64.800 348.684 C 65.240 348.799,65.600 349.142,65.600 349.447 C 65.600 349.826,66.106 350.000,67.213 350.000 C 68.227 350.000,68.905 350.208,69.040 350.561 C 69.159 350.869,69.603 351.212,70.028 351.323 C 70.452 351.434,70.800 351.800,70.800 352.136 C 70.800 352.471,71.160 352.860,71.600 353.000 C 72.040 353.140,72.400 353.602,72.400 354.027 C 72.400 354.452,72.670 354.800,73.000 354.800 C 73.333 354.800,73.600 355.156,73.600 355.600 C 73.600 356.133,73.867 356.400,74.400 356.400 C 74.943 356.400,75.200 356.667,75.200 357.231 C 75.200 357.961,75.406 358.046,76.900 357.937 C 78.400 357.828,78.615 357.918,78.728 358.706 C 78.798 359.198,79.113 359.600,79.428 359.600 C 79.743 359.600,80.000 359.960,80.000 360.400 C 80.000 360.933,80.267 361.200,80.800 361.200 C 81.342 361.200,81.600 361.467,81.600 362.027 C 81.600 362.753,81.807 362.839,83.300 362.727 C 84.804 362.615,85.015 362.704,85.128 363.500 C 85.198 363.995,85.513 364.400,85.828 364.400 C 86.143 364.400,86.400 364.760,86.400 365.200 C 86.400 365.733,86.667 366.000,87.200 366.000 C 87.733 366.000,88.000 366.267,88.000 366.800 C 88.000 367.467,88.267 367.600,89.600 367.600 C 90.965 367.600,91.200 367.725,91.200 368.451 C 91.200 369.220,91.354 369.278,92.800 369.046 C 94.310 368.805,94.400 368.847,94.400 369.795 C 94.400 370.422,94.626 370.800,95.000 370.800 C 95.333 370.800,95.600 371.156,95.600 371.600 C 95.600 372.267,95.867 372.400,97.200 372.400 C 98.562 372.400,98.800 372.526,98.800 373.245 C 98.800 374.024,98.946 374.069,100.653 373.813 C 102.482 373.539,102.503 373.548,102.308 374.568 C 102.153 375.378,102.271 375.600,102.855 375.600 C 103.333 375.600,103.600 375.887,103.600 376.400 C 103.600 377.067,103.867 377.200,105.200 377.200 C 106.569 377.200,106.800 377.324,106.800 378.058 C 106.800 378.873,106.930 378.904,109.445 378.669 L 112.089 378.422 111.893 379.449 C 111.700 380.459,111.727 380.472,113.501 380.206 C 115.277 379.939,115.303 379.951,115.108 380.968 C 114.953 381.778,115.071 382.000,115.655 382.000 C 116.088 382.000,116.411 382.293,116.425 382.700 C 116.445 383.236,116.535 383.190,116.812 382.500 C 117.261 381.384,118.000 381.322,118.000 382.400 C 118.000 383.067,118.267 383.200,119.600 383.200 C 120.933 383.200,121.200 383.333,121.200 384.000 C 121.200 384.711,121.467 384.800,123.600 384.800 C 125.733 384.800,126.000 384.889,126.000 385.600 C 126.000 386.248,126.267 386.400,127.400 386.400 C 128.533 386.400,128.800 386.552,128.800 387.200 C 128.800 387.911,129.067 388.000,131.200 388.000 C 133.333 388.000,133.600 388.089,133.600 388.800 C 133.600 389.518,133.867 389.600,136.200 389.600 C 138.533 389.600,138.800 389.682,138.800 390.400 C 138.800 391.133,139.067 391.200,142.000 391.200 C 144.933 391.200,145.200 391.267,145.200 392.000 C 145.200 392.730,145.467 392.800,148.247 392.800 C 151.129 392.800,151.282 392.845,151.077 393.626 C 150.873 394.408,151.008 394.448,153.531 394.354 C 156.037 394.262,156.208 394.312,156.333 395.166 C 156.461 396.045,156.593 396.074,160.133 395.989 C 164.990 395.874,164.899 395.858,164.600 396.800 C 164.351 397.586,168.757 398.007,172.800 397.584 C 175.225 397.330,175.401 397.379,175.368 398.300 C 175.337 399.195,175.368 399.200,181.435 399.200 C 185.939 399.200,187.586 399.331,187.736 399.700 C 187.889 400.077,188.040 400.054,188.351 399.606 C 188.895 398.823,195.642 398.728,195.900 399.500 C 196.136 400.208,204.264 400.208,204.500 399.500 C 204.629 399.114,207.032 399.020,215.033 399.088 C 220.735 399.137,225.175 399.077,224.900 398.955 C 224.625 398.833,224.400 398.478,224.400 398.167 C 224.400 397.495,224.094 397.523,230.500 397.597 C 235.362 397.653,235.600 397.618,235.600 396.852 C 235.600 395.774,236.005 395.586,237.730 395.866 C 238.640 396.014,239.090 396.270,238.933 396.551 C 238.794 396.801,238.921 396.779,239.221 396.500 C 239.518 396.225,240.697 396.000,241.843 396.000 C 243.758 396.000,243.908 395.933,243.706 395.164 C 243.519 394.447,243.653 394.339,244.644 394.406 C 248.114 394.642,249.300 394.426,249.084 393.600 C 248.945 393.069,249.072 392.800,249.461 392.800 C 249.783 392.800,249.958 392.944,249.850 393.119 C 249.742 393.295,249.828 393.700,250.043 394.019 C 250.354 394.481,250.410 394.437,250.317 393.800 C 250.212 393.083,250.460 392.988,252.700 392.881 C 254.872 392.777,255.200 392.659,255.200 391.981 C 255.200 391.271,255.493 391.200,258.418 391.200 C 261.260 391.200,261.621 391.118,261.518 390.500 C 261.418 389.905,261.777 389.782,263.900 389.681 C 266.072 389.577,266.400 389.459,266.400 388.781 C 266.400 388.093,266.686 388.000,268.800 388.000 C 270.933 388.000,271.200 387.911,271.200 387.200 C 271.200 386.552,271.467 386.400,272.600 386.400 C 273.733 386.400,274.000 386.248,274.000 385.600 C 274.000 384.448,275.493 384.535,275.718 385.700 L 275.891 386.600 275.946 385.700 C 275.992 384.926,276.224 384.800,277.600 384.800 C 278.933 384.800,279.200 384.667,279.200 384.000 C 279.200 383.313,279.469 383.199,281.100 383.194 C 282.316 383.190,282.805 383.064,282.457 382.844 C 282.040 382.579,282.027 382.430,282.402 382.199 C 282.674 382.031,283.044 382.141,283.239 382.449 C 283.491 382.848,283.589 382.862,283.594 382.500 C 283.597 382.225,283.937 382.000,284.348 382.000 C 284.871 382.000,285.081 381.730,285.048 381.100 C 285.005 380.285,285.160 380.210,286.700 380.307 C 288.262 380.406,288.400 380.336,288.400 379.445 C 288.400 378.503,288.467 378.482,290.800 378.693 C 293.053 378.898,293.200 378.859,293.200 378.056 C 293.200 377.324,293.432 377.200,294.800 377.200 C 296.133 377.200,296.400 377.067,296.400 376.400 C 296.400 375.892,296.667 375.600,297.132 375.600 C 297.633 375.600,297.854 375.317,297.832 374.700 C 297.803 373.883,297.956 373.812,299.500 373.934 C 301.000 374.053,301.200 373.970,301.200 373.234 C 301.200 372.528,301.445 372.400,302.800 372.400 C 304.133 372.400,304.400 372.267,304.400 371.600 C 304.400 371.156,304.667 370.800,305.000 370.800 C 305.372 370.800,305.600 370.423,305.600 369.808 C 305.600 368.862,305.684 368.827,307.400 369.062 C 309.049 369.288,309.200 369.237,309.200 368.454 C 309.200 367.724,309.433 367.600,310.800 367.600 C 312.133 367.600,312.400 367.467,312.400 366.800 C 312.400 366.267,312.667 366.000,313.200 366.000 C 313.733 366.000,314.000 365.733,314.000 365.200 C 314.000 364.756,314.267 364.400,314.600 364.400 C 314.974 364.400,315.200 364.022,315.200 363.395 C 315.200 362.447,315.290 362.405,316.800 362.646 C 318.246 362.878,318.400 362.820,318.400 362.051 C 318.400 361.467,318.651 361.200,319.200 361.200 C 319.733 361.200,320.000 360.933,320.000 360.400 C 320.000 359.859,320.267 359.600,320.825 359.600 C 321.448 359.600,321.620 359.383,321.525 358.712 C 321.411 357.899,321.544 357.834,323.100 357.943 C 324.592 358.047,324.800 357.960,324.800 357.231 C 324.800 356.667,325.057 356.400,325.600 356.400 C 326.133 356.400,326.400 356.133,326.400 355.600 C 326.400 355.156,326.667 354.800,327.000 354.800 C 327.342 354.800,327.600 354.440,327.600 353.963 C 327.600 353.462,327.921 353.041,328.400 352.916 C 328.840 352.801,329.200 352.461,329.200 352.161 C 329.200 351.861,329.650 351.502,330.200 351.364 C 330.750 351.226,331.200 350.863,331.200 350.557 C 331.200 350.174,331.700 350.000,332.800 350.000 C 333.956 350.000,334.400 349.833,334.400 349.400 C 334.400 349.067,334.756 348.800,335.200 348.800 C 335.733 348.800,336.000 348.533,336.000 348.000 C 336.000 347.467,336.267 347.200,336.800 347.200 C 337.333 347.200,337.600 346.933,337.600 346.400 C 337.600 345.867,337.867 345.600,338.400 345.600 C 338.933 345.600,339.200 345.333,339.200 344.800 C 339.200 344.267,339.467 344.000,340.000 344.000 C 340.517 344.000,340.800 343.733,340.800 343.247 C 340.800 342.830,341.157 342.400,341.600 342.284 C 342.040 342.169,342.400 341.788,342.400 341.437 C 342.400 341.067,342.735 340.800,343.200 340.800 C 343.733 340.800,344.000 340.533,344.000 340.000 C 344.000 339.467,344.267 339.200,344.800 339.200 C 345.333 339.200,345.600 338.933,345.600 338.400 C 345.600 337.867,345.867 337.600,346.400 337.600 C 346.933 337.600,347.200 337.333,347.200 336.800 C 347.200 336.267,347.467 336.000,348.000 336.000 C 348.533 336.000,348.800 335.733,348.800 335.200 C 348.800 334.756,349.067 334.400,349.400 334.400 C 349.834 334.400,350.000 333.954,350.000 332.787 C 350.000 331.723,350.204 331.097,350.600 330.945 C 350.930 330.818,351.200 330.459,351.200 330.147 C 351.200 329.835,351.650 329.409,352.200 329.200 C 352.750 328.991,353.200 328.526,353.200 328.167 C 353.200 327.734,353.415 327.597,353.837 327.759 C 354.262 327.922,354.544 327.736,354.684 327.202 C 354.800 326.757,355.229 326.400,355.647 326.400 C 356.133 326.400,356.400 326.117,356.400 325.600 C 356.400 325.057,356.667 324.800,357.231 324.800 C 357.959 324.800,358.047 324.590,357.949 323.100 C 357.847 321.557,357.918 321.409,358.718 321.495 C 359.364 321.565,359.600 321.377,359.600 320.795 C 359.600 320.267,359.868 320.000,360.400 320.000 C 360.933 320.000,361.200 319.733,361.200 319.200 C 361.200 318.651,361.467 318.400,362.051 318.400 C 362.820 318.400,362.878 318.246,362.646 316.800 C 362.405 315.290,362.447 315.200,363.395 315.200 C 364.022 315.200,364.400 314.974,364.400 314.600 C 364.400 314.267,364.756 314.000,365.200 314.000 C 365.733 314.000,366.000 313.733,366.000 313.200 C 366.000 312.667,366.267 312.400,366.800 312.400 C 367.240 312.400,367.600 312.208,367.600 311.973 C 367.600 311.728,367.259 311.654,366.800 311.800 C 366.167 312.001,366.000 311.872,366.000 311.180 C 366.000 310.504,366.180 310.354,366.800 310.516 C 367.393 310.671,367.600 310.528,367.600 309.963 C 367.600 309.456,367.880 309.200,368.434 309.200 C 369.170 309.200,369.253 309.000,369.134 307.500 C 369.012 305.956,369.083 305.803,369.900 305.832 C 370.517 305.854,370.800 305.633,370.800 305.132 C 370.800 304.667,371.092 304.400,371.600 304.400 C 372.267 304.400,372.400 304.133,372.400 302.800 C 372.400 301.449,372.529 301.200,373.227 301.200 C 373.953 301.200,374.039 300.993,373.927 299.500 C 373.812 297.959,373.884 297.803,374.700 297.832 C 375.317 297.854,375.600 297.633,375.600 297.132 C 375.600 296.667,375.892 296.400,376.400 296.400 C 377.067 296.400,377.200 296.133,377.200 294.800 C 377.200 293.467,377.333 293.200,378.000 293.200 C 378.781 293.200,379.084 291.688,378.821 289.100 C 378.782 288.715,379.014 288.400,379.337 288.400 C 379.728 288.400,379.855 288.668,379.716 289.200 C 379.589 289.686,379.704 290.000,380.009 290.000 C 380.380 290.000,380.454 289.375,380.293 287.600 C 380.080 285.250,380.097 285.200,381.073 285.200 C 382.015 285.200,382.055 285.111,381.800 283.600 C 381.556 282.158,381.612 282.000,382.365 282.000 C 383.073 282.000,383.200 281.756,383.200 280.400 C 383.200 279.067,383.333 278.800,384.000 278.800 C 384.648 278.800,384.800 278.533,384.800 277.400 C 384.800 276.267,384.952 276.000,385.600 276.000 C 386.396 276.000,386.652 274.666,386.420 271.731 C 386.365 271.038,386.518 270.906,387.175 271.078 C 387.947 271.279,388.000 271.123,388.000 268.647 C 388.000 266.267,388.081 266.000,388.800 266.000 C 389.511 266.000,389.600 265.733,389.600 263.600 C 389.600 261.467,389.689 261.200,390.400 261.200 C 391.113 261.200,391.200 260.933,391.200 258.753 C 391.200 256.479,391.258 256.322,392.025 256.522 C 392.812 256.728,392.846 256.592,392.769 253.469 C 392.693 250.362,392.732 250.202,393.545 250.232 C 394.315 250.260,394.400 250.053,394.400 248.132 C 394.400 246.267,394.500 246.000,395.200 246.000 C 395.640 246.000,396.000 245.826,396.000 245.613 C 396.000 245.399,395.712 245.336,395.360 245.471 C 395.007 245.606,394.560 245.465,394.366 245.158 C 393.793 244.253,393.939 244.000,395.035 244.000 C 396.065 244.000,396.069 243.987,395.993 240.900 C 395.884 236.463,395.896 236.400,396.829 236.400 C 397.628 236.400,397.654 236.223,397.560 231.300 C 397.464 226.271,397.475 226.198,398.369 226.067 L 399.276 225.934 399.138 215.901 C 399.031 208.131,399.113 205.830,399.500 205.700 C 399.865 205.578,400.000 204.151,400.000 200.400 C 400.000 196.649,399.865 195.222,399.500 195.100 C 398.714 194.838,398.805 186.894,399.600 186.392 C 399.998 186.140,400.032 186.010,399.700 186.006 C 399.323 186.002,399.200 184.570,399.200 180.200 C 399.200 174.667,399.163 174.400,398.400 174.400 C 397.470 174.400,397.520 174.767,397.596 168.530 C 397.654 163.789,397.634 163.666,396.828 163.877 C 395.865 164.129,395.855 164.072,395.989 159.297 C 396.079 156.090,396.056 155.998,395.186 156.097 C 394.322 156.196,394.293 156.093,394.370 153.131 C 394.446 150.237,394.400 150.055,393.562 149.931 C 392.716 149.806,392.677 149.637,392.763 146.465 C 392.849 143.258,392.821 143.139,392.026 143.392 C 391.253 143.637,391.200 143.498,391.200 141.227 C 391.200 139.067,391.112 138.800,390.400 138.800 C 389.690 138.800,389.600 138.533,389.600 136.428 C 389.600 134.290,389.513 134.043,388.721 133.928 C 387.917 133.811,387.851 133.603,387.950 131.500 C 388.049 129.382,387.990 129.200,387.200 129.200 C 386.556 129.200,386.361 128.976,386.416 128.300 C 386.639 125.538,386.401 124.400,385.600 124.400 C 384.933 124.400,384.800 124.133,384.800 122.800 C 384.800 121.467,384.667 121.200,384.000 121.200 C 383.332 121.200,383.200 120.933,383.200 119.582 C 383.200 118.264,383.071 117.987,382.500 118.082 C 381.921 118.180,381.820 117.941,381.917 116.700 C 382.024 115.335,381.945 115.200,381.032 115.200 C 380.041 115.200,380.033 115.173,380.273 112.600 C 380.432 110.895,380.371 110.000,380.095 110.000 C 379.864 110.000,379.769 110.360,379.884 110.800 C 380.042 111.405,379.896 111.600,379.285 111.600 C 378.539 111.600,378.493 111.414,378.693 109.200 C 378.898 106.947,378.859 106.800,378.056 106.800 C 377.324 106.800,377.200 106.568,377.200 105.200 C 377.200 103.867,377.067 103.600,376.400 103.600 C 375.795 103.600,375.599 103.331,375.594 102.500 C 375.590 101.722,375.486 101.560,375.240 101.949 C 374.549 103.039,373.815 102.204,373.941 100.470 C 374.046 99.007,373.958 98.800,373.231 98.800 C 372.528 98.800,372.400 98.553,372.400 97.200 C 372.400 95.867,372.267 95.600,371.600 95.600 C 371.087 95.600,370.800 95.333,370.800 94.855 C 370.800 94.277,370.577 94.154,369.800 94.302 C 368.800 94.493,368.325 93.541,369.162 93.023 C 369.785 92.638,369.147 91.200,368.353 91.200 C 367.741 91.200,367.600 90.900,367.600 89.600 C 367.600 88.720,367.437 88.000,367.237 88.000 C 367.038 88.000,366.969 88.360,367.084 88.800 C 367.230 89.356,367.096 89.600,366.647 89.600 C 366.159 89.600,366.000 89.207,366.000 88.000 C 366.000 86.667,365.867 86.400,365.200 86.400 C 364.667 86.400,364.400 86.133,364.400 85.600 C 364.400 85.012,364.133 84.800,363.395 84.800 C 362.447 84.800,362.405 84.710,362.646 83.200 C 362.878 81.754,362.820 81.600,362.051 81.600 C 361.467 81.600,361.200 81.349,361.200 80.800 C 361.200 80.267,360.933 80.000,360.400 80.000 C 359.960 80.000,359.600 79.743,359.600 79.428 C 359.600 79.113,359.198 78.798,358.706 78.728 C 357.918 78.615,357.828 78.400,357.937 76.900 C 358.046 75.406,357.961 75.200,357.231 75.200 C 356.667 75.200,356.400 74.943,356.400 74.400 C 356.400 73.867,356.133 73.600,355.600 73.600 C 355.156 73.600,354.800 73.333,354.800 73.000 C 354.800 72.658,354.440 72.400,353.963 72.400 C 353.462 72.400,353.041 72.079,352.916 71.600 C 352.801 71.160,352.441 70.800,352.116 70.800 C 351.791 70.800,351.434 70.452,351.323 70.028 C 351.212 69.603,350.869 69.159,350.561 69.040 C 350.208 68.905,350.000 68.227,350.000 67.213 C 350.000 66.106,349.826 65.600,349.447 65.600 C 349.142 65.600,348.799 65.240,348.684 64.800 C 348.569 64.360,348.209 64.000,347.884 64.000 C 347.559 64.000,347.199 63.640,347.084 63.200 C 346.969 62.760,346.609 62.400,346.284 62.400 C 345.959 62.400,345.599 62.040,345.484 61.600 C 345.369 61.160,345.009 60.800,344.684 60.800 C 344.359 60.800,343.999 60.440,343.884 60.000 C 343.769 59.560,343.388 59.200,343.037 59.200 C 342.687 59.200,342.400 58.930,342.400 58.600 C 342.400 58.267,342.044 58.000,341.600 58.000 C 341.067 58.000,340.800 57.733,340.800 57.200 C 340.800 56.667,340.533 56.400,340.000 56.400 C 339.467 56.400,339.200 56.133,339.200 55.600 C 339.200 55.067,338.933 54.800,338.400 54.800 C 337.867 54.800,337.600 54.533,337.600 54.000 C 337.600 53.467,337.333 53.200,336.800 53.200 C 336.267 53.200,336.000 52.933,336.000 52.400 C 336.000 51.867,335.733 51.600,335.200 51.600 C 334.667 51.600,334.400 51.333,334.400 50.800 C 334.400 50.267,334.133 50.000,333.600 50.000 C 333.067 50.000,332.800 49.733,332.800 49.200 C 332.800 48.533,332.533 48.400,331.200 48.400 C 330.079 48.400,329.600 48.229,329.600 47.828 C 329.600 47.513,329.195 47.198,328.700 47.128 C 328.122 47.046,327.754 46.678,327.672 46.100 C 327.602 45.605,327.287 45.200,326.972 45.200 C 326.657 45.200,326.400 44.840,326.400 44.400 C 326.400 43.867,326.133 43.600,325.600 43.600 C 325.053 43.600,324.800 43.333,324.800 42.758 C 324.800 42.017,324.608 41.934,323.200 42.069 C 321.757 42.206,321.600 42.132,321.600 41.311 C 321.600 40.667,321.366 40.400,320.800 40.400 C 320.267 40.400,320.000 40.133,320.000 39.600 C 320.000 39.067,319.733 38.800,319.200 38.800 C 318.655 38.800,318.400 38.533,318.400 37.965 C 318.400 37.212,318.242 37.156,316.800 37.400 C 315.276 37.657,315.200 37.621,315.200 36.635 C 315.200 35.982,314.979 35.600,314.600 35.600 C 314.267 35.600,314.000 35.244,314.000 34.800 C 314.000 34.283,313.733 34.000,313.247 34.000 C 312.830 34.000,312.400 33.643,312.284 33.200 C 312.125 32.594,311.738 32.400,310.684 32.400 C 309.608 32.400,309.244 32.210,309.074 31.560 C 308.880 30.819,308.663 30.753,307.227 30.995 C 305.673 31.258,305.600 31.224,305.600 30.235 C 305.600 29.582,305.379 29.200,305.000 29.200 C 304.667 29.200,304.400 28.844,304.400 28.400 C 304.400 27.733,304.133 27.600,302.800 27.600 C 301.467 27.600,301.200 27.467,301.200 26.800 C 301.200 26.133,300.933 26.000,299.600 26.000 C 298.444 26.000,298.000 25.833,298.000 25.400 C 298.000 24.956,297.533 24.800,296.200 24.800 C 294.645 24.800,294.400 24.687,294.400 23.969 C 294.400 23.254,294.191 23.156,292.900 23.261 C 291.559 23.370,291.404 23.286,291.435 22.466 C 291.466 21.637,291.312 21.559,289.835 21.656 C 288.360 21.753,288.209 21.677,288.295 20.882 C 288.379 20.104,288.202 20.000,286.795 20.000 C 285.467 20.000,285.200 19.866,285.200 19.200 C 285.200 18.552,284.933 18.400,283.800 18.400 C 282.667 18.400,282.400 18.248,282.400 17.600 C 282.400 16.933,282.133 16.800,280.800 16.800 C 279.467 16.800,279.200 16.667,279.200 16.000 C 279.200 15.333,278.933 15.200,277.600 15.200 C 276.474 15.200,276.000 15.029,276.000 14.624 C 276.000 14.307,275.837 13.946,275.637 13.823 C 275.438 13.700,275.369 13.959,275.484 14.399 C 275.647 15.024,275.497 15.200,274.800 15.200 C 274.104 15.200,273.953 15.024,274.116 14.400 C 274.299 13.701,274.128 13.600,272.763 13.600 C 271.444 13.600,271.200 13.469,271.200 12.763 C 271.200 11.989,271.014 11.937,268.700 12.063 C 266.326 12.193,266.202 12.155,266.232 11.300 C 266.259 10.518,266.063 10.400,264.732 10.400 C 263.445 10.400,263.200 10.266,263.200 9.565 C 263.200 8.776,263.019 8.738,259.900 8.857 C 256.707 8.980,256.596 8.954,256.467 8.052 C 256.339 7.155,256.221 7.126,253.267 7.260 C 250.378 7.392,250.193 7.350,250.077 6.536 C 249.945 5.608,245.985 4.971,245.206 5.753 C 244.629 6.332,243.600 5.691,243.600 4.754 C 243.600 3.904,243.506 3.888,239.800 4.109 C 236.002 4.336,236.000 4.335,236.000 3.385 C 236.000 2.303,231.445 1.817,228.260 2.559 C 226.635 2.937,225.787 2.403,226.205 1.265 C 226.367 0.825,224.645 0.754,216.537 0.865 C 208.904 0.969,206.633 0.887,206.502 0.500 C 206.377 0.128,204.710 0.000,200.000 0.000 C 195.290 0.000,193.623 0.128,193.498 0.500 M97.100 29.033 C 96.719 29.415,95.955 28.797,96.239 28.338 C 96.407 28.064,96.631 28.071,96.918 28.358 C 97.154 28.594,97.236 28.898,97.100 29.033 M304.000 28.667 C 304.000 28.960,303.730 29.200,303.400 29.200 C 303.070 29.200,302.800 28.960,302.800 28.667 C 302.800 28.373,303.070 28.133,303.400 28.133 C 303.730 28.133,304.000 28.373,304.000 28.667 M231.100 82.124 C 231.700 82.512,231.735 84.795,231.175 87.000 C 230.951 87.880,230.699 88.870,230.615 89.200 C 230.530 89.530,230.445 90.430,230.424 91.200 C 230.397 92.257,230.293 92.453,230.000 92.000 C 229.707 91.547,229.611 91.727,229.606 92.740 C 229.603 93.476,229.332 94.646,229.005 95.340 C 228.678 96.033,228.244 97.680,228.041 99.000 C 227.838 100.320,227.393 102.120,227.053 103.000 C 226.713 103.880,226.427 105.281,226.418 106.114 C 226.408 106.947,226.150 108.027,225.845 108.514 C 225.540 109.001,225.166 110.570,225.015 112.000 C 224.863 113.430,224.507 114.870,224.223 115.200 C 223.939 115.530,223.595 116.933,223.458 118.318 C 223.321 119.704,222.984 121.234,222.709 121.718 C 222.199 122.619,221.173 127.555,221.195 129.000 C 221.220 130.586,220.752 132.417,220.380 132.188 C 220.171 132.058,220.000 132.332,220.000 132.796 C 220.000 133.260,219.737 134.148,219.416 134.768 C 219.095 135.389,218.711 137.088,218.562 138.545 C 218.412 140.001,218.063 141.382,217.785 141.612 C 217.462 141.881,217.349 142.636,217.472 143.716 C 217.603 144.870,217.542 145.227,217.276 144.848 C 216.997 144.450,216.848 144.806,216.743 146.127 C 216.551 148.549,215.076 148.388,237.471 148.395 C 258.482 148.400,257.661 148.311,258.252 150.664 C 258.637 152.199,258.144 156.374,257.489 157.130 C 257.169 157.498,256.792 158.958,256.652 160.372 C 256.512 161.787,256.155 163.317,255.860 163.772 C 255.564 164.228,255.194 165.590,255.037 166.800 C 254.881 168.010,254.512 169.369,254.219 169.821 C 253.925 170.273,253.555 172.203,253.396 174.111 C 253.217 176.257,252.897 177.753,252.556 178.036 C 252.172 178.355,252.081 178.964,252.254 180.047 C 252.419 181.080,252.351 181.600,252.051 181.600 C 251.803 181.600,251.600 181.889,251.600 182.243 C 251.600 183.438,249.888 186.594,248.724 187.544 L 247.568 188.487 228.884 188.458 C 218.608 188.442,209.255 188.537,208.100 188.669 L 206.000 188.910 206.000 190.440 C 206.000 191.282,205.640 192.884,205.200 194.000 C 203.240 198.974,202.357 198.756,225.024 198.889 L 244.071 199.000 244.836 199.944 C 245.888 201.244,245.902 205.642,244.860 207.606 C 244.454 208.373,244.015 210.049,243.886 211.331 C 243.757 212.613,243.375 214.085,243.036 214.601 C 242.622 215.233,242.566 215.589,242.865 215.688 C 243.172 215.791,243.187 216.078,242.912 216.618 C 241.829 218.755,240.800 222.832,240.797 225.000 C 240.795 226.722,240.570 227.739,240.000 228.600 C 239.529 229.311,239.204 230.477,239.203 231.460 C 239.199 233.558,237.660 236.923,236.166 238.099 L 235.020 239.000 215.030 239.111 C 192.137 239.238,193.851 238.931,193.417 242.983 C 193.267 244.380,192.893 245.855,192.585 246.261 C 191.863 247.214,191.861 248.325,192.579 249.700 C 193.057 250.617,193.062 250.800,192.606 250.800 C 192.305 250.800,191.983 250.575,191.891 250.300 C 191.794 250.012,191.742 250.055,191.767 250.400 C 191.805 250.927,196.245 251.024,228.286 251.200 C 265.097 251.402,266.606 251.467,265.017 252.786 C 264.678 253.068,264.400 253.627,264.400 254.029 C 264.400 254.431,264.171 254.904,263.892 255.080 C 263.305 255.449,262.250 257.517,262.198 258.400 C 262.179 258.730,261.946 258.955,261.681 258.900 C 261.417 258.845,261.200 259.191,261.200 259.669 C 261.200 260.146,260.934 260.831,260.610 261.189 C 259.781 262.105,259.046 266.820,259.153 270.533 C 259.207 272.397,259.061 273.885,258.794 274.207 C 258.461 274.609,258.466 274.977,258.817 275.632 C 259.077 276.117,259.448 277.778,259.642 279.323 C 259.836 280.867,260.266 282.431,260.597 282.797 C 260.929 283.163,261.200 283.864,261.200 284.355 C 261.200 284.916,261.368 285.144,261.652 284.968 C 261.927 284.798,262.029 284.906,261.912 285.244 C 261.806 285.550,262.053 286.229,262.460 286.754 C 262.867 287.279,263.200 287.934,263.200 288.211 C 263.200 288.488,263.470 288.818,263.800 288.945 C 264.130 289.071,264.400 289.429,264.400 289.739 C 264.400 290.049,264.805 290.578,265.300 290.915 C 266.160 291.501,266.168 291.561,265.498 292.252 C 264.515 293.265,263.025 293.296,201.985 293.567 C 136.492 293.857,132.354 293.731,132.946 291.470 C 133.071 290.991,133.370 289.610,133.609 288.400 C 133.849 287.190,134.323 285.390,134.663 284.400 C 135.003 283.410,135.424 281.520,135.598 280.200 C 135.771 278.880,136.203 277.131,136.557 276.313 C 136.911 275.495,137.200 274.189,137.200 273.411 C 137.200 272.634,137.560 271.325,138.000 270.504 C 138.451 269.663,138.806 268.224,138.814 267.206 C 138.821 266.213,139.175 264.680,139.600 263.800 C 140.025 262.920,140.380 261.480,140.389 260.600 C 140.398 259.720,140.665 258.501,140.984 257.890 C 141.302 257.280,141.681 255.660,141.826 254.290 C 141.971 252.921,142.323 251.427,142.607 250.972 C 142.892 250.516,143.254 249.076,143.413 247.772 C 143.572 246.467,143.928 244.950,144.204 244.400 C 144.480 243.850,144.816 242.590,144.951 241.600 C 145.100 240.512,145.066 240.108,144.866 240.579 C 144.546 241.329,144.526 241.326,144.310 240.498 C 144.186 240.025,144.291 239.554,144.542 239.451 C 144.794 239.348,135.415 239.249,123.700 239.232 C 98.397 239.194,100.569 239.688,100.964 234.061 C 101.325 228.910,101.432 228.256,101.938 228.087 C 102.192 228.003,102.400 227.318,102.400 226.565 C 102.400 225.813,102.760 224.525,103.200 223.704 C 103.640 222.884,104.001 221.489,104.002 220.606 C 104.004 219.723,104.259 218.513,104.570 217.918 C 104.880 217.322,105.031 216.439,104.904 215.955 C 104.746 215.350,104.818 215.164,105.137 215.361 C 105.457 215.559,105.600 215.174,105.600 214.118 C 105.600 213.276,105.960 211.916,106.400 211.096 C 106.840 210.275,107.200 208.870,107.200 207.975 C 107.200 207.080,107.416 205.954,107.680 205.474 C 107.944 204.993,108.111 204.195,108.051 203.700 C 107.992 203.205,108.136 202.800,108.371 202.800 C 108.607 202.800,108.800 202.456,108.800 202.035 C 108.800 201.598,109.522 200.738,110.479 200.035 L 112.158 198.800 133.433 198.800 L 154.708 198.800 155.292 197.900 C 155.612 197.405,155.996 195.954,156.144 194.676 C 156.292 193.398,156.672 191.957,156.988 191.474 C 157.540 190.632,157.484 190.562,155.682 189.816 C 153.913 189.084,153.860 189.020,154.800 188.749 C 155.350 188.591,146.800 188.478,135.800 188.499 C 124.800 188.520,115.399 188.405,114.909 188.244 C 113.224 187.691,112.761 182.093,114.208 179.772 C 114.492 179.316,114.851 177.876,115.005 176.572 C 115.159 175.267,115.538 173.798,115.848 173.306 C 116.158 172.814,116.526 171.314,116.666 169.974 C 116.806 168.633,117.147 167.310,117.424 167.033 C 117.715 166.742,117.791 166.309,117.604 166.007 C 117.293 165.504,117.911 163.143,119.019 160.600 C 119.307 159.940,119.658 158.368,119.799 157.106 C 119.940 155.845,120.199 154.724,120.374 154.616 C 120.549 154.508,120.607 153.973,120.503 153.428 C 120.287 152.299,121.311 150.794,123.284 149.338 L 124.555 148.400 145.378 148.394 C 156.830 148.391,166.389 148.256,166.620 148.094 C 167.358 147.576,168.800 143.186,168.800 141.453 C 168.800 140.532,169.053 139.417,169.363 138.975 C 169.672 138.533,170.047 137.278,170.196 136.186 C 170.345 135.094,170.812 133.164,171.233 131.898 C 171.655 130.633,172.000 128.918,172.000 128.087 C 172.000 127.257,172.283 126.173,172.630 125.679 C 172.976 125.184,173.358 123.749,173.477 122.490 C 173.596 121.230,173.966 119.766,174.298 119.236 C 174.630 118.706,174.990 117.086,175.096 115.636 C 175.203 114.186,175.542 112.598,175.850 112.107 C 176.398 111.232,177.053 108.074,177.468 104.300 C 177.583 103.255,177.840 102.400,178.039 102.400 C 178.237 102.400,178.401 101.905,178.402 101.300 C 178.404 100.695,178.675 99.682,179.005 99.050 C 179.335 98.417,179.715 96.887,179.850 95.650 C 179.984 94.412,180.326 93.027,180.609 92.572 C 180.893 92.116,181.252 90.676,181.407 89.372 C 181.563 88.067,181.926 86.460,182.215 85.800 C 182.504 85.140,182.856 84.023,182.998 83.318 C 183.297 81.833,184.218 81.402,186.274 81.788 C 187.047 81.932,187.588 81.905,187.477 81.726 C 187.216 81.303,230.442 81.697,231.100 82.124 M371.757 96.633 C 372.100 97.527,372.073 97.600,371.400 97.600 C 371.067 97.600,370.800 97.244,370.800 96.800 C 370.800 95.846,371.414 95.739,371.757 96.633 M376.800 104.843 C 376.800 105.039,376.446 105.200,376.013 105.200 C 375.492 105.200,375.300 105.005,375.446 104.625 C 375.674 104.030,376.800 104.211,376.800 104.843 M135.900 239.876 C 135.515 239.976,134.885 239.976,134.500 239.876 C 134.115 239.775,134.430 239.693,135.200 239.693 C 135.970 239.693,136.285 239.775,135.900 239.876 M293.629 252.400 C 298.397 255.179,301.991 257.976,302.505 259.307 C 302.673 259.742,303.324 260.751,303.952 261.549 C 307.827 266.473,309.249 276.251,306.402 278.399 C 305.855 278.811,305.463 279.785,305.204 281.374 C 304.882 283.353,304.564 283.981,303.242 285.252 C 302.374 286.086,301.547 287.135,301.405 287.584 C 301.263 288.033,300.974 288.400,300.764 288.400 C 300.554 288.400,299.621 289.088,298.691 289.929 C 297.761 290.770,296.370 291.694,295.600 291.983 C 294.830 292.271,293.055 293.048,291.655 293.709 C 287.916 295.474,282.282 295.202,277.915 293.044 C 276.308 292.250,274.781 291.600,274.523 291.600 C 272.969 291.600,266.800 285.559,266.800 284.038 C 266.800 283.816,266.382 283.019,265.870 282.266 C 264.810 280.702,263.689 272.896,264.131 270.149 C 265.144 263.857,265.418 263.000,267.157 260.700 C 268.114 259.435,269.040 258.400,269.215 258.400 C 269.391 258.400,269.928 257.764,270.408 256.988 C 270.888 256.211,272.027 255.200,272.940 254.741 C 273.853 254.282,274.900 253.643,275.268 253.321 C 277.259 251.573,291.026 250.883,293.629 252.400 M34.000 311.200 C 34.000 311.644,33.733 312.000,33.400 312.000 C 33.067 312.000,32.800 311.644,32.800 311.200 C 32.800 310.756,33.067 310.400,33.400 310.400 C 33.733 310.400,34.000 310.756,34.000 311.200 " stroke="none" fill="#245cd3" fill-rule="evenodd"></path><path id="path1" d="M184.800 82.775 C 183.929 83.002,183.763 83.331,183.514 85.317 C 183.357 86.572,183.063 87.914,182.861 88.299 C 182.658 88.685,182.360 89.990,182.199 91.200 C 182.038 92.410,181.676 93.850,181.394 94.400 C 181.113 94.951,180.751 96.481,180.590 97.800 C 180.430 99.120,180.070 100.650,179.790 101.200 C 179.511 101.751,179.155 103.281,178.999 104.600 C 178.843 105.920,178.467 107.394,178.164 107.876 C 177.861 108.358,177.496 109.798,177.354 111.076 C 177.211 112.354,176.860 113.978,176.574 114.685 C 176.288 115.391,175.925 116.828,175.767 117.878 C 175.610 118.928,175.261 120.330,174.992 120.993 C 174.723 121.657,174.380 123.176,174.229 124.369 C 174.078 125.562,173.773 126.877,173.551 127.291 C 173.330 127.705,172.970 129.159,172.752 130.522 C 172.534 131.885,172.102 133.810,171.791 134.800 C 171.065 137.111,170.115 141.070,169.463 144.505 C 169.180 145.993,168.581 147.703,168.131 148.305 L 167.314 149.400 145.824 149.600 L 124.334 149.800 123.167 151.106 C 122.421 151.941,122.000 152.851,122.000 153.626 C 122.000 154.294,121.738 155.347,121.417 155.966 C 121.097 156.586,120.658 158.187,120.443 159.525 C 120.228 160.862,119.866 162.303,119.639 162.726 C 119.413 163.150,119.054 164.465,118.843 165.648 C 118.631 166.832,118.196 168.610,117.875 169.600 C 117.555 170.590,117.073 172.480,116.805 173.800 C 115.817 178.669,115.244 181.037,114.699 182.505 C 112.874 187.416,112.744 187.387,137.034 187.433 C 148.272 187.454,157.677 187.601,157.934 187.759 C 158.597 188.169,158.512 191.824,157.808 193.185 C 157.482 193.816,157.096 195.344,156.950 196.583 C 156.522 200.226,158.027 200.000,134.196 200.000 C 110.158 200.000,110.169 199.998,109.472 203.400 C 109.291 204.280,108.885 205.810,108.570 206.800 C 108.254 207.790,107.997 209.004,107.998 209.498 C 107.999 209.993,107.664 211.433,107.253 212.698 C 106.842 213.964,106.324 215.900,106.102 217.000 C 105.879 218.100,105.512 219.540,105.286 220.200 C 104.787 221.657,103.690 226.135,103.034 229.400 C 102.768 230.720,102.337 232.193,102.075 232.674 C 101.814 233.154,101.600 234.288,101.600 235.194 C 101.600 238.033,101.326 238.000,124.925 238.000 C 144.903 238.000,145.496 238.022,146.193 238.792 C 146.704 239.356,146.792 239.731,146.500 240.092 C 146.274 240.372,145.959 241.590,145.800 242.800 C 145.641 244.010,145.276 245.572,144.988 246.271 C 144.700 246.971,144.341 248.591,144.190 249.871 C 144.039 251.152,143.680 252.575,143.392 253.033 C 143.104 253.492,142.753 254.752,142.610 255.833 C 142.468 256.915,142.109 258.520,141.812 259.400 C 141.516 260.280,141.157 261.973,141.015 263.163 C 140.872 264.352,140.520 265.792,140.232 266.363 C 139.944 266.933,139.584 268.376,139.431 269.569 C 139.279 270.762,138.982 272.060,138.771 272.454 C 138.560 272.848,138.127 274.392,137.808 275.885 C 136.483 282.080,135.679 285.457,135.305 286.400 C 135.086 286.950,134.783 288.410,134.632 289.644 L 134.356 291.888 135.710 292.108 C 137.395 292.381,260.856 292.395,262.852 292.122 L 264.305 291.924 262.752 289.462 C 261.897 288.108,261.014 286.550,260.789 286.000 C 260.563 285.450,260.123 284.460,259.809 283.800 C 256.461 276.742,257.148 263.785,261.221 257.200 C 263.061 254.224,263.236 253.647,262.427 253.214 C 261.910 252.938,249.985 252.798,226.526 252.794 C 207.207 252.791,191.194 252.656,190.941 252.494 C 190.352 252.117,190.126 250.750,190.542 250.086 C 190.719 249.804,191.029 248.407,191.231 246.983 C 191.433 245.558,191.778 244.079,191.998 243.696 C 192.219 243.313,192.538 242.104,192.707 241.008 C 193.190 237.892,192.322 238.014,214.200 237.999 C 238.194 237.984,236.910 238.441,238.595 229.315 C 238.888 227.728,239.309 225.838,239.529 225.115 C 239.750 224.392,240.046 222.827,240.187 221.637 C 240.329 220.448,240.679 219.008,240.967 218.437 C 241.254 217.867,241.607 216.349,241.752 215.066 C 241.897 213.782,242.282 212.216,242.608 211.585 C 242.933 210.955,243.200 209.897,243.200 209.235 C 243.200 208.572,243.560 207.116,244.000 206.000 C 246.375 199.974,246.465 200.000,222.817 200.000 C 202.218 200.000,202.242 200.003,203.097 197.754 C 203.338 197.119,203.645 195.812,203.780 194.849 C 204.049 192.931,205.478 188.392,205.976 187.876 C 206.148 187.697,215.089 187.556,225.844 187.562 C 248.487 187.574,248.731 187.540,249.676 184.226 C 249.931 183.332,250.288 182.402,250.470 182.160 C 250.651 181.917,250.909 180.837,251.043 179.760 C 251.178 178.682,251.532 176.900,251.831 175.800 C 252.130 174.700,252.570 172.547,252.809 171.015 C 253.047 169.484,253.403 168.037,253.600 167.800 C 253.797 167.563,254.157 166.123,254.400 164.600 C 254.643 163.077,255.005 161.635,255.204 161.396 C 255.402 161.156,255.679 160.159,255.819 159.180 C 255.959 158.201,256.426 156.339,256.856 155.043 C 258.711 149.456,259.271 149.600,235.661 149.600 C 221.027 149.600,216.040 149.480,215.680 149.120 C 215.091 148.531,215.058 147.012,215.611 145.979 C 215.838 145.556,216.278 143.903,216.590 142.305 C 217.706 136.587,218.074 134.964,218.838 132.400 C 219.263 130.970,219.609 129.434,219.606 128.986 C 219.603 128.539,219.960 127.148,220.400 125.896 C 220.840 124.644,221.200 123.204,221.200 122.696 C 221.200 122.188,221.560 120.748,222.000 119.496 C 222.440 118.244,222.801 116.630,222.802 115.910 C 222.804 115.189,223.069 114.093,223.392 113.474 C 223.715 112.855,224.097 111.415,224.241 110.274 C 224.385 109.133,224.735 107.628,225.019 106.929 C 225.303 106.229,225.663 104.609,225.819 103.329 C 225.974 102.048,226.339 100.533,226.629 99.963 C 226.919 99.392,227.279 97.952,227.430 96.763 C 227.580 95.573,227.929 94.042,228.206 93.361 C 228.482 92.680,228.840 91.150,229.001 89.961 C 229.162 88.772,229.543 87.314,229.847 86.720 C 231.168 84.140,230.654 82.940,228.100 82.640 C 225.209 82.300,186.155 82.422,184.800 82.775 " stroke="none" fill="#f8fafb" fill-rule="evenodd"></path><path id="path2" d="M280.946 253.554 C 280.256 253.733,279.144 254.270,278.475 254.747 C 277.806 255.223,276.514 255.946,275.603 256.354 C 267.526 259.970,263.271 273.604,267.893 281.061 C 273.521 290.140,280.532 293.300,290.513 291.259 C 294.277 290.489,299.600 287.363,299.600 285.921 C 299.600 285.735,300.306 284.816,301.169 283.880 C 305.245 279.458,305.512 267.385,301.641 262.482 C 295.821 255.109,287.975 251.725,280.946 253.554 " stroke="none" fill="#efdc14" fill-rule="evenodd"></path><path id="path3" d="M182.800 0.348 C 182.800 1.077,190.480 1.543,192.700 0.948 C 194.897 0.359,193.191 0.000,188.200 0.000 C 185.230 0.000,182.800 0.156,182.800 0.348 M206.400 0.353 C 206.400 1.145,212.934 1.553,215.950 0.950 C 218.686 0.403,216.926 0.000,211.800 0.000 C 208.830 0.000,206.400 0.159,206.400 0.353 M170.570 1.633 C 170.026 2.235,170.122 2.317,171.651 2.562 C 173.485 2.855,174.167 2.502,173.769 1.464 C 173.441 0.608,171.401 0.715,170.570 1.633 M226.234 1.146 C 225.625 2.131,226.500 2.870,227.953 2.598 C 229.914 2.230,230.237 1.967,229.351 1.457 C 228.317 0.862,226.520 0.683,226.234 1.146 M161.495 2.677 C 161.107 2.778,160.893 3.027,161.019 3.230 C 161.144 3.434,161.012 3.618,160.724 3.640 C 159.983 3.696,162.014 4.312,163.100 4.360 C 163.804 4.391,164.000 4.182,164.000 3.400 C 164.000 2.382,163.347 2.194,161.495 2.677 M236.000 3.367 C 236.000 4.456,236.711 4.639,238.688 4.060 C 239.975 3.683,239.239 2.771,237.454 2.531 C 236.107 2.349,236.000 2.411,236.000 3.367 M154.534 4.627 C 154.402 4.972,154.486 5.446,154.720 5.680 C 155.342 6.302,156.400 5.756,156.400 4.813 C 156.400 3.826,154.899 3.677,154.534 4.627 M243.600 4.817 C 243.600 5.808,244.606 6.259,245.381 5.616 C 246.174 4.958,245.775 4.189,244.590 4.091 C 243.836 4.029,243.600 4.202,243.600 4.817 M148.241 6.236 C 147.914 7.090,148.281 7.600,149.224 7.600 C 149.785 7.600,150.000 7.323,150.000 6.600 C 150.000 5.447,148.651 5.168,148.241 6.236 M250.068 6.468 C 250.156 7.089,250.467 7.400,251.000 7.400 C 252.191 7.400,252.072 5.839,250.868 5.668 C 250.092 5.558,249.958 5.692,250.068 6.468 M141.829 7.868 C 141.566 8.553,142.284 9.286,143.000 9.062 C 143.220 8.994,143.458 8.546,143.528 8.069 C 143.685 7.002,142.228 6.830,141.829 7.868 M256.400 7.976 C 256.400 8.919,256.910 9.286,257.764 8.959 C 258.582 8.645,258.584 7.756,257.767 7.443 C 256.716 7.039,256.400 7.162,256.400 7.976 M132.369 10.500 C 132.073 11.470,132.208 11.961,132.818 12.120 C 133.705 12.353,134.000 12.107,134.000 11.133 C 134.000 10.551,132.529 9.980,132.369 10.500 M266.146 10.997 C 266.007 11.358,266.068 11.828,266.280 12.040 C 266.840 12.600,268.061 12.013,267.915 11.254 C 267.745 10.374,266.457 10.187,266.146 10.997 M124.864 14.096 C 124.174 14.786,124.300 15.200,125.200 15.200 C 125.640 15.200,126.000 14.941,126.000 14.624 C 126.000 13.816,125.415 13.545,124.864 14.096 M274.275 13.858 C 273.709 14.425,274.029 15.200,274.829 15.200 C 275.389 15.200,275.617 14.983,275.529 14.533 C 275.387 13.797,274.704 13.430,274.275 13.858 M113.200 19.225 C 113.200 19.733,113.475 20.000,114.000 20.000 C 114.502 20.000,114.800 19.733,114.800 19.285 C 114.800 18.857,114.479 18.546,114.000 18.510 C 113.454 18.469,113.200 18.696,113.200 19.225 M285.200 19.171 C 285.200 19.743,285.457 20.000,286.029 20.000 C 287.054 20.000,286.938 18.676,285.895 18.475 C 285.415 18.383,285.200 18.598,285.200 19.171 M110.138 20.617 C 109.854 21.357,109.957 21.482,111.000 21.662 C 111.578 21.762,111.835 21.550,111.928 20.900 C 112.080 19.832,110.533 19.587,110.138 20.617 M288.241 20.636 C 287.895 21.538,288.270 21.959,289.200 21.716 C 290.238 21.445,290.273 20.000,289.243 20.000 C 288.826 20.000,288.376 20.286,288.241 20.636 M107.067 21.867 C 106.459 22.474,106.859 23.200,107.800 23.200 C 108.533 23.200,108.800 22.987,108.800 22.400 C 108.800 21.620,107.663 21.270,107.067 21.867 M291.363 22.151 C 291.020 23.046,291.484 23.555,292.420 23.311 C 292.899 23.185,293.187 22.830,293.115 22.453 C 292.950 21.599,291.660 21.377,291.363 22.151 M103.867 23.467 C 103.259 24.074,103.659 24.800,104.600 24.800 C 105.333 24.800,105.600 24.587,105.600 24.000 C 105.600 23.220,104.463 22.870,103.867 23.467 M294.400 24.000 C 294.400 24.587,294.667 24.800,295.400 24.800 C 296.133 24.800,296.400 24.587,296.400 24.000 C 296.400 23.413,296.133 23.200,295.400 23.200 C 294.667 23.200,294.400 23.413,294.400 24.000 M96.239 28.338 C 96.100 28.561,96.182 28.865,96.420 29.012 C 97.035 29.393,97.432 28.872,96.918 28.358 C 96.631 28.071,96.407 28.064,96.239 28.338 M302.800 28.667 C 302.800 28.960,303.070 29.200,303.400 29.200 C 303.730 29.200,304.000 28.960,304.000 28.667 C 304.000 28.373,303.730 28.133,303.400 28.133 C 303.070 28.133,302.800 28.373,302.800 28.667 M93.029 29.829 C 92.274 30.583,92.542 31.200,93.624 31.200 C 94.125 31.200,94.400 30.925,94.400 30.424 C 94.400 29.342,93.783 29.074,93.029 29.829 M305.600 30.200 C 305.600 30.923,305.815 31.200,306.376 31.200 C 307.456 31.200,307.726 30.583,306.975 29.832 C 306.068 28.926,305.600 29.051,305.600 30.200 M83.346 36.197 C 83.207 36.558,83.286 37.046,83.520 37.280 C 84.132 37.892,85.156 37.380,85.030 36.525 C 84.893 35.585,83.672 35.347,83.346 36.197 M315.200 36.600 C 315.200 37.333,315.413 37.600,316.000 37.600 C 316.973 37.600,317.106 36.203,316.167 35.843 C 315.234 35.485,315.200 35.511,315.200 36.600 M77.043 41.033 C 76.684 41.969,76.709 42.000,77.843 42.000 C 78.629 42.000,78.826 41.845,78.643 41.367 C 78.509 41.019,78.400 40.659,78.400 40.567 C 78.400 40.095,77.252 40.488,77.043 41.033 M321.600 41.333 C 321.600 42.136,321.756 42.284,322.419 42.111 C 323.397 41.855,323.307 40.670,322.295 40.475 C 321.786 40.377,321.600 40.606,321.600 41.333 M70.800 45.808 C 70.800 46.175,70.457 46.565,70.037 46.674 C 68.820 46.993,68.658 48.400,69.837 48.400 C 70.390 48.400,70.800 48.164,70.800 47.847 C 70.800 47.542,71.176 47.195,71.635 47.075 C 72.173 46.934,72.420 46.600,72.330 46.133 C 72.149 45.190,70.800 44.904,70.800 45.808 M327.672 46.100 C 327.754 46.678,328.122 47.046,328.700 47.128 C 329.195 47.198,329.600 47.513,329.600 47.828 C 329.600 48.143,329.960 48.400,330.400 48.400 C 331.428 48.400,331.459 47.193,330.437 46.926 C 330.017 46.816,329.584 46.383,329.474 45.963 C 329.172 44.805,327.506 44.932,327.672 46.100 M48.707 68.000 C 48.432 68.440,47.993 68.800,47.731 68.800 C 47.468 68.800,47.140 69.160,47.000 69.600 C 46.860 70.040,46.507 70.400,46.216 70.400 C 45.714 70.400,45.200 71.227,45.200 72.033 C 45.200 72.753,46.875 72.399,47.074 71.637 C 47.184 71.217,47.617 70.784,48.037 70.674 C 48.481 70.558,48.800 70.125,48.800 69.637 C 48.800 69.160,49.058 68.800,49.400 68.800 C 49.733 68.800,50.000 68.444,50.000 68.000 C 50.000 67.560,49.822 67.200,49.603 67.200 C 49.385 67.200,48.982 67.560,48.707 68.000 M350.000 67.966 C 350.000 68.403,350.239 68.904,350.530 69.080 C 350.822 69.256,351.176 69.715,351.318 70.100 C 351.459 70.485,351.830 70.800,352.141 70.800 C 352.452 70.800,352.801 71.160,352.916 71.600 C 353.208 72.717,354.800 72.685,354.800 71.563 C 354.800 71.062,354.479 70.641,354.000 70.516 C 353.560 70.401,353.200 70.041,353.200 69.716 C 353.200 69.391,352.840 69.031,352.400 68.916 C 351.960 68.801,351.600 68.554,351.600 68.367 C 351.600 68.181,351.240 67.835,350.800 67.600 C 350.125 67.239,350.000 67.296,350.000 67.966 M40.641 77.436 C 40.341 78.219,40.664 78.800,41.400 78.800 C 41.704 78.800,42.054 78.636,42.178 78.436 C 42.512 77.896,41.991 76.800,41.400 76.800 C 41.117 76.800,40.776 77.086,40.641 77.436 M357.890 77.577 C 357.648 78.505,357.883 78.800,358.867 78.800 C 359.700 78.800,359.835 77.995,359.120 77.280 C 358.444 76.604,358.124 76.681,357.890 77.577 M183.718 81.927 C 183.468 82.082,183.142 82.746,182.994 83.404 C 182.846 84.062,182.492 85.140,182.208 85.800 C 181.923 86.460,181.563 88.067,181.407 89.372 C 181.252 90.676,180.893 92.116,180.609 92.572 C 180.326 93.027,179.984 94.412,179.850 95.650 C 179.715 96.887,179.349 98.392,179.036 98.995 C 178.724 99.597,178.342 101.195,178.187 102.545 C 178.033 103.895,177.683 105.450,177.409 106.000 C 177.136 106.550,176.806 107.937,176.677 109.082 C 176.548 110.227,176.183 111.577,175.866 112.082 C 175.549 112.587,175.203 114.186,175.096 115.636 C 174.990 117.086,174.630 118.706,174.298 119.236 C 173.966 119.766,173.596 121.230,173.477 122.490 C 173.358 123.749,172.976 125.184,172.630 125.679 C 172.283 126.173,172.000 127.257,172.000 128.087 C 172.000 128.918,171.655 130.633,171.233 131.898 C 170.812 133.164,170.345 135.094,170.196 136.186 C 170.047 137.278,169.672 138.533,169.363 138.975 C 169.053 139.417,168.800 140.532,168.800 141.453 C 168.800 143.186,167.358 147.576,166.620 148.094 C 166.389 148.256,156.830 148.391,145.378 148.394 L 124.555 148.400 123.202 149.398 C 121.451 150.691,121.214 151.101,121.206 152.857 C 121.202 153.743,120.977 154.400,120.632 154.532 C 120.277 154.669,119.968 155.624,119.810 157.075 C 119.671 158.354,119.295 159.880,118.976 160.466 C 118.656 161.052,118.276 162.670,118.130 164.062 C 117.985 165.453,117.653 166.804,117.393 167.064 C 117.133 167.324,116.806 168.633,116.666 169.974 C 116.526 171.314,116.158 172.814,115.848 173.306 C 115.538 173.798,115.159 175.267,115.005 176.572 C 114.851 177.876,114.492 179.316,114.208 179.772 C 112.761 182.094,113.224 187.692,114.909 188.243 C 115.399 188.404,125.205 188.496,136.700 188.449 L 157.600 188.362 157.600 189.492 C 157.600 190.114,157.334 191.002,157.009 191.466 C 156.684 191.930,156.295 193.365,156.146 194.655 C 155.997 195.945,155.612 197.405,155.292 197.900 L 154.708 198.800 133.433 198.800 L 112.158 198.800 110.512 200.010 C 109.188 200.984,108.812 201.549,108.583 202.910 C 108.427 203.839,108.052 204.955,107.750 205.389 C 107.447 205.823,107.200 206.949,107.200 207.890 C 107.200 208.839,106.843 210.269,106.400 211.096 C 105.958 211.920,105.600 213.352,105.600 214.296 C 105.600 215.239,105.242 216.671,104.800 217.496 C 104.360 218.316,104.000 219.713,104.000 220.600 C 104.000 221.487,103.640 222.884,103.200 223.704 C 102.739 224.564,102.400 225.961,102.400 227.000 C 102.400 228.039,102.061 229.436,101.600 230.296 C 101.016 231.385,100.800 232.552,100.800 234.618 C 100.800 239.419,98.575 238.969,123.468 239.200 L 145.000 239.400 144.901 241.317 C 144.847 242.372,144.555 243.722,144.252 244.317 C 143.950 244.913,143.572 246.467,143.413 247.772 C 143.254 249.076,142.892 250.516,142.607 250.972 C 142.323 251.427,141.971 252.921,141.826 254.290 C 141.681 255.660,141.302 257.280,140.984 257.890 C 140.665 258.501,140.398 259.720,140.389 260.600 C 140.380 261.480,140.025 262.920,139.600 263.800 C 139.175 264.680,138.821 266.213,138.814 267.206 C 138.806 268.224,138.451 269.663,138.000 270.504 C 137.560 271.325,137.200 272.634,137.200 273.411 C 137.200 274.189,136.911 275.495,136.557 276.313 C 136.203 277.131,135.771 278.880,135.598 280.200 C 135.424 281.520,135.003 283.410,134.663 284.400 C 134.323 285.390,133.849 287.190,133.609 288.400 C 133.370 289.610,133.071 290.993,132.945 291.473 C 132.486 293.231,132.431 293.229,200.372 293.112 C 262.291 293.004,264.799 292.972,265.486 292.264 C 266.172 291.557,266.165 291.505,265.300 290.915 C 264.805 290.578,264.400 290.049,264.400 289.739 C 264.400 289.429,264.130 289.071,263.800 288.945 C 263.470 288.818,263.200 288.477,263.200 288.188 C 263.200 287.898,262.750 287.127,262.200 286.473 C 261.650 285.819,261.200 284.875,261.200 284.374 C 261.200 283.873,260.929 283.163,260.597 282.797 C 260.266 282.431,259.836 280.867,259.642 279.323 C 259.448 277.778,259.089 276.140,258.845 275.683 C 258.273 274.615,258.266 268.997,258.836 267.933 C 259.076 267.485,259.440 265.931,259.646 264.480 C 259.851 263.029,260.285 261.548,260.610 261.189 C 260.934 260.831,261.200 260.127,261.200 259.626 C 261.200 259.125,261.650 258.181,262.200 257.527 C 262.750 256.873,263.200 256.102,263.200 255.812 C 263.200 255.523,263.470 255.182,263.800 255.055 C 264.130 254.929,264.400 254.481,264.400 254.062 C 264.400 253.642,264.678 253.068,265.017 252.786 C 266.606 251.467,265.097 251.402,228.280 251.200 L 191.800 251.000 191.941 249.024 C 192.018 247.937,192.321 246.677,192.614 246.224 C 192.907 245.771,193.272 244.283,193.423 242.917 C 193.865 238.941,192.182 239.238,215.030 239.111 L 235.020 239.000 236.166 238.099 C 237.660 236.923,239.199 233.558,239.203 231.460 C 239.204 230.477,239.529 229.311,240.000 228.600 C 240.578 227.727,240.795 226.722,240.797 224.915 C 240.799 223.378,241.105 221.655,241.600 220.400 C 242.040 219.284,242.400 217.741,242.400 216.971 C 242.400 216.202,242.682 215.142,243.026 214.617 C 243.370 214.092,243.757 212.613,243.886 211.331 C 244.015 210.049,244.454 208.373,244.860 207.606 C 245.902 205.642,245.888 201.244,244.836 199.944 L 244.071 199.000 224.236 198.889 L 204.400 198.778 204.400 197.404 C 204.400 196.648,204.760 195.116,205.200 194.000 C 205.640 192.884,206.000 191.282,206.000 190.440 L 206.000 188.910 208.100 188.669 C 209.255 188.537,218.608 188.442,228.884 188.458 L 247.568 188.487 248.724 187.544 C 250.213 186.328,251.574 183.372,251.872 180.703 C 252.001 179.546,252.334 178.330,252.611 178.000 C 252.888 177.670,253.246 175.875,253.407 174.010 C 253.568 172.146,253.936 170.256,254.226 169.810 C 254.515 169.365,254.881 168.010,255.037 166.800 C 255.194 165.590,255.564 164.228,255.860 163.772 C 256.155 163.317,256.512 161.787,256.652 160.372 C 256.792 158.958,257.169 157.498,257.489 157.130 C 258.144 156.374,258.637 152.199,258.252 150.664 C 257.661 148.311,258.482 148.400,237.471 148.395 C 226.872 148.392,217.829 148.289,217.376 148.168 C 216.433 147.915,216.754 142.820,217.790 141.600 C 218.070 141.270,218.424 139.841,218.578 138.425 C 218.731 137.009,219.110 135.360,219.421 134.760 C 219.731 134.160,220.106 132.618,220.255 131.334 C 220.403 130.051,220.752 128.640,221.030 128.200 C 221.308 127.760,221.666 126.320,221.825 125.000 C 221.985 123.680,222.359 122.228,222.656 121.772 C 222.954 121.317,223.312 119.787,223.452 118.372 C 223.592 116.958,223.939 115.530,224.223 115.200 C 224.507 114.870,224.863 113.430,225.015 112.000 C 225.166 110.570,225.540 109.001,225.845 108.514 C 226.150 108.027,226.408 106.947,226.418 106.114 C 226.427 105.281,226.713 103.880,227.053 103.000 C 227.393 102.120,227.838 100.320,228.041 99.000 C 228.244 97.680,228.660 96.060,228.964 95.400 C 229.269 94.740,229.648 93.030,229.807 91.600 C 229.966 90.170,230.268 88.891,230.477 88.759 C 231.676 87.998,231.939 82.610,230.807 82.004 C 229.910 81.524,184.490 81.450,183.718 81.927 M228.100 82.640 C 230.654 82.940,231.168 84.140,229.847 86.720 C 229.543 87.314,229.162 88.772,229.001 89.961 C 228.840 91.150,228.482 92.680,228.206 93.361 C 227.929 94.042,227.580 95.573,227.430 96.763 C 227.279 97.952,226.919 99.392,226.629 99.963 C 226.339 100.533,225.974 102.048,225.819 103.329 C 225.663 104.609,225.303 106.229,225.019 106.929 C 224.735 107.628,224.385 109.133,224.241 110.274 C 224.097 111.415,223.715 112.855,223.392 113.474 C 223.069 114.093,222.804 115.189,222.802 115.910 C 222.801 116.630,222.440 118.244,222.000 119.496 C 221.560 120.748,221.200 122.188,221.200 122.696 C 221.200 123.204,220.840 124.644,220.400 125.896 C 219.960 127.148,219.603 128.539,219.606 128.986 C 219.609 129.434,219.263 130.970,218.838 132.400 C 218.074 134.964,217.706 136.587,216.590 142.305 C 216.278 143.903,215.838 145.556,215.611 145.979 C 215.058 147.012,215.091 148.531,215.680 149.120 C 216.040 149.480,221.027 149.600,235.661 149.600 C 259.271 149.600,258.711 149.456,256.856 155.043 C 256.426 156.339,255.959 158.201,255.819 159.180 C 255.679 160.159,255.402 161.156,255.204 161.396 C 255.005 161.635,254.643 163.077,254.400 164.600 C 254.157 166.123,253.797 167.563,253.600 167.800 C 253.403 168.037,253.047 169.484,252.809 171.015 C 252.570 172.547,252.130 174.700,251.831 175.800 C 251.532 176.900,251.178 178.682,251.043 179.760 C 250.909 180.837,250.651 181.917,250.470 182.160 C 250.288 182.402,249.931 183.332,249.676 184.226 C 248.731 187.540,248.487 187.574,225.844 187.562 C 215.089 187.556,206.148 187.697,205.976 187.876 C 205.478 188.392,204.049 192.931,203.780 194.849 C 203.645 195.812,203.338 197.119,203.097 197.754 C 202.242 200.003,202.218 200.000,222.817 200.000 C 246.465 200.000,246.375 199.974,244.000 206.000 C 243.560 207.116,243.200 208.572,243.200 209.235 C 243.200 209.897,242.933 210.955,242.608 211.585 C 242.282 212.216,241.897 213.782,241.752 215.066 C 241.607 216.349,241.254 217.867,240.967 218.437 C 240.679 219.008,240.329 220.448,240.187 221.637 C 240.046 222.827,239.750 224.392,239.529 225.115 C 239.309 225.838,238.888 227.728,238.595 229.315 C 236.910 238.441,238.194 237.984,214.200 237.999 C 192.322 238.014,193.190 237.892,192.707 241.008 C 192.538 242.104,192.219 243.313,191.998 243.696 C 191.778 244.079,191.433 245.558,191.231 246.983 C 191.029 248.407,190.719 249.804,190.542 250.086 C 190.126 250.750,190.352 252.117,190.941 252.494 C 191.194 252.656,207.207 252.791,226.526 252.794 C 249.985 252.798,261.910 252.938,262.427 253.214 C 263.236 253.647,263.061 254.224,261.221 257.200 C 257.148 263.785,256.461 276.742,259.809 283.800 C 260.123 284.460,260.563 285.450,260.789 286.000 C 261.014 286.550,261.897 288.108,262.752 289.462 L 264.305 291.924 262.852 292.122 C 260.856 292.395,137.395 292.381,135.710 292.108 L 134.356 291.888 134.632 289.644 C 134.783 288.410,135.086 286.950,135.305 286.400 C 135.679 285.457,136.483 282.080,137.808 275.885 C 138.127 274.392,138.560 272.848,138.771 272.454 C 138.982 272.060,139.279 270.762,139.431 269.569 C 139.584 268.376,139.944 266.933,140.232 266.363 C 140.520 265.792,140.872 264.352,141.015 263.163 C 141.157 261.973,141.516 260.280,141.812 259.400 C 142.109 258.520,142.468 256.915,142.610 255.833 C 142.753 254.752,143.104 253.492,143.392 253.033 C 143.680 252.575,144.039 251.152,144.190 249.871 C 144.341 248.591,144.700 246.971,144.988 246.271 C 145.276 245.572,145.641 244.010,145.800 242.800 C 145.959 241.590,146.274 240.372,146.500 240.092 C 146.792 239.731,146.704 239.356,146.193 238.792 C 145.496 238.022,144.903 238.000,124.925 238.000 C 101.326 238.000,101.600 238.033,101.600 235.194 C 101.600 234.288,101.814 233.154,102.075 232.674 C 102.337 232.193,102.768 230.720,103.034 229.400 C 103.690 226.135,104.787 221.657,105.286 220.200 C 105.512 219.540,105.879 218.100,106.102 217.000 C 106.324 215.900,106.842 213.964,107.253 212.698 C 107.664 211.433,107.999 209.993,107.998 209.498 C 107.997 209.004,108.254 207.790,108.570 206.800 C 108.885 205.810,109.291 204.280,109.472 203.400 C 110.169 199.998,110.158 200.000,134.196 200.000 C 158.027 200.000,156.522 200.226,156.950 196.583 C 157.096 195.344,157.482 193.816,157.808 193.185 C 158.512 191.824,158.597 188.169,157.934 187.759 C 157.677 187.601,148.272 187.454,137.034 187.433 C 112.744 187.387,112.874 187.416,114.699 182.505 C 115.244 181.037,115.817 178.669,116.805 173.800 C 117.073 172.480,117.555 170.590,117.875 169.600 C 118.196 168.610,118.631 166.832,118.843 165.648 C 119.054 164.465,119.413 163.150,119.639 162.726 C 119.866 162.303,120.228 160.862,120.443 159.525 C 120.658 158.187,121.097 156.586,121.417 155.966 C 121.738 155.347,122.000 154.294,122.000 153.626 C 122.000 152.851,122.421 151.941,123.167 151.106 L 124.334 149.800 145.824 149.600 L 167.314 149.400 168.131 148.305 C 168.581 147.703,169.180 145.993,169.463 144.505 C 170.115 141.070,171.065 137.111,171.791 134.800 C 172.102 133.810,172.534 131.885,172.752 130.522 C 172.970 129.159,173.330 127.705,173.551 127.291 C 173.773 126.877,174.078 125.562,174.229 124.369 C 174.380 123.176,174.723 121.657,174.992 120.993 C 175.261 120.330,175.610 118.928,175.767 117.878 C 175.925 116.828,176.288 115.391,176.574 114.685 C 176.860 113.978,177.211 112.354,177.354 111.076 C 177.496 109.798,177.861 108.358,178.164 107.876 C 178.467 107.394,178.843 105.920,178.999 104.600 C 179.155 103.281,179.511 101.751,179.790 101.200 C 180.070 100.650,180.430 99.120,180.590 97.800 C 180.751 96.481,181.113 94.951,181.394 94.400 C 181.676 93.850,182.038 92.410,182.199 91.200 C 182.360 89.990,182.658 88.685,182.861 88.299 C 183.063 87.914,183.357 86.572,183.514 85.317 C 183.763 83.331,183.929 83.002,184.800 82.775 C 186.155 82.422,225.209 82.300,228.100 82.640 M35.829 83.868 C 35.566 84.553,36.284 85.286,37.000 85.062 C 37.220 84.994,37.458 84.546,37.528 84.069 C 37.685 83.002,36.228 82.830,35.829 83.868 M362.667 83.467 C 362.059 84.074,362.459 84.800,363.400 84.800 C 364.133 84.800,364.400 84.587,364.400 84.000 C 364.400 83.220,363.263 82.870,362.667 83.467 M33.280 88.480 C 32.627 89.133,32.677 89.600,33.400 89.600 C 33.733 89.600,34.000 89.244,34.000 88.800 C 34.000 87.868,33.926 87.834,33.280 88.480 M366.000 88.767 C 366.000 89.258,366.258 89.600,366.629 89.600 C 367.002 89.600,367.206 89.328,367.129 88.933 C 366.935 87.930,366.000 87.792,366.000 88.767 M29.680 92.880 C 29.085 93.475,29.549 94.400,30.443 94.400 C 30.919 94.400,31.200 94.119,31.200 93.643 C 31.200 92.749,30.275 92.285,29.680 92.880 M369.067 93.067 C 368.523 93.610,368.825 94.400,369.576 94.400 C 370.575 94.400,371.066 93.614,370.351 93.161 C 369.682 92.738,369.415 92.718,369.067 93.067 M370.800 96.800 C 370.800 97.244,371.067 97.600,371.400 97.600 C 372.073 97.600,372.100 97.527,371.757 96.633 C 371.414 95.739,370.800 95.846,370.800 96.800 M24.800 101.437 C 24.800 102.133,25.022 102.400,25.600 102.400 C 26.117 102.400,26.400 102.133,26.400 101.647 C 26.400 101.230,26.043 100.800,25.600 100.684 C 24.964 100.518,24.800 100.672,24.800 101.437 M373.878 101.224 C 373.741 101.746,373.886 102.135,374.271 102.283 C 375.063 102.586,375.688 101.587,375.128 100.913 C 374.519 100.180,374.125 100.277,373.878 101.224 M375.446 104.625 C 375.300 105.005,375.492 105.200,376.013 105.200 C 376.923 105.200,377.068 104.588,376.233 104.268 C 375.921 104.148,375.567 104.309,375.446 104.625 M20.000 110.371 C 20.000 110.607,20.191 110.800,20.424 110.800 C 20.657 110.800,20.736 110.980,20.600 111.200 C 20.464 111.420,20.647 111.600,21.006 111.600 C 21.882 111.600,21.608 110.251,20.695 110.075 C 20.313 110.002,20.000 110.135,20.000 110.371 M378.675 110.258 C 378.109 110.825,378.429 111.600,379.229 111.600 C 379.789 111.600,380.017 111.383,379.929 110.933 C 379.787 110.197,379.104 109.830,378.675 110.258 M18.552 113.781 C 18.267 114.523,18.683 115.200,19.424 115.200 C 19.772 115.200,20.000 114.804,20.000 114.200 C 20.000 113.101,18.932 112.792,18.552 113.781 M380.267 113.467 C 379.570 114.164,380.034 115.200,381.043 115.200 C 381.829 115.200,382.026 115.045,381.843 114.567 C 381.709 114.219,381.600 113.769,381.600 113.567 C 381.600 113.143,380.661 113.072,380.267 113.467 M16.800 117.176 C 16.800 118.084,17.408 118.559,18.188 118.260 C 18.992 117.951,18.463 116.400,17.553 116.400 C 17.074 116.400,16.800 116.683,16.800 117.176 M381.734 117.027 C 381.419 117.848,382.052 118.462,382.762 118.024 C 383.366 117.650,383.088 116.400,382.400 116.400 C 382.166 116.400,381.867 116.682,381.734 117.027 M15.200 120.400 C 15.200 120.978,15.467 121.200,16.163 121.200 C 16.928 121.200,17.082 121.036,16.916 120.400 C 16.800 119.957,16.370 119.600,15.953 119.600 C 15.467 119.600,15.200 119.883,15.200 120.400 M383.200 120.400 C 383.200 120.933,383.467 121.200,384.000 121.200 C 384.533 121.200,384.800 120.933,384.800 120.400 C 384.800 119.867,384.533 119.600,384.000 119.600 C 383.467 119.600,383.200 119.867,383.200 120.400 M12.267 127.867 C 11.716 128.417,12.029 129.200,12.800 129.200 C 13.333 129.200,13.600 128.933,13.600 128.400 C 13.600 127.629,12.817 127.316,12.267 127.867 M386.400 128.400 C 386.400 128.925,386.667 129.200,387.175 129.200 C 387.704 129.200,387.931 128.946,387.890 128.400 C 387.854 127.921,387.543 127.600,387.115 127.600 C 386.667 127.600,386.400 127.898,386.400 128.400 M387.878 132.823 C 387.647 133.705,387.895 134.000,388.867 134.000 C 389.856 134.000,389.829 132.553,388.835 132.293 C 388.322 132.159,388.006 132.334,387.878 132.823 M10.667 132.667 C 10.136 133.198,10.417 134.000,11.133 134.000 C 12.077 134.000,12.399 133.664,12.130 132.961 C 11.903 132.372,11.119 132.214,10.667 132.667 M9.043 137.433 C 8.637 138.490,8.763 138.800,9.600 138.800 C 10.187 138.800,10.400 138.533,10.400 137.800 C 10.400 136.683,9.431 136.421,9.043 137.433 M389.600 137.771 C 389.600 138.545,389.805 138.800,390.428 138.800 C 391.057 138.800,391.225 138.585,391.128 137.904 C 390.938 136.575,389.600 136.458,389.600 137.771 M7.445 142.228 C 7.217 142.820,7.538 143.200,8.267 143.200 C 8.560 143.200,8.800 142.870,8.800 142.467 C 8.800 141.646,7.740 141.459,7.445 142.228 M391.200 142.600 C 391.200 143.667,391.458 143.804,392.374 143.224 C 392.850 142.923,392.859 142.753,392.425 142.230 C 391.666 141.316,391.200 141.456,391.200 142.600 M6.100 148.265 C 5.193 148.631,5.556 149.600,6.600 149.600 C 7.689 149.600,7.715 149.566,7.357 148.633 C 7.105 147.975,6.938 147.927,6.100 148.265 M392.695 148.757 C 392.446 149.711,392.678 150.000,393.694 150.000 C 394.254 150.000,394.422 149.763,394.328 149.104 C 394.164 147.953,392.972 147.700,392.695 148.757 M4.243 155.033 C 3.884 155.969,3.909 156.000,5.043 156.000 C 5.829 156.000,6.026 155.845,5.843 155.367 C 5.709 155.019,5.600 154.659,5.600 154.567 C 5.600 154.095,4.452 154.488,4.243 155.033 M394.289 155.180 C 394.171 155.631,394.222 156.090,394.401 156.201 C 394.994 156.567,396.042 155.912,395.915 155.254 C 395.728 154.283,394.538 154.228,394.289 155.180 M2.975 160.706 C 2.259 161.202,2.509 163.368,3.301 163.522 C 4.157 163.689,4.573 162.744,4.236 161.399 C 3.975 160.361,3.696 160.208,2.975 160.706 M395.849 161.334 C 395.507 162.641,396.001 164.058,396.748 163.917 C 397.782 163.721,397.874 160.965,396.856 160.699 C 396.294 160.552,396.006 160.734,395.849 161.334 M1.768 171.058 C 1.893 171.310,1.726 171.619,1.398 171.746 C 0.363 172.142,0.632 174.080,1.700 173.928 C 2.819 173.769,3.065 172.484,2.185 171.397 C 1.831 170.959,1.643 170.806,1.768 171.058 M397.474 172.439 C 397.166 173.616,397.554 174.400,398.443 174.400 C 399.318 174.400,399.502 172.862,398.720 172.080 C 398.034 171.394,397.724 171.483,397.474 172.439 M0.000 190.200 C 0.000 194.061,0.348 195.356,0.957 193.767 C 1.614 192.055,1.147 186.000,0.357 186.000 C 0.161 186.000,0.000 187.890,0.000 190.200 M398.983 188.600 C 398.670 191.101,399.071 195.200,399.629 195.200 C 399.835 195.200,400.000 193.239,400.000 190.800 C 400.000 186.127,399.442 184.921,398.983 188.600 M0.000 209.800 C 0.000 213.661,0.348 214.956,0.957 213.367 C 1.614 211.655,1.147 205.600,0.357 205.600 C 0.161 205.600,0.000 207.490,0.000 209.800 M398.997 207.220 C 398.667 209.172,399.136 214.400,399.641 214.400 C 399.838 214.400,400.000 212.420,400.000 210.000 C 400.000 205.576,399.506 204.207,398.997 207.220 M0.813 226.872 C 0.827 227.888,1.847 229.487,2.234 229.100 C 2.958 228.375,2.574 226.196,1.700 226.072 C 0.986 225.971,0.803 226.136,0.813 226.872 M397.443 226.331 C 397.184 226.749,397.602 228.400,397.967 228.400 C 398.491 228.400,399.200 227.435,399.200 226.720 C 399.200 225.986,397.842 225.685,397.443 226.331 M2.680 236.653 C 2.177 237.156,2.386 238.690,3.030 239.225 C 3.553 239.659,3.725 239.650,4.034 239.174 C 4.899 237.844,3.708 235.625,2.680 236.653 M395.884 237.200 C 395.551 238.475,396.000 239.550,396.839 239.487 C 397.953 239.403,397.960 236.400,396.847 236.400 C 396.430 236.400,396.000 236.757,395.884 237.200 M4.000 244.367 C 4.000 245.486,4.500 245.975,5.240 245.579 C 6.348 244.986,6.198 244.000,5.000 244.000 C 4.450 244.000,4.000 244.165,4.000 244.367 M394.006 244.300 C 394.021 245.041,394.777 245.695,395.360 245.471 C 396.395 245.073,396.133 244.000,395.000 244.000 C 394.450 244.000,394.003 244.135,394.006 244.300 M392.724 250.209 C 392.594 250.340,392.581 250.805,392.695 251.243 C 392.962 252.261,394.200 252.062,394.200 251.000 C 394.200 250.243,393.217 249.716,392.724 250.209 M5.600 251.013 C 5.600 251.848,6.797 252.248,7.234 251.558 C 7.804 250.658,7.663 250.400,6.600 250.400 C 5.969 250.400,5.600 250.626,5.600 251.013 M391.200 257.400 C 391.200 258.193,391.376 258.425,391.900 258.324 C 392.285 258.250,392.600 257.834,392.600 257.400 C 392.600 256.966,392.285 256.550,391.900 256.476 C 391.376 256.375,391.200 256.607,391.200 257.400 M7.275 257.495 C 7.470 258.507,8.655 258.597,8.911 257.619 C 9.084 256.956,8.936 256.800,8.133 256.800 C 7.406 256.800,7.177 256.986,7.275 257.495 M9.067 261.467 C 8.491 262.042,8.816 263.200,9.553 263.200 C 10.271 263.200,10.960 261.893,10.490 261.423 C 10.185 261.118,9.391 261.142,9.067 261.467 M389.600 262.200 C 389.600 263.289,389.634 263.315,390.567 262.957 C 391.506 262.597,391.373 261.200,390.400 261.200 C 389.813 261.200,389.600 261.467,389.600 262.200 M10.400 266.785 C 10.400 267.523,11.386 268.355,11.779 267.949 C 12.389 267.320,12.099 266.186,11.300 266.072 C 10.612 265.974,10.400 266.142,10.400 266.785 M388.000 267.029 C 388.000 268.342,389.338 268.225,389.528 266.896 C 389.625 266.215,389.457 266.000,388.828 266.000 C 388.205 266.000,388.000 266.255,388.000 267.029 M12.189 271.218 C 11.912 271.666,12.671 272.800,13.249 272.800 C 13.442 272.800,13.600 272.350,13.600 271.800 C 13.600 270.785,12.689 270.409,12.189 271.218 M386.400 271.667 C 386.400 272.191,386.625 272.415,387.067 272.329 C 388.057 272.137,388.154 271.333,387.216 271.088 C 386.598 270.927,386.400 271.067,386.400 271.667 M15.200 279.600 C 15.200 280.040,15.275 280.400,15.367 280.400 C 15.459 280.400,15.819 280.509,16.167 280.643 C 16.645 280.826,16.800 280.629,16.800 279.843 C 16.800 279.067,16.595 278.800,16.000 278.800 C 15.467 278.800,15.200 279.067,15.200 279.600 M383.200 279.800 C 383.200 280.889,383.234 280.915,384.167 280.557 C 385.106 280.197,384.973 278.800,384.000 278.800 C 383.413 278.800,383.200 279.067,383.200 279.800 M16.800 282.800 C 16.800 283.333,17.067 283.600,17.600 283.600 C 18.133 283.600,18.400 283.333,18.400 282.800 C 18.400 282.267,18.133 282.000,17.600 282.000 C 17.067 282.000,16.800 282.267,16.800 282.800 M381.600 282.800 C 381.600 283.333,381.867 283.600,382.400 283.600 C 382.933 283.600,383.200 283.333,383.200 282.800 C 383.200 282.267,382.933 282.000,382.400 282.000 C 381.867 282.000,381.600 282.267,381.600 282.800 M18.475 285.895 C 18.676 286.938,20.000 287.054,20.000 286.029 C 20.000 285.457,19.743 285.200,19.171 285.200 C 18.598 285.200,18.383 285.415,18.475 285.895 M380.000 285.776 C 380.000 286.620,380.747 286.942,381.418 286.385 C 382.287 285.664,382.124 285.200,381.000 285.200 C 380.396 285.200,380.000 285.428,380.000 285.776 M378.800 288.976 C 378.800 289.901,379.489 290.066,379.717 289.196 C 379.852 288.680,379.727 288.400,379.363 288.400 C 379.053 288.400,378.800 288.659,378.800 288.976 M24.872 298.500 C 24.942 298.995,25.270 299.400,25.600 299.400 C 25.930 299.400,26.258 298.995,26.328 298.500 C 26.426 297.807,26.259 297.600,25.600 297.600 C 24.941 297.600,24.774 297.807,24.872 298.500 M373.746 298.197 C 373.607 298.558,373.686 299.046,373.920 299.280 C 374.532 299.892,375.556 299.380,375.430 298.525 C 375.293 297.585,374.072 297.347,373.746 298.197 M29.491 306.374 C 29.370 306.837,29.526 307.240,29.880 307.375 C 30.692 307.687,31.200 307.303,31.200 306.376 C 31.200 305.345,29.761 305.343,29.491 306.374 M369.022 305.964 C 368.749 306.406,369.166 307.600,369.594 307.600 C 370.138 307.600,370.878 306.449,370.611 306.018 C 370.293 305.503,369.327 305.471,369.022 305.964 M32.800 311.200 C 32.800 311.644,33.067 312.000,33.400 312.000 C 33.733 312.000,34.000 311.644,34.000 311.200 C 34.000 310.756,33.733 310.400,33.400 310.400 C 33.067 310.400,32.800 310.756,32.800 311.200 M366.000 311.200 C 366.000 312.068,366.295 312.181,367.151 311.639 C 367.797 311.230,367.411 310.400,366.576 310.400 C 366.259 310.400,366.000 310.760,366.000 311.200 M35.675 315.900 C 35.877 316.961,37.600 317.076,37.600 316.028 C 37.600 315.405,37.345 315.200,36.571 315.200 C 35.806 315.200,35.576 315.380,35.675 315.900 M362.476 315.900 C 362.550 316.285,362.966 316.600,363.400 316.600 C 363.834 316.600,364.250 316.285,364.324 315.900 C 364.425 315.376,364.193 315.200,363.400 315.200 C 362.607 315.200,362.375 315.376,362.476 315.900 M41.071 321.504 C 40.617 321.607,40.428 321.896,40.571 322.268 C 40.697 322.596,40.800 322.941,40.800 323.033 C 40.800 323.522,41.952 323.102,42.170 322.533 C 42.487 321.709,42.034 321.285,41.071 321.504 M357.910 321.423 C 357.505 321.829,358.083 323.200,358.659 323.200 C 359.459 323.200,359.828 321.990,359.158 321.566 C 358.503 321.151,358.215 321.118,357.910 321.423 M45.200 328.437 C 45.200 328.925,45.519 329.358,45.963 329.474 C 46.383 329.584,46.816 330.017,46.926 330.437 C 47.035 330.857,47.391 331.200,47.716 331.200 C 48.041 331.200,48.401 331.560,48.516 332.000 C 48.631 332.440,49.012 332.800,49.363 332.800 C 49.733 332.800,50.000 332.465,50.000 332.000 C 50.000 331.560,49.816 331.200,49.590 331.200 C 49.365 331.200,49.009 330.750,48.800 330.200 C 48.591 329.650,48.166 329.200,47.857 329.200 C 47.547 329.200,47.199 328.840,47.084 328.400 C 46.792 327.283,45.200 327.315,45.200 328.437 M353.200 328.235 C 353.200 328.557,352.750 328.991,352.200 329.200 C 351.650 329.409,351.200 329.835,351.200 330.147 C 351.200 330.459,350.930 330.818,350.600 330.945 C 349.790 331.255,349.821 332.800,350.637 332.800 C 350.988 332.800,351.369 332.440,351.484 332.000 C 351.600 331.557,352.030 331.200,352.447 331.200 C 352.933 331.200,353.200 330.917,353.200 330.400 C 353.200 329.960,353.451 329.600,353.757 329.600 C 354.258 329.600,354.800 328.795,354.800 328.052 C 354.800 327.897,354.440 327.743,354.000 327.710 C 353.537 327.675,353.200 327.896,353.200 328.235 M67.600 350.800 C 67.835 351.240,68.181 351.600,68.367 351.600 C 68.554 351.600,68.801 351.960,68.916 352.400 C 69.031 352.840,69.391 353.200,69.716 353.200 C 70.041 353.200,70.401 353.560,70.516 354.000 C 70.796 355.070,72.400 355.093,72.400 354.027 C 72.400 353.602,72.040 353.140,71.600 353.000 C 71.160 352.860,70.800 352.483,70.800 352.160 C 70.800 351.838,70.485 351.459,70.100 351.318 C 69.715 351.176,69.256 350.822,69.080 350.530 C 68.514 349.591,67.092 349.851,67.600 350.800 M331.200 350.557 C 331.200 350.863,330.750 351.226,330.200 351.364 C 329.650 351.502,329.200 351.861,329.200 352.161 C 329.200 352.461,328.840 352.801,328.400 352.916 C 327.170 353.238,327.335 354.800,328.600 354.800 C 329.333 354.800,329.600 354.587,329.600 354.000 C 329.600 353.535,329.867 353.200,330.237 353.200 C 330.588 353.200,330.969 352.840,331.084 352.400 C 331.199 351.960,331.523 351.600,331.804 351.600 C 332.085 351.600,332.424 351.315,332.557 350.967 C 332.909 350.050,332.881 350.000,332.000 350.000 C 331.560 350.000,331.200 350.250,331.200 350.557 M77.477 357.904 C 76.473 358.131,76.799 359.370,77.904 359.528 C 78.577 359.624,78.800 359.456,78.800 358.851 C 78.800 357.912,78.475 357.679,77.477 357.904 M321.467 357.867 C 321.368 357.965,321.381 358.405,321.495 358.843 C 321.739 359.774,322.931 359.704,323.115 358.747 C 323.229 358.153,321.894 357.440,321.467 357.867 M83.480 362.653 C 82.777 363.356,83.224 364.400,84.228 364.400 C 85.064 364.400,85.232 364.233,85.128 363.504 C 85.001 362.617,84.022 362.111,83.480 362.653 M315.200 363.371 C 315.200 364.145,315.405 364.400,316.028 364.400 C 316.657 364.400,316.825 364.185,316.728 363.504 C 316.538 362.175,315.200 362.058,315.200 363.371 M92.903 369.064 C 92.542 369.210,92.518 369.474,92.817 370.032 C 93.413 371.146,94.400 371.001,94.400 369.800 C 94.400 368.841,93.974 368.631,92.903 369.064 M305.600 369.800 C 305.600 370.959,306.069 371.074,307.001 370.142 C 307.533 369.610,307.557 369.419,307.130 369.148 C 306.172 368.541,305.600 368.784,305.600 369.800 M100.562 374.061 C 100.244 374.576,101.526 375.693,102.059 375.364 C 102.247 375.248,102.400 374.803,102.400 374.376 C 102.400 373.514,101.044 373.281,100.562 374.061 M297.734 374.227 C 297.328 375.285,298.293 375.879,299.103 375.068 C 299.713 374.458,299.725 374.324,299.200 373.992 C 298.350 373.454,298.010 373.509,297.734 374.227 M110.138 379.017 C 109.854 379.757,109.957 379.882,111.000 380.062 C 111.578 380.162,111.835 379.950,111.928 379.300 C 112.080 378.232,110.533 377.987,110.138 379.017 M288.400 379.333 C 288.400 380.136,288.556 380.284,289.219 380.111 C 290.197 379.855,290.107 378.670,289.095 378.475 C 288.586 378.377,288.400 378.606,288.400 379.333 M113.338 380.617 C 113.054 381.357,113.157 381.482,114.200 381.662 C 114.778 381.762,115.035 381.550,115.128 380.900 C 115.280 379.832,113.733 379.587,113.338 380.617 M285.098 380.300 C 284.852 380.792,284.978 381.600,285.300 381.600 C 285.465 381.600,285.870 381.600,286.200 381.600 C 286.533 381.600,286.800 381.244,286.800 380.800 C 286.800 380.019,285.437 379.619,285.098 380.300 M117.067 381.867 C 116.579 382.354,116.791 383.200,117.400 383.200 C 117.733 383.200,118.000 382.844,118.000 382.400 C 118.000 381.603,117.574 381.360,117.067 381.867 M282.226 382.358 C 282.104 382.555,282.274 382.819,282.602 382.946 C 282.965 383.085,283.200 382.944,283.200 382.587 C 283.200 381.940,282.575 381.793,282.226 382.358 M124.475 385.495 C 124.676 386.538,126.000 386.654,126.000 385.629 C 126.000 385.057,125.743 384.800,125.171 384.800 C 124.598 384.800,124.383 385.015,124.475 385.495 M274.000 385.600 C 274.000 386.133,274.267 386.400,274.800 386.400 C 275.333 386.400,275.600 386.133,275.600 385.600 C 275.600 385.067,275.333 384.800,274.800 384.800 C 274.267 384.800,274.000 385.067,274.000 385.600 M136.806 389.900 C 136.831 391.112,138.800 391.623,138.800 390.418 C 138.800 389.812,138.540 389.600,137.800 389.600 C 137.250 389.600,136.803 389.735,136.806 389.900 M261.494 389.839 C 261.179 390.154,261.590 391.200,262.029 391.200 C 262.217 391.200,262.565 390.840,262.800 390.400 C 263.221 389.614,262.171 389.163,261.494 389.839 M143.275 391.900 C 143.477 392.961,145.200 393.076,145.200 392.028 C 145.200 391.405,144.945 391.200,144.171 391.200 C 143.406 391.200,143.176 391.380,143.275 391.900 M255.200 392.029 C 255.200 392.602,255.415 392.817,255.895 392.725 C 256.938 392.524,257.054 391.200,256.029 391.200 C 255.457 391.200,255.200 391.457,255.200 392.029 M149.878 393.057 C 150.140 393.164,150.246 393.535,150.114 393.880 C 149.951 394.305,150.056 394.448,150.436 394.321 C 151.447 393.985,151.362 392.797,150.329 392.832 C 149.818 392.849,149.615 392.951,149.878 393.057 M249.084 393.600 C 249.327 394.530,249.821 394.643,250.130 393.839 C 250.377 393.196,250.088 392.800,249.371 392.800 C 249.072 392.800,248.958 393.118,249.084 393.600 M155.077 394.304 C 154.073 394.531,154.399 395.770,155.504 395.928 C 156.177 396.024,156.400 395.856,156.400 395.251 C 156.400 394.312,156.075 394.079,155.077 394.304 M243.600 394.976 C 243.600 395.293,243.776 395.662,243.992 395.795 C 244.529 396.127,246.079 395.251,245.788 394.780 C 245.409 394.167,243.600 394.330,243.600 394.976 M161.900 395.887 C 161.295 395.978,160.803 396.176,160.806 396.327 C 160.834 397.575,164.112 398.126,164.561 396.958 C 164.825 396.269,164.188 395.560,163.400 395.666 C 163.180 395.696,162.505 395.795,161.900 395.887 M235.890 395.844 C 235.033 396.700,235.626 397.623,236.974 397.533 C 237.741 397.481,238.242 397.268,238.109 397.052 C 237.975 396.837,238.135 396.766,238.468 396.894 C 238.824 397.031,239.067 396.897,239.067 396.562 C 239.067 396.253,238.782 395.998,238.433 395.995 C 238.085 395.992,237.435 395.891,236.990 395.771 C 236.544 395.652,236.049 395.684,235.890 395.844 M173.200 397.484 C 171.620 397.774,171.456 398.243,172.746 398.778 C 174.309 399.425,175.400 399.188,175.400 398.200 C 175.400 397.366,174.839 397.184,173.200 397.484 M224.900 397.465 C 224.361 397.682,224.207 398.760,224.700 398.863 C 226.134 399.162,227.283 398.972,227.854 398.340 C 228.489 397.638,228.471 397.600,227.495 397.600 C 226.929 397.600,226.226 397.524,225.933 397.432 C 225.640 397.339,225.175 397.354,224.900 397.465 M189.500 399.087 C 187.041 399.459,188.640 400.000,192.200 400.000 C 195.947 400.000,197.188 399.538,194.750 399.050 C 193.444 398.789,191.370 398.803,189.500 399.087 M205.300 399.082 C 203.280 399.471,204.604 400.000,207.600 400.000 C 209.360 400.000,210.800 399.841,210.800 399.647 C 210.800 398.926,207.740 398.612,205.300 399.082 " stroke="none" fill="#6a90db" fill-rule="evenodd"></path><path id="path4" d="M230.000 90.600 C 230.000 91.663,230.073 92.458,230.163 92.367 C 230.472 92.050,230.575 89.242,230.288 88.955 C 230.130 88.796,230.000 89.537,230.000 90.600 M177.701 103.800 C 177.705 104.680,177.787 104.993,177.883 104.495 C 177.979 103.998,177.975 103.278,177.875 102.895 C 177.775 102.513,177.696 102.920,177.701 103.800 M220.428 130.700 C 220.449 132.130,220.541 132.402,220.800 131.800 C 221.280 130.682,221.280 128.800,220.800 128.800 C 220.580 128.800,220.413 129.655,220.428 130.700 M217.293 144.000 C 217.293 144.770,217.375 145.085,217.476 144.700 C 217.576 144.315,217.576 143.685,217.476 143.300 C 217.375 142.915,217.293 143.230,217.293 144.000 M120.667 151.867 C 120.257 152.277,120.351 153.922,120.800 154.200 C 121.038 154.347,121.200 153.871,121.200 153.024 C 121.200 151.562,121.128 151.405,120.667 151.867 M117.496 164.756 C 117.387 165.171,117.453 165.756,117.643 166.056 C 117.877 166.426,117.990 166.184,117.994 165.300 C 118.001 163.845,117.793 163.618,117.496 164.756 M154.856 188.745 C 153.953 188.998,153.975 189.040,155.369 189.705 C 157.301 190.626,157.600 190.585,157.600 189.400 C 157.600 188.341,156.894 188.173,154.856 188.745 M204.400 198.167 C 204.400 198.515,204.685 198.800,205.033 198.800 C 205.740 198.800,205.617 197.939,204.875 197.692 C 204.614 197.605,204.400 197.818,204.400 198.167 M101.510 228.223 C 101.387 228.346,101.382 228.811,101.499 229.257 C 101.661 229.876,101.791 229.942,102.049 229.534 C 102.696 228.514,102.265 227.468,101.510 228.223 M134.500 239.876 C 134.885 239.976,135.515 239.976,135.900 239.876 C 136.285 239.775,135.970 239.693,135.200 239.693 C 134.430 239.693,134.115 239.775,134.500 239.876 M144.284 240.400 C 144.399 240.840,144.541 241.200,144.600 241.200 C 144.659 241.200,144.801 240.840,144.916 240.400 C 145.047 239.900,144.928 239.600,144.600 239.600 C 144.272 239.600,144.153 239.900,144.284 240.400 M192.032 249.700 C 192.010 250.461,192.200 250.800,192.649 250.800 C 193.112 250.800,193.185 250.657,192.903 250.300 C 192.685 250.025,192.407 249.530,192.285 249.200 C 192.159 248.858,192.050 249.073,192.032 249.700 M277.668 252.177 C 276.715 252.484,275.635 252.998,275.268 253.321 C 274.900 253.643,273.853 254.282,272.940 254.741 C 272.027 255.200,270.888 256.211,270.408 256.988 C 269.928 257.764,269.391 258.400,269.215 258.400 C 269.040 258.400,268.114 259.435,267.157 260.700 C 265.418 263.000,265.144 263.857,264.131 270.149 C 263.689 272.896,264.810 280.702,265.870 282.266 C 266.382 283.019,266.800 283.816,266.800 284.038 C 266.800 285.559,272.969 291.600,274.523 291.600 C 274.781 291.600,276.308 292.250,277.915 293.044 C 282.282 295.202,287.916 295.474,291.655 293.709 C 293.055 293.048,294.830 292.271,295.600 291.983 C 296.370 291.694,297.761 290.770,298.691 289.929 C 299.621 289.088,300.554 288.400,300.764 288.400 C 300.974 288.400,301.263 288.033,301.405 287.584 C 301.547 287.135,302.374 286.086,303.242 285.252 C 304.564 283.981,304.882 283.353,305.204 281.374 C 305.463 279.785,305.855 278.811,306.402 278.399 C 309.249 276.251,307.827 266.473,303.952 261.549 C 303.324 260.751,302.673 259.742,302.505 259.307 C 301.991 257.976,298.397 255.179,293.629 252.400 C 292.173 251.551,280.135 251.383,277.668 252.177 M293.518 255.359 C 296.921 257.068,298.370 258.339,301.641 262.482 C 303.241 264.509,303.499 265.182,303.966 268.540 C 304.910 275.323,303.887 280.931,301.169 283.880 C 300.306 284.816,299.600 285.735,299.600 285.921 C 299.600 287.363,294.277 290.489,290.513 291.259 C 280.532 293.300,273.521 290.140,267.893 281.061 C 263.271 273.604,267.526 259.970,275.603 256.354 C 276.514 255.946,277.806 255.223,278.475 254.747 C 281.642 252.491,288.352 252.764,293.518 255.359 M258.440 271.324 C 258.414 273.314,258.545 274.357,258.800 274.200 C 259.266 273.912,259.266 270.655,258.800 269.200 C 258.577 268.503,258.468 269.148,258.440 271.324 M143.000 293.579 C 146.300 293.701,172.130 293.707,200.400 293.593 L 251.800 293.385 194.400 293.372 C 162.830 293.364,139.700 293.457,143.000 293.579 " stroke="none" fill="#486984" fill-rule="evenodd"></path></g></svg>