<?xml version="1.0" encoding="utf-8"?>
<!-- Generator: Adobe Illustrator 19.0.0, SVG Export Plug-In . SVG Version: 6.00 Build 0)  -->
<svg version="1.1" id="Layer_1" xmlns="http://www.w3.org/2000/svg"
	 viewBox="0 0 1000 1000" style="enable-background:new 0 0 1000 1000;" xml:space="preserve">
<style type="text/css">
	.st0{fill:#FFFFFF;stroke:#F2F2F2;stroke-miterlimit:10;}
	.st1{fill:none;stroke:#FFFFFF;stroke-width:24;}
	.st2{fill:#FFFFFF;}
</style>
<g id="layer1" inkscape:label="Layer 1" inkscape:groupmode="layer">
	<circle id="path3717-3" cx="499.5" cy="492.4" r="467.5"/>
	
		<path id="path3713" sodipodi:arg2="2.4006097" sodipodi:type="star" sodipodi:cy="65.271988" sodipodi:cx="119.7237" sodipodi:r2="68.102875" sodipodi:sides="4" sodipodi:r1="38.818638" sodipodi:arg1="1.6152115" inkscape:transform-center-x="1.0452752e-05" inkscape:transform-center-y="8.4145414e-06" inkscape:randomized="0" inkscape:rounded="0.07" inkscape:flatsided="true" class="st0" d="
		M416,813.2c-19.2-6.4-115.2-353.3-106.5-385S572,166.1,591.2,172.5c19.2,6.4,115.2,353.3,106.5,385S435.3,819.6,416,813.2z"/>
	<circle id="path3717" class="st1" cx="499.5" cy="492.5" r="435"/>
</g>
<path class="st2" d="M397.5,164.2l-13.7,164l-47.3-48.5c-98.1,109-136.7,238.8-97.3,320.4c-12.3-6.3-23.4-14.4-33.1-24.4
	C133,500.7,166.9,347.2,280,221.6l-46.7-47.9L397.5,164.2"/>
<path class="st2" d="M651.8,802l-8.5-164.3l53.3,41.7c82.6-121.2,103.3-255,53.4-330.6c13,4.6,25.2,11.1,36.1,19.7
	c82.6,64.6,69.6,221.2-25.6,360.9l52.7,41.2L651.8,802"/>
</svg>
