<?xml version="1.0" encoding="UTF-8" standalone="no"?>
<svg
   xmlns:dc="http://purl.org/dc/elements/1.1/"
   xmlns:cc="http://creativecommons.org/ns#"
   xmlns:rdf="http://www.w3.org/1999/02/22-rdf-syntax-ns#"
   xmlns:svg="http://www.w3.org/2000/svg"
   xmlns="http://www.w3.org/2000/svg"
   xmlns:sodipodi="http://sodipodi.sourceforge.net/DTD/sodipodi-0.dtd"
   xmlns:inkscape="http://www.inkscape.org/namespaces/inkscape"
   version="1.1"
   id="Layer_1"
   x="0px"
   y="0px"
   viewBox="0 0 33 33"
   xml:space="preserve"
   sodipodi:docname="0xchange_logo.svg"
   width="33"
   height="33"
   inkscape:version="0.92.1 r15371"><metadata
     id="metadata17"><rdf:RDF><cc:Work
         rdf:about=""><dc:format>image/svg+xml</dc:format><dc:type
           rdf:resource="http://purl.org/dc/dcmitype/StillImage" /><dc:title></dc:title></cc:Work></rdf:RDF></metadata><defs
     id="defs15" /><sodipodi:namedview
     pagecolor="#ffffff"
     bordercolor="#666666"
     borderopacity="1"
     objecttolerance="10"
     gridtolerance="10"
     guidetolerance="10"
     inkscape:pageopacity="0"
     inkscape:pageshadow="2"
     inkscape:window-width="1920"
     inkscape:window-height="1001"
     id="namedview13"
     showgrid="false"
     inkscape:document-units="pt"
     inkscape:zoom="15.104"
     inkscape:cx="-11.499242"
     inkscape:cy="18.05299"
     inkscape:window-x="-9"
     inkscape:window-y="-9"
     inkscape:window-maximized="1"
     inkscape:current-layer="layer1" /><style
     type="text/css"
     id="style2">
	.st0{fill:#FFFFFF;stroke:#F2F2F2;stroke-miterlimit:10;}
	.st1{fill:none;stroke:#FFFFFF;stroke-width:24;}
	.st2{fill:#FFFFFF;}
</style><g
     id="layer1"
     inkscape:label="Layer 1"
     inkscape:groupmode="layer"
     transform="translate(0,-967)"><ellipse
       id="path3717-3"
       cx="16.598883"
       cy="983.21301"
       rx="15.220662"
       ry="14.870079"
       style="stroke-width:0.03218043" /><path
       id="path3713"
       sodipodi:arg2="2.4006097"
       sodipodi:type="star"
       sodipodi:cy="65.271988"
       sodipodi:cx="119.7237"
       sodipodi:r2="68.102875"
       sodipodi:sides="4"
       sodipodi:r1="38.818638"
       sodipodi:arg1="1.6152115"
       inkscape:transform-center-y="-3.1726861e-006"
       inkscape:randomized="0"
       inkscape:rounded="0.07"
       inkscape:flatsided="true"
       class="st0"
       d="m 118.00013,104.05234 c -3.83906,-0.17062 -37.227408,-36.664862 -37.056784,-40.503922 0.170625,-3.839059 36.664864,-37.22741 40.503924,-37.056785 3.83906,0.170624 37.22741,36.664865 37.05679,40.503925 -0.17063,3.839059 -36.66487,37.227412 -40.50393,37.056782 z"
       style="fill:#ffffff;stroke:#f2f2f2;stroke-miterlimit:10"
       transform="matrix(0.03255757,0,0,0.03180766,-25.815635,965.5647)" /><ellipse
       id="path3717"
       class="st1"
       cx="16.598883"
       cy="983.21619"
       style="fill:none;stroke:#ffffff;stroke-width:0.77233028"
       rx="14.162542"
       ry="13.83633" /></g><path
     class="st2"
     d="M 13.278012,5.7737548 12.831973,10.990212 11.291999,9.4475396 C 8.0981023,12.914575 6.8413802,17.043208 8.1241485,19.638714 7.7236909,19.438325 7.3623016,19.180682 7.0464932,18.862606 4.6665347,16.477032 5.7702363,11.594557 9.452497,7.5995147 L 7.9320588,6.0759275 13.278012,5.7737548"
     id="path8"
     inkscape:connector-curvature="0"
     style="fill:#ffffff;stroke-width:0.03218043" /><path
     class="st2"
     d="m 21.557402,26.060679 -0.27674,-5.225997 1.735318,1.326379 c 2.689255,-3.85509 3.363197,-8.110954 1.738575,-10.515612 0.423248,0.146315 0.82045,0.353066 1.175328,0.626611 2.689255,2.054774 2.266007,7.035854 -0.833473,11.479384 l 1.715783,1.310475 -5.254791,0.99876"
     id="path10"
     inkscape:connector-curvature="0"
     style="fill:#ffffff;stroke-width:0.03218043" /></svg>