<?xml version="1.0" encoding="UTF-8" standalone="no"?>
<svg
   xmlns:dc="http://purl.org/dc/elements/1.1/"
   xmlns:cc="http://creativecommons.org/ns#"
   xmlns:rdf="http://www.w3.org/1999/02/22-rdf-syntax-ns#"
   xmlns:svg="http://www.w3.org/2000/svg"
   xmlns="http://www.w3.org/2000/svg"
   xmlns:sodipodi="http://sodipodi.sourceforge.net/DTD/sodipodi-0.dtd"
   xmlns:inkscape="http://www.inkscape.org/namespaces/inkscape"
   width="26"
   height="26"
   viewBox="0 0 26 26"
   fill="none"
   version="1.1"
   id="svg16"
   sodipodi:docname="bsov.svg"
   inkscape:version="0.92.1 r15371">
  <metadata
     id="metadata22">
    <rdf:RDF>
      <cc:Work
         rdf:about="">
        <dc:format>image/svg+xml</dc:format>
        <dc:type
           rdf:resource="http://purl.org/dc/dcmitype/StillImage" />
        <dc:title></dc:title>
      </cc:Work>
    </rdf:RDF>
  </metadata>
  <defs
     id="defs20" />
  <sodipodi:namedview
     pagecolor="#ffffff"
     bordercolor="#666666"
     borderopacity="1"
     objecttolerance="10"
     gridtolerance="10"
     guidetolerance="10"
     inkscape:pageopacity="0"
     inkscape:pageshadow="2"
     inkscape:window-width="1920"
     inkscape:window-height="1001"
     id="namedview18"
     showgrid="false"
     inkscape:zoom="9.0769231"
     inkscape:cx="16.034327"
     inkscape:cy="-1.723675"
     inkscape:window-x="-9"
     inkscape:window-y="-9"
     inkscape:window-maximized="1"
     inkscape:current-layer="svg16" />
  <g
     id="g17134"
     transform="matrix(0.00934078,0,0,-0.00916165,1.1226547,24.90356)"
     style="fill:#000000;stroke:none">
    <path
       id="path17126"
       d="m 1240,2557 c -3,-3 -45,-7 -95,-10 -93,-6 -101,-7 -175,-27 -25,-7 -49,-13 -55,-15 -5,-1 -17,-5 -25,-8 -8,-4 -41,-16 -72,-27 -32,-12 -90,-39 -129,-61 -40,-21 -74,-39 -76,-39 -17,0 -181,-136 -248,-204 C 202,1999 79,1772 31,1550 25,1525 18,1489 13,1470 3,1425 3,1126 13,1080 40,959 52,916 79,840 136,679 244,506 368,376 413,329 599,180 613,180 c 2,0 36,-18 76,-39 39,-22 97,-49 129,-61 31,-11 64,-23 72,-27 8,-3 20,-7 25,-8 11,-3 90,-24 120,-33 11,-3 112,-7 225,-9 174,-2 218,0 295,17 50,11 99,25 110,30 12,6 27,12 35,14 44,9 194,82 275,134 271,174 465,447 550,772 34,131 34,136 31,314 -1,100 -6,195 -10,211 -43,180 -57,220 -121,350 -123,249 -327,455 -566,573 -78,38 -123,58 -141,61 -5,1 -32,10 -60,21 -60,22 -123,37 -188,44 -83,9 -225,17 -230,13 z m 279,-267 c 309,-75 556,-271 696,-555 88,-177 122,-361 104,-555 -13,-136 -42,-239 -104,-365 -141,-289 -396,-488 -720,-562 -48,-11 -117,-16 -220,-16 -129,0 -164,4 -250,26 -371,98 -664,392 -756,762 -29,114 -36,305 -16,420 79,447 421,787 865,860 112,19 289,12 401,-15 z"
       inkscape:connector-curvature="0" />
    <path
       id="path17128"
       d="m 912,1917 c -193,-89 -351,-165 -350,-169 4,-10 709,-410 723,-411 11,0 727,444 723,448 -8,8 -722,295 -732,294 -6,0 -170,-73 -364,-162 z"
       inkscape:connector-curvature="0" />
    <path
       id="path17130"
       d="m 1695,1471 -350,-218 3,-354 c 2,-195 7,-380 10,-411 l 7,-58 300,231 c 165,126 305,236 312,242 7,7 23,147 42,362 17,193 33,367 36,388 3,20 2,37 -2,37 -5,0 -165,-99 -358,-219 z"
       inkscape:connector-curvature="0" />
    <path
       id="path17132"
       d="m 510,1655 c 0,-21 121,-770 125,-774 18,-17 612,-441 619,-441 5,0 6,48 2,108 -3,59 -9,240 -12,403 l -7,296 -363,206 c -200,113 -364,204 -364,202 z"
       inkscape:connector-curvature="0" />
  </g>
</svg>
