<?xml version="1.0" standalone="no"?>
<!DOCTYPE svg PUBLIC "-//W3C//DTD SVG 20010904//EN"
 "http://www.w3.org/TR/2001/REC-SVG-20010904/DTD/svg10.dtd">
<svg version="1.0" xmlns="http://www.w3.org/2000/svg"
 width="21" height="21" viewBox="0 0 671.000000 671.000000"
 preserveAspectRatio="xMidYMid meet">
<metadata>
Created by potrace 1.15, written by Peter Selinger 2001-2017
</metadata>
<g transform="translate(0.000000,671.000000) scale(0.100000,-0.100000)"
fill="#000000" stroke="none">
<path d="M3325 6693 c-9 -28 -185 -215 -257 -273 -17 -14 -41 -35 -53 -47 -12
-13 -27 -23 -32 -23 -6 0 -17 -7 -24 -16 -12 -15 -59 -49 -108 -79 -9 -5 -33
-20 -53 -33 -101 -65 -294 -156 -433 -205 -119 -42 -269 -87 -288 -87 -10 0
-75 -12 -145 -27 -121 -25 -141 -26 -432 -27 -293 0 -311 1 -450 28 -80 15
-188 41 -241 57 -53 16 -102 29 -108 29 -6 0 -35 11 -65 25 -30 14 -60 25 -66
25 -6 0 -33 11 -60 25 -65 33 -90 33 -90 0 0 -45 30 -570 34 -590 5 -28 -5
303 -14 460 -4 72 -4 133 -1 138 4 4 35 -6 69 -23 169 -82 372 -136 677 -182
58 -8 175 -13 330 -12 211 1 260 5 399 28 177 30 322 68 466 122 52 20 111 42
131 49 125 47 338 172 485 283 82 62 312 290 333 330 17 33 34 27 77 -25 112
-140 294 -301 459 -408 94 -61 259 -149 335 -179 219 -87 371 -133 540 -161
52 -8 122 -20 155 -26 166 -28 545 -20 758 17 187 32 455 112 568 169 28 15
53 25 55 23 6 -6 -14 -387 -36 -708 -5 -74 -14 -216 -20 -315 -5 -99 -14 -209
-20 -245 -5 -36 -12 -96 -15 -135 -3 -38 -10 -117 -16 -175 -6 -58 -16 -168
-23 -246 -7 -77 -15 -145 -18 -150 -4 -5 -9 -65 -13 -134 -3 -69 -10 -145 -15
-170 -5 -25 -11 -72 -15 -105 -3 -33 -10 -94 -15 -135 -5 -41 -12 -97 -15
-125 -21 -174 -53 -409 -59 -425 -3 -8 -7 -31 -10 -50 -3 -19 -10 -57 -16 -85
-6 -27 -14 -75 -19 -106 -30 -191 -147 -600 -237 -831 -20 -51 -62 -145 -94
-208 -99 -198 -138 -262 -252 -413 -102 -135 -304 -347 -443 -466 -358 -305
-741 -533 -1255 -746 -30 -13 -84 -35 -120 -50 -83 -35 -231 -46 -295 -21
l-40 16 39 -7 c27 -4 41 -2 47 8 13 21 11 29 -5 23 -8 -3 -19 3 -26 15 l-11
21 51 -20 c28 -11 59 -20 70 -20 11 0 66 22 122 49 57 28 159 73 228 101 304
125 546 256 842 454 75 51 239 174 248 186 3 4 25 21 50 39 61 43 255 236 347
343 156 184 277 383 357 593 15 39 33 84 41 100 20 46 97 287 135 420 46 163
61 231 50 219 -4 -5 -12 -25 -18 -44 -6 -19 -23 -75 -37 -125 -39 -133 -114
-354 -136 -402 -10 -24 -19 -48 -19 -53 0 -20 -129 -279 -178 -356 -81 -130
-268 -364 -385 -483 -133 -135 -362 -324 -547 -451 -28 -19 -74 -52 -102 -73
-28 -20 -57 -37 -64 -37 -7 0 -14 -4 -16 -9 -4 -13 -169 -104 -333 -185 -77
-38 -152 -75 -167 -82 -14 -8 -34 -14 -43 -14 -15 0 -56 -18 -187 -81 -10 -5
-18 -4 -20 3 -3 7 -21 3 -53 -12 -67 -30 -98 -27 -186 15 -40 19 -80 35 -88
35 -8 0 -12 2 -9 5 3 3 32 1 66 -3 57 -8 60 -7 51 10 -6 11 -6 18 0 18 5 0 22
5 38 11 25 9 26 11 10 20 -9 6 -15 14 -12 20 4 5 -5 9 -18 9 -21 0 -24 4 -19
22 3 14 1 19 -6 14 -6 -3 -13 -2 -17 4 -3 5 1 10 9 10 9 0 16 5 16 10 0 6 -6
10 -14 10 -14 0 -15 10 -7 63 0 5 6 5 12 1 6 -3 15 0 20 7 8 12 10 12 18 0 7
-11 10 -10 13 5 3 11 -9 36 -29 61 -18 23 -33 46 -33 51 0 11 -32 41 -63 58
-12 7 -125 64 -252 128 -271 136 -304 155 -452 252 -153 101 -260 178 -308
222 -22 21 -60 53 -85 72 -124 95 -329 321 -426 471 -141 218 -221 389 -299
639 -12 41 -32 99 -43 129 -16 40 -18 57 -10 70 8 13 2 32 -25 86 -20 39 -49
85 -66 103 -29 31 -36 45 -32 65 1 5 -3 6 -9 2 -5 -3 -10 3 -10 14 0 11 -4 22
-9 25 -5 3 -12 17 -15 32 -4 14 -16 35 -27 47 -12 13 -15 23 -9 25 7 3 7 8 2
15 -5 7 -13 26 -17 42 -7 27 -8 28 -15 10 -7 -17 -9 -17 -9 -2 -1 22 -18 22
-24 0 -4 -14 -5 -12 -6 5 0 12 -5 22 -11 22 -5 0 -9 -3 -9 -7 1 -5 1 -21 0
-38 -1 -21 -4 -26 -10 -16 -18 28 -25 -15 -28 -179 -4 -227 -3 -251 9 -273 7
-14 7 -17 -1 -13 -13 8 -9 -36 7 -76 6 -14 13 -44 16 -65 3 -21 9 -54 15 -73
5 -19 12 -48 14 -65 3 -16 6 -34 7 -40 1 -5 2 -23 1 -39 -1 -28 -2 -29 -20
-12 -11 10 -23 32 -27 50 -3 17 -10 36 -14 41 -4 6 -12 30 -18 55 -13 53 -86
349 -108 435 -9 33 -19 92 -24 130 -8 74 -30 155 -41 155 -9 0 0 -49 16 -85 8
-17 15 -71 16 -120 2 -109 5 -131 59 -415 23 -119 102 -386 146 -493 55 -134
162 -324 271 -486 34 -51 63 -100 63 -107 0 -32 -31 -9 -89 66 -64 83 -87 104
-52 47 11 -19 18 -37 15 -40 -4 -3 5 -20 20 -37 14 -17 26 -35 26 -40 0 -5 22
-36 50 -69 55 -66 69 -95 19 -40 -188 208 -371 521 -467 799 -78 225 -162 576
-191 795 -8 59 -51 325 -74 460 -10 59 -12 64 -15 33 -2 -20 8 -95 22 -167 15
-72 26 -144 26 -160 0 -16 14 -97 30 -179 17 -83 30 -161 30 -173 0 -23 32
-166 76 -344 37 -147 115 -377 159 -470 13 -27 26 -57 29 -65 3 -8 21 -42 40
-75 19 -33 47 -82 63 -109 15 -27 33 -56 38 -65 40 -63 72 -109 88 -128 11
-12 25 -31 31 -42 14 -24 101 -138 132 -171 22 -24 282 -286 334 -336 14 -13
31 -24 38 -24 6 0 12 -4 12 -8 0 -10 178 -152 190 -152 6 0 10 -4 10 -8 0 -9
117 -92 129 -92 4 0 18 -11 31 -25 13 -14 28 -25 34 -25 6 0 29 -14 50 -30 22
-17 45 -30 51 -30 7 0 20 -9 30 -20 10 -11 27 -22 39 -26 11 -3 35 -16 51 -28
17 -12 44 -28 62 -35 18 -7 38 -19 44 -27 6 -8 18 -14 25 -14 8 0 32 -11 54
-25 22 -14 44 -25 50 -25 6 0 27 -11 48 -23 20 -13 75 -41 122 -61 47 -20 103
-46 126 -57 23 -10 44 -19 48 -19 4 0 32 -11 62 -25 30 -14 60 -25 67 -25 7 0
39 -11 72 -25 86 -35 217 -35 293 0 30 14 59 25 64 25 6 0 38 12 72 26 33 14
88 37 121 51 197 84 504 239 620 314 22 15 75 48 119 75 43 27 93 60 110 74
17 14 38 30 47 35 67 42 171 123 182 141 4 8 14 14 20 14 7 0 20 8 28 18 9 9
33 31 54 47 83 66 365 355 365 374 0 6 7 14 16 19 8 4 23 20 32 34 9 14 37 52
62 84 25 33 50 66 55 75 28 45 77 126 84 139 4 8 13 24 19 35 69 119 207 450
244 585 5 19 18 62 29 95 10 33 23 80 28 105 6 25 19 83 31 130 27 111 56 241
69 310 28 150 60 354 69 430 6 47 17 139 26 205 33 252 66 552 66 592 0 23 6
93 14 155 32 248 85 839 96 1073 6 105 14 249 20 320 5 72 12 191 15 265 3 74
8 154 10 178 4 38 3 42 -18 42 -12 0 -44 -11 -72 -24 -122 -59 -338 -124 -530
-160 -254 -47 -678 -46 -930 4 -117 23 -304 72 -370 97 -22 8 -63 23 -91 33
-28 10 -60 23 -70 28 -10 6 -62 31 -114 57 -115 55 -178 90 -200 110 -9 8 -20
15 -23 15 -11 0 -148 100 -212 154 -76 65 -183 175 -243 248 -49 60 -85 75
-97 41z"/>
<path d="M3223 6478 c-141 -136 -325 -284 -423 -340 -159 -91 -251 -133 -435
-203 -99 -37 -113 -44 -95 -44 18 -1 183 57 255 88 69 30 300 147 356 179 75
44 280 202 335 257 68 70 168 194 161 201 -3 3 -72 -59 -154 -138z"/>
<path d="M3330 6525 c-6 -8 -9 -19 -5 -25 11 -18 -199 -218 -309 -295 -265
-186 -604 -340 -854 -390 -40 -8 -113 -32 -164 -55 -50 -22 -93 -38 -95 -36
-3 2 12 12 32 22 34 16 36 19 20 30 -15 11 -15 13 5 24 12 6 19 14 17 17 -3 3
-41 -11 -85 -31 -44 -20 -85 -36 -91 -36 -6 0 -11 -4 -11 -9 0 -10 -39 -27
-53 -23 -4 1 -17 -7 -29 -18 -12 -11 -28 -18 -35 -16 -7 3 -15 1 -19 -5 -3 -6
-12 -8 -19 -5 -7 2 -15 -4 -18 -15 -3 -10 -13 -22 -24 -26 -106 -40 -371 -296
-433 -419 -19 -38 -35 -74 -35 -81 0 -6 -4 -15 -8 -19 -4 -4 -7 -17 -7 -29 0
-11 -4 -25 -9 -30 -9 -10 -22 -70 -24 -107 -1 -10 -5 -18 -9 -18 -14 0 -9 -43
10 -87 9 -24 20 -43 23 -43 3 0 3 40 1 90 -4 91 6 136 55 230 7 14 13 28 13
31 0 25 104 153 205 254 120 120 120 120 285 203 91 46 169 88 175 93 5 5 16
9 25 8 10 0 11 -2 3 -6 -7 -2 -13 -9 -13 -13 0 -14 151 40 220 79 9 5 40 12
70 16 147 20 674 233 779 316 13 10 28 19 34 19 16 0 -11 -27 -46 -45 -71 -37
-83 -45 -65 -45 9 0 19 4 22 9 8 12 106 63 106 55 0 -4 16 6 35 20 50 39 43
15 -12 -38 -58 -56 -45 -60 17 -6 30 27 46 36 48 26 2 -8 23 7 54 40 28 30 56
54 62 54 5 0 -12 -22 -39 -50 -27 -27 -46 -53 -42 -56 4 -4 13 -1 22 6 12 10
15 9 15 -5 0 -15 2 -15 16 -4 10 8 7 -1 -7 -25 -22 -38 -22 -39 -3 -53 10 -8
20 -18 20 -23 1 -6 2 -16 3 -23 0 -8 10 -24 21 -37 11 -13 20 -32 21 -44 0
-20 1 -20 10 2 5 13 7 28 3 33 -11 19 3 8 32 -23 16 -18 20 -25 8 -15 -11 9
-22 17 -25 17 -4 0 -4 -49 0 -75 1 -5 22 -23 46 -40 25 -16 45 -34 45 -38 0
-5 4 -6 9 -2 6 3 14 -11 18 -32 9 -43 11 -2328 2 -2337 -3 -4 -442 -6 -975 -5
-533 1 -980 1 -993 1 -38 0 -42 -14 -21 -75 11 -31 20 -69 20 -84 0 -16 9 -75
19 -133 11 -58 34 -184 51 -280 18 -96 40 -204 50 -240 10 -36 22 -83 26 -105
13 -76 86 -270 141 -380 139 -277 331 -512 608 -743 155 -130 328 -249 519
-359 127 -73 360 -189 459 -228 37 -15 70 -31 73 -36 3 -5 13 -9 22 -9 16 0
17 88 17 1330 l0 1331 1003 0 c779 0 1004 2 1006 12 6 19 56 455 71 612 8 77
26 255 40 395 14 139 24 261 22 270 -2 8 -7 -16 -11 -55 -4 -38 -14 -121 -22
-183 -8 -62 -14 -133 -14 -157 0 -25 -11 -131 -24 -237 -14 -106 -30 -247 -36
-313 -5 -66 -18 -166 -27 -222 l-16 -103 -114 0 c-72 0 -121 5 -136 13 -12 6
-23 12 -23 12 -1 0 -5 16 -8 35 l-7 35 15 -32 c8 -18 20 -33 26 -33 20 0 22
29 4 47 -17 17 -17 18 0 21 14 3 17 10 12 32 -3 18 -1 30 7 33 8 2 12 28 12
74 0 62 -3 75 -24 97 -27 29 -62 34 -81 11 -21 -25 -28 -17 -35 38 -4 28 -15
91 -26 139 -23 105 -23 108 -5 108 17 0 51 102 42 125 -3 8 -19 18 -36 21 -16
4 -30 12 -30 18 0 6 -7 23 -14 39 -15 27 -14 28 60 103 80 82 92 116 45 122
-17 3 -36 -9 -72 -44 -27 -27 -49 -52 -49 -56 0 -4 23 16 50 43 47 47 78 59
87 34 3 -11 -195 -220 -202 -213 -4 4 48 63 133 150 82 85 36 62 -57 -27 -50
-49 -91 -84 -91 -80 0 4 18 25 40 45 30 28 37 39 26 43 -10 4 -15 31 -18 104
-5 99 -56 493 -81 613 l-13 65 -64 2 c-36 2 -130 10 -210 18 -210 22 -439 38
-455 32 -7 -3 -16 -21 -20 -39 -4 -18 -15 -57 -26 -86 -10 -29 -19 -60 -19
-70 0 -9 -11 -53 -24 -97 -14 -44 -36 -120 -49 -170 -14 -49 -35 -126 -47
-170 -12 -44 -28 -105 -35 -135 -7 -30 -22 -82 -34 -114 -12 -33 -21 -71 -20
-85 1 -39 37 78 113 364 33 125 102 370 127 452 10 34 19 73 19 86 0 13 6 31
13 42 12 15 20 16 53 9 l39 -8 -41 -4 c-39 -3 -42 -6 -47 -35 -2 -18 -12 -58
-21 -90 -19 -68 -19 -70 -6 -62 6 4 10 -8 10 -30 0 -22 6 -38 15 -41 12 -5 15
-24 13 -98 l-2 -91 -5 85 -6 85 -8 -80 c-4 -44 -16 -109 -27 -145 -10 -36 -32
-117 -48 -180 -50 -195 -84 -315 -92 -324 -8 -8 37 168 64 253 21 64 46 178
45 204 l0 22 -9 -22 c-5 -13 -15 -23 -23 -23 -12 0 -25 -35 -71 -202 -9 -32
-19 -58 -22 -58 -4 0 -3 8 1 18 4 9 13 44 20 77 7 33 16 74 20 90 17 77 -16
-13 -54 -145 -22 -80 -53 -185 -67 -235 -50 -170 -73 -250 -96 -334 -12 -45
-24 -78 -26 -72 -2 6 6 44 17 83 66 236 101 371 97 376 -5 4 -88 -273 -99
-328 -3 -14 -17 -65 -31 -115 -28 -99 -34 -146 -9 -75 9 25 18 40 20 33 2 -6
-12 -57 -31 -114 -20 -56 -33 -107 -29 -113 3 -6 0 -6 -8 1 -13 13 -12 16 29
131 2 6 0 12 -5 12 -12 0 -43 -93 -43 -130 0 -33 14 -40 85 -40 55 0 75 11 57
33 -11 12 10 93 45 177 9 19 21 62 28 95 7 33 22 87 34 120 11 33 29 93 41
133 21 72 22 74 48 66 15 -4 52 -10 82 -13 30 -3 54 -9 53 -13 -2 -5 -3 -147
-3 -318 0 -269 -2 -310 -15 -310 -8 0 -15 -4 -15 -10 0 -6 -115 -10 -325 -10
l-325 0 0 1192 c0 1153 1 1191 18 1175 10 -10 24 -17 30 -17 7 0 12 -4 12 -8
0 -5 21 -21 48 -36 26 -15 62 -37 79 -49 63 -42 104 -67 114 -67 6 0 27 -11
47 -25 20 -14 44 -25 53 -25 10 0 19 -3 21 -7 7 -17 199 -100 333 -145 33 -11
69 -24 80 -28 25 -11 64 -22 185 -54 331 -87 812 -126 1106 -90 l52 7 -4 -44
c-2 -24 -11 -113 -19 -197 -8 -84 -14 -180 -14 -215 l2 -62 9 70 c5 39 15 147
23 240 8 94 16 181 17 195 3 28 23 27 -187 10 -71 -6 -184 -8 -250 -4 -189 9
-487 49 -590 78 -66 19 -33 20 47 2 59 -14 110 -19 151 -17 30 2 18 17 -22 30
-21 6 -50 20 -63 31 l-23 20 35 -4 c113 -16 132 -17 126 -8 -3 6 19 13 52 17
31 4 50 10 42 13 -8 3 -19 11 -23 18 -6 10 -31 14 -83 14 -44 0 -89 6 -107 14
-18 8 -39 17 -47 19 -8 3 -3 6 12 6 15 1 30 -3 33 -9 8 -12 176 -13 227 -1 21
5 38 5 40 0 2 -5 16 0 33 11 l29 19 -44 7 c-37 6 -40 8 -22 15 24 9 29 17 10
16 -7 0 -29 1 -47 1 -43 2 -30 19 19 25 29 3 27 4 -13 5 -50 2 -58 22 -9 22
21 0 24 2 12 10 -8 5 -26 10 -40 11 -23 0 -23 1 -5 8 11 5 23 7 28 4 4 -2 7 1
7 6 0 6 -10 11 -22 12 l-23 0 22 11 c18 9 30 49 13 46 -3 -1 -18 2 -33 7 -22
6 -25 9 -14 19 15 12 30 46 20 46 -3 0 -12 -8 -19 -17 -11 -14 -13 -15 -9 -2
3 9 -1 22 -10 29 -12 10 -15 10 -15 -1 -1 -9 -5 -8 -15 5 -8 11 -15 17 -15 13
0 -4 -16 2 -35 13 -19 11 -52 30 -72 41 -41 23 -87 39 -200 69 -70 18 -163 52
-253 92 -25 11 -54 23 -65 28 -35 14 -208 99 -250 123 -41 23 -216 137 -225
147 -3 3 -21 17 -41 32 -20 15 -88 79 -152 143 -63 63 -119 115 -125 115 -5 0
-15 -7 -22 -15z m1210 -1441 c14 -2 59 -7 100 -10 105 -8 120 -12 130 -37 9
-22 9 -22 11 3 1 24 2 23 9 -5 4 -16 8 -39 8 -50 1 -18 0 -18 -8 2 -5 12 -27
34 -49 49 l-40 26 -56 -17 c-47 -15 -64 -16 -112 -6 -71 14 -285 15 -263 1 8
-5 11 -10 5 -10 -5 0 -17 5 -25 10 -10 6 -11 10 -2 10 20 0 14 26 -10 38 -18
9 12 10 127 6 83 -3 161 -8 175 -10z m-360 -79 c-17 -20 7 -21 29 -1 14 12 38
12 176 1 88 -8 187 -14 221 -15 78 0 91 -14 96 -98 3 -59 2 -63 -17 -58 -11 3
-28 6 -37 6 -9 0 -30 11 -46 25 -35 29 -77 33 -91 8 -8 -13 -10 -14 -11 -4 -1
45 -65 65 -110 34 -31 -22 -79 -75 -80 -89 0 -5 -11 -34 -25 -62 -14 -29 -25
-64 -24 -79 0 -20 6 -10 23 37 29 85 40 104 88 156 26 28 49 44 64 44 41 0 75
-81 49 -116 -12 -17 -13 -15 -9 21 4 25 1 47 -8 58 -12 16 -13 13 -10 -24 3
-29 1 -40 -7 -35 -15 9 -14 -7 1 -22 9 -9 9 -12 0 -12 -7 0 -12 5 -12 10 0 50
-91 -134 -106 -215 -7 -37 -8 -38 -15 -15 -4 14 -7 19 -8 11 -1 -11 -5 -10
-15 5 -14 18 -15 18 -28 1 -12 -16 -13 -13 -11 25 2 40 2 41 -7 13 -29 -87
-20 -226 15 -255 17 -14 80 -6 95 13 5 7 21 26 34 42 l25 30 1 -32 c0 -39 1
-39 50 -12 35 20 38 25 49 91 9 54 17 75 36 90 13 10 33 42 45 71 23 57 23 59
-6 -116 -9 -59 -14 -111 -10 -114 4 -4 19 -1 34 8 25 14 28 23 48 157 12 78
26 148 32 155 5 6 12 21 14 32 3 11 8 -11 12 -50 4 -38 12 -86 17 -105 5 -19
9 -53 9 -75 0 -22 9 -68 20 -101 24 -80 37 -184 21 -184 -6 0 -11 -9 -11 -20
0 -13 -7 -20 -20 -20 -11 0 -20 4 -20 9 0 45 -105 57 -146 16 -27 -28 -74 -34
-74 -10 0 37 -110 46 -145 11 -12 -12 -35 -16 -88 -16 l-72 0 0 187 c0 333
-10 469 -40 546 -15 38 -13 57 7 57 7 0 6 -6 -2 -15z m-19 -193 c5 -54 8 -211
7 -350 -2 -188 1 -255 10 -264 8 -8 41 -13 81 -13 63 0 92 -7 79 -20 -8 -8
-69 -8 -140 0 l-68 8 0 266 c0 273 -6 453 -16 506 l-5 30 22 -33 c17 -26 24
-57 30 -130z m652 -82 c9 -58 20 -159 27 -225 6 -66 15 -145 20 -175 9 -59 7
-66 -9 -55 -6 3 -11 24 -11 46 0 22 -11 72 -25 111 -14 39 -25 93 -25 120 0
44 -17 149 -41 255 -14 66 -11 124 9 146 16 18 17 17 29 -49 6 -38 18 -116 26
-174z m-243 91 c0 -9 5 -22 11 -28 6 -6 9 -17 6 -25 -4 -9 -8 -5 -12 10 -10
32 -25 27 -26 -8 -2 -33 -2 -33 -12 -74 -6 -21 -4 -31 10 -41 13 -10 20 -10
25 -2 6 9 8 9 8 0 0 -7 -13 -27 -28 -45 -31 -36 -43 -59 -49 -98 -7 -39 -13
-37 -13 6 0 27 -3 35 -9 25 -9 -14 -9 -19 4 -76 4 -18 3 -25 -2 -18 -6 9 -12
7 -21 -7 -10 -17 -9 -18 6 -13 14 4 13 2 -3 -10 -29 -23 -35 -21 -29 11 32
173 53 274 59 280 4 4 5 -13 1 -38 l-6 -45 20 43 c20 45 33 100 39 175 2 16
21 -4 21 -22z m-96 -115 c-10 -99 -22 -139 -42 -131 -43 18 -48 16 -61 -22 -8
-21 -16 -32 -19 -24 -7 22 17 121 44 181 22 48 29 55 54 56 l29 1 -5 -61z
m-412 -342 c-1 -152 -3 -278 -5 -281 -15 -14 -80 -14 -112 1 -40 19 -42 31
-20 102 24 80 66 226 78 269 5 22 19 75 30 118 11 43 22 76 24 73 3 -3 5 -130
5 -282z m362 200 c22 -8 20 -27 -8 -82 -32 -62 -90 -122 -116 -122 -30 0 -50
55 -49 132 l2 63 7 -70 c5 -61 22 -115 35 -115 2 0 -1 14 -6 32 -9 34 7 102
23 92 4 -3 8 5 8 18 l1 23 13 -24 13 -23 21 27 c12 15 22 34 22 41 0 15 10 17
34 8z m535 -463 c10 -7 11 -13 2 -29 -13 -24 -83 -42 -89 -23 -4 13 -89 15
-94 2 -1 -5 -93 -12 -203 -15 -110 -4 -227 -10 -260 -14 l-61 -8 2 37 c1 21 5
42 9 48 8 13 673 15 694 2z m-799 -248 c0 -149 -17 -443 -25 -452 -15 -14 -16
36 -10 318 7 261 10 308 21 296 11 -10 14 -50 14 -162z m829 -78 c12 -55 23
-120 26 -145 l4 -45 -13 50 c-14 50 -14 50 -15 13 -1 -20 8 -74 19 -120 23
-98 24 -109 8 -106 -13 3 -30 73 -68 278 -12 63 -30 142 -41 174 -23 70 -24
106 -5 106 16 0 23 -22 36 -100 12 -74 41 -192 47 -187 5 6 -25 165 -47 249
-10 37 -15 70 -12 73 7 7 23 -58 61 -240z m-125 -67 c33 -161 61 -299 64 -306
3 -8 -1 -10 -12 -6 -10 4 -18 0 -22 -10 -5 -14 -43 -16 -345 -16 -219 0 -339
4 -339 10 0 6 -7 10 -16 10 -15 0 -16 13 -10 128 3 70 9 202 13 293 l6 165 31
1 c17 0 69 4 115 8 l83 8 -7 -24 c-3 -13 -13 -44 -21 -69 -41 -132 -84 -279
-90 -307 -3 -17 -12 -34 -19 -37 -8 -3 -11 -13 -8 -25 4 -16 1 -21 -16 -21
-42 0 -22 -28 27 -38 64 -12 152 -4 152 14 0 8 -7 14 -16 14 -14 0 -16 8 -10
48 3 27 17 77 31 112 14 35 25 68 25 74 0 5 11 46 24 90 13 45 30 102 36 129
l13 47 126 0 127 0 58 -292z m-353 265 c0 -15 2 -15 9 2 7 16 9 17 9 3 2 -30
-96 -354 -124 -413 -14 -29 -15 -29 -15 -5 0 21 -3 19 -21 -17 -21 -43 -39
-56 -39 -29 0 8 5 18 10 21 6 3 10 16 9 28 0 15 -6 8 -18 -23 -11 -25 -17 -48
-14 -52 2 -5 -5 -8 -16 -8 -11 0 -23 5 -26 10 -3 6 0 10 8 10 17 0 42 56 61
135 17 74 61 220 90 298 18 50 24 57 48 57 20 0 28 -5 29 -17z m-1161 -1943
l0 -1310 -27 6 c-16 4 -32 10 -38 14 -5 4 -41 20 -78 35 -38 16 -121 55 -185
88 -64 33 -138 70 -164 83 -25 13 -49 28 -53 34 -3 5 -13 10 -21 10 -8 0 -20
5 -27 11 -7 5 -50 35 -97 65 -47 30 -92 61 -101 68 -9 8 -26 17 -38 21 -25 8
-25 -11 0 300 11 138 23 345 26 460 6 193 7 206 18 160 7 -27 24 -95 39 -150
14 -55 26 -111 26 -125 0 -14 4 -30 9 -35 10 -11 43 -119 86 -285 15 -58 37
-139 50 -180 12 -41 28 -102 35 -135 7 -33 19 -72 26 -88 14 -26 47 -37 59
-18 3 6 -13 99 -36 208 -23 109 -45 221 -49 248 -5 28 -17 89 -29 136 -13 54
-18 100 -14 124 4 27 2 41 -8 49 -18 13 -35 71 -44 146 -4 30 -18 99 -32 153
-20 82 -23 111 -18 173 l7 74 54 0 54 0 0 85 0 85 48 0 c36 0 57 -7 82 -25 19
-14 41 -25 49 -25 11 1 7 7 -11 21 -65 48 -73 59 -25 33 l47 -26 -1 119 c0 65
-3 111 -6 103 -7 -18 -23 -30 -41 -30 -10 0 -10 5 -1 23 10 19 10 20 -2 11 -8
-6 -27 -14 -44 -18 -23 -6 -15 2 33 33 34 23 66 41 71 41 4 0 7 -70 5 -155 -2
-95 1 -155 7 -155 14 0 7 322 -7 327 -6 2 -30 -10 -55 -27 -35 -23 -55 -30
-96 -30 -46 0 -53 3 -53 20 0 11 -5 20 -10 20 -6 0 2 19 16 41 23 36 26 53 26
124 1 76 -1 85 -34 136 -41 64 -114 108 -193 116 -95 10 -222 -73 -246 -159
-11 -43 -21 -47 -42 -17 -24 34 -101 69 -152 69 -49 0 -127 -33 -157 -67 -35
-38 -61 -114 -54 -159 7 -55 38 -112 77 -145 l31 -25 -36 4 c-45 5 -46 -8 -11
-78 26 -52 34 -57 66 -40 18 10 19 6 19 -110 l0 -120 30 0 c18 0 30 -5 30 -13
0 -16 -126 -42 -153 -31 -9 3 -46 1 -82 -6 -58 -11 -65 -15 -65 -35 0 -13 4
-34 9 -47 9 -24 10 -24 73 -14 34 6 75 19 89 29 15 10 55 22 90 29 76 13 89
21 89 59 0 26 3 29 35 29 35 0 35 -1 35 -43 0 -24 4 -47 10 -53 6 -6 1 -46
-14 -114 -14 -58 -34 -154 -46 -215 -12 -60 -26 -115 -31 -121 -5 -6 -8 -26
-8 -45 1 -34 -45 -276 -54 -285 -2 -3 -43 37 -89 88 -120 131 -148 164 -148
177 0 6 -4 11 -8 11 -4 0 -21 20 -37 46 -16 25 -37 54 -47 66 -10 12 -18 26
-18 31 0 6 -10 24 -23 41 -70 94 -185 387 -228 581 -6 28 -22 95 -35 150 -13
56 -24 112 -24 126 0 14 -9 66 -19 116 -11 49 -24 130 -30 179 -13 100 -27
185 -36 214 -6 20 6 20 984 20 l991 0 0 -1310z m-712 1030 c45 -32 49 -39 31
-57 -13 -13 -62 9 -94 40 -19 20 -45 22 -45 5 0 -22 14 -36 42 -43 29 -7 43
-41 26 -62 -19 -23 -52 -11 -68 24 -13 29 -18 32 -47 27 -18 -4 -33 -2 -33 3
0 17 33 55 64 74 44 27 76 24 124 -11z m-437 -89 c23 -23 39 -48 39 -62 0 -24
-65 -99 -86 -99 -13 0 -24 22 -24 49 0 24 -29 81 -41 81 -12 0 -11 -12 1 -45
8 -20 7 -27 -6 -32 -20 -7 -34 13 -34 49 0 34 59 98 90 98 13 0 39 -17 61 -39z
m187 -247 c18 -12 20 -19 12 -35 -6 -10 -21 -19 -35 -19 -27 0 -52 -28 -80
-89 -25 -56 -10 -72 39 -46 20 11 38 16 42 12 19 -19 -73 -101 -101 -91 -7 3
-20 22 -30 44 -20 44 -15 81 20 150 40 80 87 106 133 74z m134 -1 c40 -45 28
-95 -35 -150 -18 -16 -42 -47 -53 -69 -21 -43 -61 -56 -57 -19 5 51 46 212 59
233 18 27 64 30 86 5z m160 -26 c-31 -35 -41 -60 -53 -138 -12 -80 -22 -99
-50 -99 -26 0 -29 11 -15 60 35 118 36 133 16 162 -11 15 -20 32 -20 37 0 12
133 19 139 8 2 -5 -6 -18 -17 -30z m-187 -519 c-3 -51 -8 -150 -11 -220 -4
-94 -9 -128 -19 -128 -13 0 -20 56 -30 245 -3 61 -8 129 -11 153 l-5 42 40 0
40 0 -4 -92z m121 -165 c19 -73 44 -149 56 -170 17 -29 18 -35 5 -24 -25 20
-23 -4 4 -54 12 -22 25 -60 29 -85 4 -25 24 -108 44 -185 21 -77 48 -182 62
-232 25 -95 31 -138 13 -93 -10 25 -136 491 -142 527 -2 10 -11 36 -21 58 -11
26 -15 52 -11 73 3 17 2 32 -3 32 -12 0 -93 288 -91 324 1 21 20 -40 55 -171z
m-226 -288 c6 -143 15 -311 21 -374 6 -62 9 -115 7 -117 -4 -4 -87 61 -129
101 -14 14 -28 25 -32 25 -3 0 -19 14 -36 30 l-30 31 25 92 c52 189 66 232 79
247 8 8 14 33 13 55 0 22 9 72 20 110 11 39 24 84 28 100 l7 30 8 -35 c4 -19
13 -152 19 -295z"/>
<path d="M2670 5955 c-36 -19 -71 -34 -77 -34 -7 -1 -13 -5 -13 -11 0 -5 -8
-10 -17 -10 -10 0 -25 -5 -33 -10 -18 -12 46 -2 71 11 11 5 16 3 16 -6 0 -8
-3 -14 -6 -13 -28 3 -42 -4 -37 -17 5 -15 -9 -22 -17 -7 -2 4 -2 2 -1 -5 2 -7
-13 -22 -32 -33 -37 -24 -44 -32 -16 -24 11 4 9 0 -7 -14 -13 -10 -21 -24 -17
-31 5 -7 1 -9 -9 -5 -10 4 -14 2 -10 -7 9 -26 -37 -67 -57 -52 -27 21 -126 43
-180 41 -32 -1 -58 -5 -58 -8 1 -15 21 -35 37 -36 21 -2 93 -31 93 -38 0 -3
-35 -5 -77 -5 -43 0 -107 -3 -143 -8 l-65 -8 70 -6 c78 -6 189 -28 182 -35 -3
-3 -35 0 -72 7 -106 18 -344 7 -425 -21 -283 -95 -468 -266 -550 -506 -10 -28
-15 -56 -11 -61 10 -16 104 -54 111 -46 4 5 56 75 116 157 60 81 125 161 144
176 55 43 148 87 235 111 207 57 527 1 627 -109 l23 -25 -35 25 c-63 46 -154
85 -225 97 -91 15 -304 16 -375 2 -73 -15 -163 -59 -228 -110 -60 -48 -73 -69
-48 -83 14 -8 9 -17 -40 -68 -31 -32 -72 -82 -91 -112 -19 -29 -42 -61 -50
-70 -9 -10 -12 -18 -7 -18 10 0 62 60 108 125 37 52 157 151 227 187 104 53
167 70 287 75 62 3 117 2 122 -3 6 -6 -20 -8 -63 -6 -40 2 -90 -1 -112 -6
l-40 -10 37 -1 c35 -1 67 -21 34 -21 -27 0 -18 -37 12 -48 23 -10 95 -16 140
-13 24 2 12 31 -15 37 -48 11 -109 33 -93 34 13 0 13 1 0 10 -11 7 -6 10 22
10 20 0 40 -4 43 -10 3 -5 23 -10 43 -10 21 0 48 -7 61 -17 21 -14 35 -18 89
-22 6 -1 12 -5 12 -11 0 -5 -25 -8 -55 -7 l-55 2 25 -25 c19 -19 27 -22 37
-12 7 7 20 12 30 12 10 0 21 7 24 15 4 8 10 12 15 9 5 -3 18 -7 30 -9 30 -6 8
19 -32 35 -16 7 -28 15 -25 17 2 2 22 -5 44 -16 74 -37 145 -61 160 -52 16 9
55 -17 46 -31 -3 -4 2 -8 11 -8 14 0 14 2 -1 25 -23 35 -3 31 21 -4 62 -90
167 -231 171 -231 2 0 12 4 22 9 41 21 92 40 92 35 0 -3 -25 -16 -55 -29 -32
-15 -55 -31 -55 -40 0 -8 7 -43 16 -78 9 -34 20 -81 26 -104 9 -39 13 -42 47
-45 36 -4 30 -11 -20 -22 -23 -5 -25 -10 -25 -53 0 -89 -15 -218 -34 -278 -18
-61 -44 -128 -119 -310 -22 -55 -41 -104 -41 -109 0 -12 -49 -116 -55 -116 -3
0 4 21 14 48 10 26 31 83 46 127 15 44 40 109 55 145 16 36 41 96 55 133 25
63 26 70 11 86 -19 21 -20 50 -5 102 22 73 -37 168 -109 174 -15 1 -41 9 -59
18 -39 21 -50 21 -85 3 -32 -17 -36 -8 -18 40 6 14 15 54 20 88 21 129 40 220
49 229 5 5 19 7 32 5 23 -3 24 -7 25 -78 1 -71 3 -79 45 -146 46 -74 127 -173
113 -139 -5 11 -9 45 -10 76 -1 48 -9 71 -68 179 -65 118 -67 127 -62 175 8
66 0 78 -45 65 -18 -6 -83 -10 -144 -8 -108 2 -110 2 -113 -21 -2 -13 -1 -39
3 -57 5 -29 10 -34 33 -34 45 0 54 -18 33 -59 -11 -20 -24 -70 -30 -111 -6
-41 -15 -95 -20 -120 -8 -45 -8 -45 -10 -9 0 20 3 49 8 65 5 16 12 46 14 66
l6 38 -25 -27 c-13 -14 -24 -32 -24 -39 0 -7 -17 -34 -37 -61 -37 -48 -45 -60
-85 -132 -11 -20 -26 -43 -32 -51 -26 -31 -28 -44 -4 -22 19 17 27 20 30 10 3
-8 19 6 39 35 38 55 53 87 39 87 -5 0 -7 7 -3 15 3 9 8 14 11 11 2 -3 13 -1
22 4 16 9 18 5 18 -36 -1 -24 -5 -47 -10 -50 -4 -3 -8 -13 -8 -22 1 -12 5 -10
15 8 10 18 14 20 15 8 0 -9 -4 -19 -8 -22 -5 -3 -9 -19 -10 -36 -1 -31 -1 -32
41 -25 23 4 50 12 60 17 24 12 31 5 18 -19 -27 -51 -99 -284 -136 -448 -8 -33
-25 -108 -39 -167 -28 -122 -24 -163 21 -198 48 -38 72 -25 119 65 44 83 127
310 144 393 15 72 39 149 39 129 3 -64 -100 -391 -163 -520 -45 -92 -53 -117
-38 -117 4 -1 27 -5 52 -10 56 -11 76 1 120 69 22 34 42 52 60 56 16 3 35 14
43 23 18 21 108 200 149 297 47 110 108 357 108 436 0 73 8 108 20 89 5 -8 9
-4 13 10 4 16 2 20 -9 16 -8 -3 -14 -1 -14 4 0 6 4 10 9 10 11 0 9 29 -6 85
-18 64 -23 106 -14 101 5 -3 12 -21 15 -40 11 -56 48 -69 58 -21 2 11 10 19
16 18 7 -2 12 2 12 8 0 5 5 7 11 4 6 -4 8 -12 6 -19 -2 -6 9 -21 24 -34 16
-13 29 -19 29 -14 0 5 -3 12 -6 15 -6 6 -54 117 -54 124 0 2 6 2 13 0 7 -1 11
6 9 18 -2 16 -1 17 7 5 23 -34 22 6 -2 78 -21 61 -26 93 -24 151 2 45 -2 82
-9 97 -7 14 -9 22 -4 19 6 -4 17 -20 26 -37 24 -45 30 -25 6 22 -13 26 -16 40
-8 37 9 -4 11 2 8 20 -2 13 1 34 7 46 9 18 8 33 -7 78 -10 31 -18 69 -17 83 0
17 -5 26 -15 27 -11 0 -11 2 -2 6 10 4 9 9 -4 24 -9 10 -14 19 -10 19 4 0 -2
13 -13 29 -12 16 -21 34 -21 40 0 6 -4 11 -10 11 -5 0 -10 5 -10 11 0 14 -26
39 -34 34 -3 -3 -4 -2 -1 1 2 4 -6 21 -18 38 -12 17 -21 37 -19 43 2 7 -3 10
-11 8 -18 -7 -67 36 -67 58 0 10 -3 16 -7 14 -5 -3 -17 -1 -28 4 -17 6 -17 8
-2 8 20 1 22 12 5 31 -11 12 -10 12 4 1 14 -10 22 -10 45 3 l28 15 -31 -5
c-18 -4 -34 -1 -38 5 -4 6 0 11 9 11 9 0 23 7 31 15 25 25 -4 17 -76 -20z"/>
<path d="M1841 5260 c-13 -11 -31 -20 -40 -20 -9 0 -23 -6 -30 -12 -11 -11
-12 -10 -6 0 4 7 17 17 29 22 l21 9 -22 0 c-12 1 -39 -14 -60 -31 -20 -18 -33
-26 -28 -18 12 21 -100 -77 -163 -142 -53 -55 -122 -146 -122 -162 0 -5 -6
-17 -14 -25 -7 -9 -24 -47 -36 -86 -13 -38 -29 -82 -36 -97 -28 -54 20 -41 88
24 51 48 88 114 88 154 0 43 59 141 133 220 50 54 89 84 149 116 45 24 83 49
86 56 6 18 -9 14 -37 -8z"/>
<path d="M2067 5145 c-59 -16 -77 -31 -77 -61 0 -34 -11 -29 -42 16 -33 47
-65 58 -127 41 -55 -14 -103 -51 -151 -114 -38 -51 -87 -161 -97 -220 -3 -20
-9 -37 -14 -37 -4 0 -1 -13 7 -28 7 -16 17 -42 20 -59 6 -28 4 -30 -24 -25
-16 2 -43 -3 -59 -12 -29 -14 -30 -18 -26 -63 6 -64 79 -402 103 -478 50 -160
104 -292 147 -361 26 -40 27 -41 60 -31 19 6 44 24 55 40 18 25 20 38 15 94
-7 68 -36 202 -69 318 -11 39 -26 95 -33 125 -14 60 -68 214 -85 243 -10 16
-8 17 23 12 43 -8 79 9 133 67 50 53 74 88 74 108 0 8 -19 24 -42 34 l-41 19
-34 -42 c-65 -77 -88 -39 -48 79 28 81 83 180 100 180 6 0 16 -5 23 -12 13
-13 87 14 111 41 15 18 16 22 -14 -89 -8 -30 -15 -66 -15 -80 0 -15 -3 -30 -7
-34 -4 -3 -7 -26 -8 -49 -1 -24 -7 -59 -13 -78 -32 -99 -43 -142 -38 -147 8
-8 117 16 141 32 16 10 24 32 33 90 13 76 20 88 57 93 45 8 118 77 150 145 19
42 21 54 13 114 -10 72 -30 108 -74 130 -32 17 -64 16 -127 -1z"/>
<path d="M1201 4913 c-7 -32 -15 -92 -18 -134 l-4 -77 36 -4 c20 -2 38 -1 40
2 2 3 13 52 24 107 12 56 24 108 27 116 3 10 -8 20 -36 31 -22 9 -44 16 -48
16 -4 0 -14 -26 -21 -57z"/>
<path d="M1177 4676 c-12 -31 29 -292 62 -400 79 -254 228 -537 267 -505 10 8
9 17 -2 46 -8 19 -13 38 -10 41 3 2 8 -4 12 -14 34 -99 83 -174 114 -174 9 0
21 -5 28 -12 24 -24 12 19 -32 113 -60 127 -99 243 -146 428 -45 179 -82 396
-65 379 3 -3 12 -45 20 -94 26 -160 98 -442 150 -584 30 -84 104 -230 115
-230 6 0 19 4 29 9 16 9 12 20 -34 114 -84 170 -174 479 -212 725 -9 61 -22
112 -28 112 -18 0 -69 -38 -103 -77 -19 -21 -31 -31 -27 -23 3 8 -1 6 -9 -4
-23 -28 -17 -129 7 -127 28 3 37 -1 37 -20 0 -11 -4 -18 -9 -14 -5 3 -12 -4
-16 -15 -7 -21 5 -66 35 -135 50 -114 132 -337 126 -343 -2 -2 -12 18 -21 45
-10 26 -32 82 -50 123 -18 41 -43 102 -58 135 -50 118 -75 218 -88 355 -7 74
-15 138 -18 141 -3 4 -20 10 -37 13 -23 5 -33 3 -37 -8z"/>
<path d="M980 4633 c0 -15 72 -149 127 -235 47 -76 80 -144 100 -210 6 -19
-12 -24 -34 -10 -7 5 -24 37 -39 73 -14 35 -44 93 -66 129 -123 195 -170 242
-71 70 40 -70 41 -73 12 -40 -17 19 -29 29 -25 23 9 -16 4 -16 -28 0 -14 8
-23 17 -19 21 4 4 0 4 -10 0 -9 -3 -17 -11 -17 -16 0 -6 -8 -7 -17 -4 -10 4
-14 4 -11 0 4 -4 3 -15 -3 -26 -18 -33 -8 -329 12 -354 5 -6 13 -44 19 -85 6
-40 15 -78 20 -83 6 -6 10 -27 10 -47 0 -21 5 -41 10 -44 6 -4 17 -22 25 -42
8 -20 31 -51 51 -69 31 -30 42 -34 90 -34 42 0 54 -3 54 -16 0 -8 3 -13 8 -10
4 2 26 1 50 -4 44 -8 50 -3 30 20 -9 10 -6 9 7 -1 24 -19 45 -31 45 -27 0 2
-11 19 -25 38 -30 41 -33 60 -5 35 30 -28 24 -12 -26 66 -25 40 -48 79 -51 88
-3 9 9 -6 27 -34 63 -97 259 -322 246 -283 -6 21 19 20 55 -3 13 -8 46 -23 72
-33 45 -17 49 -17 66 -2 13 12 27 15 45 10 16 -4 26 -2 26 5 0 6 -5 11 -11 11
-10 0 -49 16 -105 42 -12 5 -32 20 -45 31 -13 12 -42 35 -64 51 -22 16 -59 47
-82 69 -24 23 -51 42 -60 43 -33 5 -107 100 -186 238 -43 75 -75 141 -72 147
4 6 -5 34 -19 62 -15 29 -21 44 -14 33 67 -97 123 -186 167 -263 31 -54 60
-93 72 -96 16 -4 19 -2 14 16 -5 18 -2 17 18 -8 58 -71 66 -79 67 -69 0 17
-170 365 -196 399 -12 17 -32 55 -43 85 -11 30 -41 91 -66 135 -26 44 -62 110
-82 148 -31 58 -53 83 -53 60z"/>
<path d="M1865 4310 c-6 -10 -3 -27 25 -130 11 -41 22 -91 25 -110 18 -120 86
-287 157 -385 43 -60 149 -165 167 -166 11 0 12 -2 3 -6 -7 -3 -18 0 -25 5 -8
7 -18 7 -27 2 -11 -7 -9 -11 11 -19 36 -13 249 -8 274 6 11 7 16 13 12 13 -11
0 87 94 224 216 125 111 212 220 184 230 -9 4 -19 4 -22 0 -4 -3 -1 -6 6 -6 7
0 10 -4 6 -10 -3 -5 -11 -7 -18 -4 -7 2 -30 -14 -52 -36 -37 -38 -32 -58 7
-23 10 9 18 11 18 5 0 -16 -191 -182 -217 -189 -13 -3 -23 -11 -23 -18 0 -17
-36 -53 -95 -96 -38 -28 -64 -38 -108 -43 -54 -7 -59 -6 -94 23 -21 17 -42 31
-47 31 -5 0 -28 16 -52 35 -23 19 -47 35 -52 35 -26 0 -152 226 -178 320 -4
14 -12 28 -18 32 -7 5 -7 8 3 8 11 0 11 3 0 16 -10 12 -10 17 -1 23 9 5 5 24
-14 72 -14 35 -27 82 -30 103 -8 62 -32 94 -49 66z"/>
<path d="M4370 3313 c25 -9 47 -17 49 -20 10 -8 -17 -21 -54 -26 -21 -3 -44
-12 -51 -21 -7 -10 -27 -16 -54 -16 -64 0 -45 -7 40 -15 71 -7 106 -15 64 -15
-18 0 -48 -45 -35 -53 3 -2 1 -2 -6 -1 -6 2 -23 -8 -38 -22 -14 -13 -30 -24
-36 -24 -5 0 -9 -5 -9 -11 0 -5 5 -7 12 -3 7 5 8 3 4 -5 -5 -7 -15 -10 -23 -7
-8 3 -29 -4 -46 -17 -72 -52 -77 -52 -151 -13 -38 20 -80 46 -95 58 l-26 21
30 -7 c28 -7 29 -7 12 12 -9 10 -17 23 -17 29 0 6 -6 14 -12 16 -7 3 -1 6 15
6 50 2 28 21 -25 22 -73 2 -36 8 112 18 100 6 110 8 53 10 -60 1 -71 4 -67 16
4 10 0 15 -12 16 -62 4 -272 4 -288 0 -20 -4 -20 -4 0 -12 18 -7 17 -8 -3 -10
-37 -3 -41 -4 -49 -11 -4 -5 13 -8 37 -9 24 0 64 -4 89 -8 l45 -8 -37 -2 c-37
-1 -55 -20 -20 -22 10 0 12 -3 5 -6 -19 -7 -16 -23 4 -23 14 0 12 -4 -7 -22
-28 -27 -41 -34 -137 -82 -65 -33 -138 -86 -118 -86 4 0 33 15 64 34 31 19 86
48 124 65 37 17 67 35 67 40 0 5 8 12 18 16 14 5 15 4 5 -6 -20 -20 -15 -29
16 -29 17 0 33 -4 36 -10 3 -5 0 -7 -9 -4 -8 3 -22 1 -32 -4 -13 -7 -10 -11
17 -17 34 -9 33 -9 -16 -13 l-50 -4 40 -14 c22 -8 53 -15 68 -16 25 -1 27 -3
13 -16 -8 -9 -35 -19 -58 -23 l-43 -6 35 -3 c19 -1 -12 -8 -70 -14 -203 -24
-319 -77 -356 -164 -32 -77 -2 -193 66 -256 38 -35 58 -46 45 -26 -3 5 7 15
22 22 15 7 42 22 58 34 17 12 44 28 60 37 l30 15 -3 -209 c-2 -115 -7 -220
-12 -232 -9 -22 -9 -22 -10 3 l-2 25 -7 -25 c-6 -21 -11 -12 -35 60 -15 47
-36 98 -45 113 l-18 28 1 -35 c1 -19 5 -32 10 -29 4 3 5 -8 2 -25 -6 -23 3
-50 37 -123 51 -108 71 -164 64 -182 -3 -6 -6 -3 -7 8 0 11 -8 31 -16 45 l-15
25 6 -30 c6 -29 6 -29 -9 -10 -8 11 -16 26 -16 33 0 6 -5 12 -10 12 -6 0 18
-55 52 -122 71 -140 77 -152 53 -120 -10 13 -53 94 -96 179 -44 86 -79 148
-79 139 0 -18 84 -196 145 -306 33 -60 113 -156 87 -104 -6 11 -18 26 -26 34
-9 7 -16 17 -16 23 0 5 10 -2 23 -16 12 -15 39 -35 60 -46 l37 -19 -55 60
c-30 32 -55 64 -55 70 0 6 13 -7 29 -30 55 -75 184 -146 264 -144 26 0 91 15
144 32 123 40 269 77 330 84 48 5 48 5 11 -5 -21 -6 -38 -15 -38 -20 0 -5 -6
-9 -12 -9 -7 -1 -26 -7 -43 -14 l-30 -13 43 -12 c55 -15 112 0 112 30 0 16 7
19 49 19 30 0 53 -5 61 -14 6 -8 18 -12 26 -9 8 3 14 -1 14 -11 0 -13 5 -14
26 -6 14 6 37 10 52 9 22 -1 19 -3 -13 -10 -22 -5 -105 -32 -185 -59 -80 -28
-157 -50 -170 -50 -14 0 -70 -16 -125 -35 -55 -19 -109 -35 -120 -36 -11 0
-38 -8 -60 -18 l-40 -18 35 -6 c118 -21 139 -21 178 6 50 34 63 36 95 20 28
-14 26 -15 111 34 11 7 35 13 51 13 17 0 57 6 90 14 33 7 83 14 111 14 54 1
176 44 242 86 21 13 72 41 113 61 40 21 99 57 129 80 79 61 180 185 150 185
-5 0 -10 -5 -10 -10 0 -10 -78 -90 -87 -90 -3 0 14 21 36 46 44 50 50 74 25
94 -8 8 -20 23 -26 34 -10 20 -9 19 11 -1 37 -39 39 -22 2 20 -12 15 -13 20
-2 26 9 6 6 10 -11 16 -18 5 -19 8 -7 12 14 3 15 8 5 28 -6 14 -17 25 -23 25
-7 0 -13 5 -13 10 0 7 6 7 19 1 10 -6 21 -7 25 -4 3 3 6 -1 6 -11 0 -9 4 -15
8 -12 13 8 6 51 -8 48 -7 -2 -10 3 -7 12 4 9 2 18 -4 22 -6 3 -8 12 -5 20 4 9
-2 14 -15 14 -14 0 -19 5 -16 14 3 8 -5 26 -19 41 -13 14 -24 33 -24 41 0 7
-6 13 -12 11 -7 -1 -12 4 -11 11 2 6 -3 12 -11 12 -8 0 -18 5 -22 12 -5 7 -2
8 7 3 8 -5 11 -5 7 0 -4 4 -18 13 -30 19 -12 6 -25 22 -29 36 -4 14 -7 19 -8
13 -1 -18 -21 -16 -21 2 0 8 -6 15 -13 15 -8 0 -27 16 -43 35 -16 19 -37 35
-46 35 -9 0 -20 5 -24 12 -4 7 -3 8 4 4 7 -4 12 -2 12 3 0 6 -5 11 -11 11 -6
0 -8 7 -5 16 3 8 2 12 -4 9 -6 -3 -10 1 -10 10 0 9 -4 14 -9 11 -5 -3 -12 10
-15 29 -4 19 -11 35 -17 35 -6 0 -8 4 -4 9 3 5 1 12 -4 16 -6 3 -9 21 -7 40 2
24 -2 35 -11 35 -8 0 -12 4 -9 9 3 4 1 22 -3 39 -6 20 -6 32 1 34 6 2 13 17
15 33 2 17 6 39 7 50 2 11 4 25 5 30 1 6 17 28 36 50 19 22 33 45 31 52 -3 6
8 16 25 22 16 5 29 15 29 20 0 6 14 11 30 11 49 0 34 19 -17 22 -27 2 17 7 97
12 80 6 134 11 120 13 -60 8 -75 14 -59 24 15 10 21 9 -174 14 -65 2 -120 5
-122 7 -10 10 16 31 39 31 14 0 24 2 22 6 -3 4 64 8 147 10 304 6 149 11 -304
10 -433 -1 -461 -2 -419 -16z m27 -170 c-4 -3 -2 -12 4 -20 9 -10 8 -13 0 -13
-7 0 -10 -4 -7 -8 3 -5 -4 -15 -15 -22 -10 -8 -19 -19 -19 -24 0 -6 5 -5 12 2
7 7 16 12 21 12 18 0 -5 -19 -55 -45 -29 -15 -85 -50 -124 -77 l-71 -49 -99
11 c-55 6 -119 15 -144 20 -39 8 -36 8 25 4 39 -3 95 -7 125 -9 l55 -5 -53 15
c-30 8 -65 24 -79 35 -14 11 -34 20 -45 20 -11 0 -17 4 -14 9 3 5 33 7 66 4
67 -6 76 1 28 22 -35 15 -97 55 -87 55 16 0 169 -82 169 -91 0 -11 41 -12 72
0 13 5 68 43 123 84 55 42 104 76 109 77 5 0 6 -3 3 -7z m2 -230 c36 10 43 9
56 -8 17 -23 75 -141 75 -153 0 -5 9 -27 20 -50 11 -22 20 -54 20 -70 0 -26
-4 -31 -37 -37 -21 -5 -77 -9 -124 -10 -97 -3 -109 -7 -109 -38 0 -20 -2 -20
-19 7 -31 47 -72 59 -140 40 -62 -18 -82 -35 -74 -64 8 -32 -10 -23 -28 13 -9
17 -27 38 -41 46 -37 21 -98 0 -154 -51 -48 -44 -113 -166 -115 -215 l-1 -28
-8 30 c-7 27 -8 25 -9 -17 0 -26 3 -49 7 -52 14 -8 8 -121 -6 -119 -8 2 -12
-13 -13 -45 l-2 -47 -6 48 c-12 84 2 297 19 297 5 0 10 -6 13 -12 2 -7 3 37 2
97 -1 61 -6 118 -10 128 -4 10 -3 17 4 17 6 0 11 -10 11 -22 0 -13 3 -33 6
-45 5 -20 8 -19 40 17 44 48 150 120 234 158 104 47 210 86 216 79 3 -3 -9
-10 -27 -15 -19 -4 -35 -14 -35 -20 -1 -7 -2 -16 -3 -21 0 -5 -13 -14 -28 -19
-16 -6 -37 -17 -48 -26 -19 -15 -18 -15 18 -16 21 0 55 9 77 20 52 27 86 25
122 -5 38 -32 70 -40 121 -29 34 8 42 13 41 32 -1 21 0 21 18 5 27 -25 22 -8
-19 55 -20 31 -36 69 -36 85 0 33 -13 31 -96 -19 -62 -38 -73 -41 -65 -19 4 8
11 15 18 15 6 0 19 8 27 18 9 9 25 22 35 29 40 25 -21 14 -72 -13 -89 -48
-174 -75 -213 -68 -61 10 -69 14 -48 25 9 6 15 14 12 20 -4 5 20 9 58 9 59 0
175 34 200 59 5 5 24 5 42 1 19 -4 51 -3 74 3z m389 -307 c17 -34 42 -96 56
-137 19 -59 35 -86 80 -134 30 -32 53 -61 51 -63 -2 -3 14 -25 36 -51 23 -25
35 -47 29 -49 -18 -6 -53 33 -95 103 -38 65 -76 109 -62 72 11 -30 -9 -10 -46
45 -19 29 -44 80 -56 112 -12 33 -47 107 -77 165 l-55 106 54 -53 c30 -29 68
-81 85 -116z m-216 -143 c0 -123 -2 -134 -13 -103 -7 20 -8 16 -5 -18 3 -25 0
-40 -6 -36 -7 5 -3 -98 5 -126 3 -11 -26 -70 -34 -70 -5 0 -9 -6 -9 -12 0 -7
-22 -26 -47 -43 -26 -16 -59 -38 -75 -49 -23 -14 -26 -21 -17 -32 9 -12 6 -12
-20 -3 -17 6 -34 15 -37 20 -10 16 -50 10 -69 -11 -10 -11 -16 -21 -14 -23 6
-4 73 -28 84 -30 6 -2 15 -5 20 -9 6 -3 28 -13 50 -22 l40 -16 -25 20 c-14 11
-30 20 -36 20 -6 0 -18 8 -25 17 -9 10 9 5 45 -15 33 -18 64 -32 70 -32 6 0
20 -8 31 -16 20 -15 19 -15 -5 -13 -43 4 -186 -3 -167 -8 9 -2 17 -9 17 -14 0
-6 -8 -8 -17 -5 -10 3 -35 8 -56 12 -22 4 -34 10 -28 13 6 4 -22 8 -61 9 -56
1 -81 -4 -106 -19 -19 -10 -37 -17 -42 -14 -28 18 56 102 160 161 38 21 70 44
70 50 0 23 39 45 95 54 31 5 63 14 69 20 13 10 31 98 41 200 9 90 33 148 66
166 19 10 32 25 36 45 9 49 15 26 15 -68z m132 18 c20 -29 68 -117 107 -196
38 -78 80 -152 92 -163 21 -19 23 -20 42 -4 11 9 20 28 20 42 0 18 5 25 20 25
36 0 27 -31 -19 -66 -27 -20 -48 -45 -51 -61 -4 -15 -11 -31 -17 -34 -7 -5 -8
-2 -3 6 5 8 3 11 -6 8 -15 -5 -55 39 -45 49 3 4 -1 14 -9 22 -39 44 -116 225
-88 208 5 -3 15 -2 22 2 10 7 10 15 -3 40 -9 17 -21 29 -25 26 -5 -2 -14 2
-21 10 -7 8 -18 15 -26 15 -9 0 -6 -16 13 -56 14 -30 23 -57 20 -60 -7 -8 -78
147 -71 157 3 5 0 8 -7 7 -7 -2 -14 6 -16 17 -3 17 -2 18 7 5 9 -13 11 -12 9
5 -5 70 6 70 55 -4z m-657 -48 c-9 -26 -23 -93 -32 -148 -17 -108 -51 -193
-91 -224 -36 -28 -29 -36 12 -12 19 12 40 19 45 16 5 -4 9 -2 9 4 0 5 -6 11
-12 14 -7 2 7 7 32 12 77 13 92 25 109 95 14 55 21 66 51 83 44 24 98 74 116
109 8 15 14 45 14 68 0 32 4 40 18 40 10 0 26 -6 36 -13 16 -12 16 -16 2 -52
-8 -22 -20 -74 -26 -114 -6 -41 -15 -80 -20 -86 -6 -7 -6 -16 -2 -20 4 -5 2
-5 -4 -2 -11 6 -44 -26 -44 -43 0 -6 -3 -10 -7 -11 -5 0 -18 -2 -30 -3 -13 -2
-26 -6 -30 -11 -5 -4 3 -4 16 0 21 7 23 5 19 -18 -5 -23 -3 -25 15 -16 13 8
17 8 13 1 -6 -10 -195 -116 -246 -139 -19 -8 -30 -8 -42 1 -14 11 -3 19 80 62
53 27 99 52 100 57 2 4 10 7 17 7 16 0 28 27 13 32 -5 2 11 30 37 61 26 32 45
61 42 64 -3 2 -29 -27 -57 -66 -28 -39 -63 -79 -78 -90 -38 -26 -202 -107
-233 -115 -25 -5 -34 1 -122 96 -27 29 -44 63 -25 52 8 -5 9 -2 5 9 -18 43
-16 49 3 14 12 -23 34 -44 53 -52 28 -11 36 -11 67 5 38 19 99 81 120 121 11
19 10 25 -6 36 -28 20 -67 28 -72 15 -9 -28 -40 -55 -55 -49 -23 9 -21 33 9
108 42 105 59 127 97 126 17 0 46 6 62 14 17 9 32 14 34 13 1 -2 -4 -24 -12
-51z m1153 -443 c0 -12 -52 -62 -99 -94 -23 -15 -40 -31 -37 -33 3 -3 12 0 20
6 16 14 87 51 96 51 3 0 -2 -5 -10 -10 -13 -9 -13 -11 0 -19 9 -7 19 -6 27 1
20 16 26 3 8 -16 -25 -24 -102 -76 -114 -76 -6 0 -60 -16 -120 -35 -119 -39
-125 -40 -115 -24 4 8 -1 9 -17 5 -13 -4 -1 5 26 18 40 21 56 36 80 81 16 30
32 50 36 44 5 -8 8 -8 13 0 4 6 4 15 1 21 -3 6 1 7 9 4 10 -4 30 6 51 25 51
44 95 65 108 52 27 -27 28 -8 1 21 l-29 31 33 -22 c17 -12 32 -26 32 -31z"/>
<path d="M1580 2112 c0 -31 150 -285 241 -407 59 -80 409 -439 409 -419 0 4
-79 86 -175 183 -96 97 -183 188 -193 202 -9 15 -37 55 -62 90 -25 35 -56 82
-70 105 -59 99 -130 227 -130 235 0 4 -4 11 -10 14 -5 3 -10 2 -10 -3z"/>
<path d="M3480 2057 c0 -4 12 -35 26 -70 14 -34 28 -75 30 -91 2 -16 17 -54
34 -84 16 -31 30 -64 30 -74 0 -11 5 -28 10 -38 8 -15 7 -18 -2 -15 -18 7 -13
-94 7 -141 8 -20 15 -45 15 -55 0 -11 7 -19 15 -19 8 0 15 -7 15 -15 0 -8 4
-15 9 -15 5 0 28 -18 52 -40 24 -22 49 -40 55 -40 6 0 17 -7 24 -15 8 -9 29
-15 56 -15 43 0 64 13 43 26 -8 5 -9 3 -4 -7 5 -8 4 -11 -1 -6 -4 4 -9 20 -9
35 0 15 -4 33 -9 40 -4 7 -3 19 3 26 6 7 8 22 4 32 -3 11 16 -2 45 -28 28 -27
59 -48 69 -47 15 0 13 3 -7 17 -14 9 -42 34 -62 55 -34 36 -35 40 -20 56 15
16 19 16 43 3 24 -14 31 -13 70 6 152 71 198 91 234 102 39 12 69 30 50 30
-23 0 -238 -71 -289 -95 l-55 -26 -98 52 c-163 86 -184 107 -294 309 -65 121
-89 159 -89 147z"/>
</g>
</svg>
