<?xml version="1.0" standalone="no"?>
<!DOCTYPE svg PUBLIC "-//W3C//DTD SVG 20010904//EN"
 "http://www.w3.org/TR/2001/REC-SVG-20010904/DTD/svg10.dtd">
<svg version="1.0" xmlns="http://www.w3.org/2000/svg"
 width="23" height="23" viewBox="0 0 512.000000 512.000000"
 preserveAspectRatio="xMidYMid meet">
<g transform="translate(0.000000,512.000000) scale(0.100000,-0.100000)"
fill="#000000" stroke="none">
<path d="M2352 4183 c-208 -209 -381 -432 -489 -634 l-30 -56 81 -7 c45 -3
197 -6 339 -6 l257 0 0 303 c0 167 3 359 7 425 4 90 3 122 -6 122 -6 0 -78
-66 -159 -147z"/>
<path d="M2647 3908 c-3 -232 -5 -424 -3 -425 2 -2 156 -7 341 -10 l339 -6
-48 89 c-65 121 -183 297 -276 413 -87 107 -277 310 -319 341 l-28 19 -6 -421z"/>
<path d="M2195 4299 c-461 -99 -878 -387 -1130 -781 l-17 -28 315 0 315 0 63
113 c131 236 262 410 483 644 38 40 67 73 65 72 -2 0 -44 -9 -94 -20z"/>
<path d="M2951 4229 c217 -240 359 -441 479 -680 l40 -79 88 0 c49 0 192 -3
317 -7 l229 -6 -24 39 c-48 80 -163 225 -238 301 -261 266 -554 424 -941 509
-19 4 -9 -11 50 -77z"/>
<path d="M10 2938 c0 -156 -3 -442 -7 -635 l-6 -353 126 0 127 0 1 333 c1 182
4 385 8 451 l6 119 249 -448 c188 -335 256 -449 274 -456 37 -14 242 -11 246
4 3 6 7 292 10 635 l5 622 -124 0 -125 0 0 -183 c0 -101 -3 -299 -7 -440 l-6
-256 -246 442 -246 442 -143 3 -142 3 0 -283z"/>
<path d="M1296 2580 c-3 -348 -5 -634 -4 -635 2 -2 217 -6 479 -10 l476 -8 8
106 c4 58 4 111 0 116 -4 8 -120 11 -351 11 l-344 0 0 165 0 165 310 0 310 0
0 110 0 110 -311 0 -312 0 7 92 c3 50 6 111 6 136 l0 44 333 -3 332 -4 3 113
3 112 -163 0 c-90 0 -301 3 -469 7 l-306 6 -7 -633z"/>
<path d="M4485 3199 c-243 -37 -377 -178 -377 -394 0 -87 14 -136 56 -192 55
-74 153 -119 397 -184 262 -69 304 -95 304 -184 0 -56 -26 -93 -91 -125 -44
-22 -61 -25 -164 -25 -110 0 -117 1 -169 31 -56 31 -93 83 -106 147 l-5 27
-126 0 -127 0 7 -51 c34 -253 249 -395 571 -376 283 17 446 148 462 370 4 68
2 93 -17 146 -46 137 -124 186 -427 266 -245 65 -285 82 -308 131 -13 28 -14
41 -5 76 24 90 112 136 241 125 117 -10 199 -66 225 -154 l11 -38 126 -3 127
-3 0 25 c0 13 -9 53 -20 89 -40 130 -147 233 -286 276 -73 23 -218 33 -299 20z"/>
<path d="M2380 3193 c0 -5 76 -291 168 -638 l169 -630 125 -3 126 -3 15 68 c8
37 55 258 103 490 49 232 91 419 95 415 3 -4 47 -223 98 -486 50 -264 93 -481
94 -482 1 -1 58 -3 127 -5 l124 -4 178 610 c97 336 179 620 183 633 l5 22
-134 0 -134 0 -41 -172 c-141 -590 -175 -727 -179 -724 -4 4 -171 881 -172
899 0 4 -64 6 -142 5 l-143 -3 -87 -420 c-47 -231 -90 -436 -94 -455 -6 -34
-7 -34 -15 -10 -4 14 -49 216 -100 450 -62 291 -96 429 -107 438 -17 13 -262
18 -262 5z"/>
<path d="M1040 1632 c0 -14 99 -152 165 -232 203 -242 476 -427 784 -534 84
-29 273 -76 307 -76 5 0 -25 35 -67 78 -210 215 -371 432 -496 669 l-55 103
-319 0 c-175 0 -319 -4 -319 -8z"/>
<path d="M1840 1629 c0 -36 166 -293 289 -448 84 -105 336 -370 344 -361 2 3
7 186 10 408 l7 402 -219 0 c-120 0 -266 3 -324 7 -90 5 -107 4 -107 -8z"/>
<path d="M2618 1224 c-3 -225 -4 -410 -2 -412 1 -2 59 52 129 120 201 194 387
427 499 626 l35 62 -112 0 c-62 0 -209 3 -328 7 l-217 6 -4 -409z"/>
<path d="M3375 1518 c-121 -216 -265 -405 -460 -607 -105 -107 -120 -127 -97
-124 500 80 934 347 1212 749 l49 71 -181 6 c-100 4 -245 7 -324 7 l-142 0
-57 -102z"/>
</g>
</svg>
