<svg id="svg" width="32" height="32" viewBox="0, 0, 400, 400" xmlns="http://www.w3.org/2000/svg"><g id="svgg"><path id="path0" d="M189.453 32.295 C 89.419 39.550,18.031 130.025,34.782 228.320 C 50.412 320.040,138.229 381.798,229.688 365.391 C 299.628 352.844,354.646 296.859,365.853 226.832 C 366.750 221.224,366.462 220.535,362.420 218.615 C 355.797 215.469,343.265 211.506,341.304 211.937 C 339.729 212.282,339.226 213.683,338.296 220.313 C 326.283 305.879,238.278 360.070,155.956 332.593 C 143.875 328.561,143.642 327.565,153.906 323.838 C 181.767 313.721,193.256 302.437,213.778 265.039 C 228.192 238.772,235.225 229.454,249.400 217.845 C 267.903 202.692,283.927 197.711,311.328 198.596 C 334.947 199.359,349.080 202.440,370.373 211.469 C 378.556 214.940,381.482 214.846,383.063 211.061 C 384.870 206.737,380.469 202.911,366.103 196.319 C 343.915 186.138,321.405 181.509,294.926 181.682 C 280.955 181.774,278.727 180.726,273.206 171.474 C 241.386 118.143,168.113 113.911,131.329 163.281 C 102.281 202.269,91.429 212.670,71.289 220.831 C 61.758 224.693,61.220 223.823,60.680 203.711 C 58.612 126.570,118.818 62.803,196.094 60.289 C 262.839 58.117,322.183 104.445,336.545 169.935 C 338.235 177.640,337.830 177.261,346.875 179.616 C 350.205 180.483,355.462 182.085,358.557 183.175 C 367.828 186.439,367.998 186.202,365.793 173.058 C 351.447 87.532,274.521 26.126,189.453 32.295 M224.196 168.584 C 227.023 169.424,229.789 172.034,230.847 174.861 C 234.616 184.936,222.407 193.420,214.348 186.326 C 205.936 178.921,213.446 165.392,224.196 168.584 " stroke="none" fill="#24a31c" fill-rule="evenodd"></path><path id="path1" d="M0.000 200.000 L 0.000 400.000 200.000 400.000 L 400.000 400.000 400.000 200.000 L 400.000 0.000 200.000 0.000 L 0.000 0.000 0.000 200.000 M212.520 32.433 C 290.157 38.373,352.849 95.892,365.793 173.058 C 367.998 186.202,367.828 186.439,358.557 183.175 C 355.462 182.085,350.205 180.483,346.875 179.616 C 337.830 177.261,338.235 177.640,336.545 169.935 C 322.183 104.445,262.839 58.117,196.094 60.289 C 118.818 62.803,58.612 126.570,60.680 203.711 C 61.220 223.823,61.758 224.693,71.289 220.831 C 91.429 212.670,102.281 202.269,131.329 163.281 C 168.113 113.911,241.386 118.143,273.206 171.474 C 278.727 180.726,280.955 181.774,294.926 181.682 C 321.405 181.509,343.915 186.138,366.103 196.319 C 380.469 202.911,384.870 206.737,383.063 211.061 C 381.482 214.846,378.556 214.940,370.373 211.469 C 349.080 202.440,334.947 199.359,311.328 198.596 C 283.927 197.711,267.903 202.692,249.400 217.845 C 235.225 229.454,228.192 238.772,213.778 265.039 C 193.256 302.437,181.767 313.721,153.906 323.838 C 143.642 327.565,143.875 328.561,155.956 332.593 C 238.278 360.070,326.283 305.879,338.296 220.313 C 339.594 211.062,339.761 210.926,347.157 213.055 C 357.671 216.081,364.938 219.273,365.899 221.288 C 367.275 224.174,362.823 244.094,357.738 257.802 C 319.807 360.055,197.665 399.924,107.031 339.637 C 33.974 291.040,10.914 193.956,54.194 117.188 C 81.875 68.088,132.300 36.440,189.453 32.295 C 193.751 31.984,207.735 32.067,212.520 32.433 M217.957 168.569 C 213.850 169.835,210.806 174.059,210.787 178.519 C 210.749 187.659,221.474 192.316,228.161 186.062 C 236.231 178.512,228.530 165.309,217.957 168.569 " stroke="none" fill="#fbfbfb" fill-rule="evenodd"></path></g></svg>