<?xml version="1.0" encoding="UTF-8" standalone="no"?>
<svg
   xmlns:dc="http://purl.org/dc/elements/1.1/"
   xmlns:cc="http://creativecommons.org/ns#"
   xmlns:rdf="http://www.w3.org/1999/02/22-rdf-syntax-ns#"
   xmlns:svg="http://www.w3.org/2000/svg"
   xmlns="http://www.w3.org/2000/svg"
   xmlns:sodipodi="http://sodipodi.sourceforge.net/DTD/sodipodi-0.dtd"
   xmlns:inkscape="http://www.inkscape.org/namespaces/inkscape"
   width="26"
   height="26"
   viewBox="0 0 26 26"
   fill="none"
   version="1.1"
   id="svg16"
   sodipodi:docname="res.svg"
   inkscape:version="0.92.1 r15371">
  <metadata
     id="metadata22">
    <rdf:RDF>
      <cc:Work
         rdf:about="">
        <dc:format>image/svg+xml</dc:format>
        <dc:type
           rdf:resource="http://purl.org/dc/dcmitype/StillImage" />
        <dc:title></dc:title>
      </cc:Work>
    </rdf:RDF>
  </metadata>
  <defs
     id="defs20" />
  <sodipodi:namedview
     pagecolor="#ffffff"
     bordercolor="#666666"
     borderopacity="1"
     objecttolerance="10"
     gridtolerance="10"
     guidetolerance="10"
     inkscape:pageopacity="0"
     inkscape:pageshadow="2"
     inkscape:window-width="1920"
     inkscape:window-height="1001"
     id="namedview18"
     showgrid="false"
     inkscape:zoom="6.4183539"
     inkscape:cx="-3.995245"
     inkscape:cy="17.703874"
     inkscape:window-x="-9"
     inkscape:window-y="-9"
     inkscape:window-maximized="1"
     inkscape:current-layer="svgg" />
  <g
     id="svgg"
     transform="matrix(0.07289418,0,0,0.07214157,-2.9744676,-3.1965943)">
    <path
       d="m 105.87266,57.184867 c -12.700997,2.298 -22.072997,11.267 -26.044997,24.92 l -0.789,2.712 -0.088,111.078003 -0.088,111.078 0.803,2.212 c 2.246,6.188 6.868,11.96 11.389,14.222 11.473997,5.74 28.050997,-2.121 31.017997,-14.709 0.455,-1.93 0.516,-14.033 0.52,-103.259 l 0.005,-101.073 23.475,14.525 c 12.911,7.988 56.554,34.949 96.985,59.913 40.431,24.964 73.532,45.511 73.559,45.661 0.027,0.149 -45.256,26.184 -100.629,57.855 -55.373,31.671 -107.137,61.282 -115.031,65.803 -15.533997,8.896 -17.300997,10.159 -19.555997,13.982 -3.926,6.655 -3.543,13.669 1.187,21.7 4.582,7.779 9.739,11.012 17.563997,11.012 5.58,0 -1.571997,3.918 124.996,-68.465 120.108,-68.69 122.308,-69.961 126.603,-73.161 21.299,-15.867 20.702,-41.181 -1.356,-57.506 -1.585,-1.173 -26.068,-16.44 -54.407,-33.926 -72.642,-44.823 -134.322,-82.915003 -147.587,-91.143003 -15.245,-9.458 -15.876,-9.761 -25.266,-12.121 -5.827,-1.465 -13.283,-2.031 -17.262,-1.31"
       id="path0"
       inkscape:connector-curvature="0"
       style="fill:#7ac673;fill-rule:evenodd;stroke:none" />
  </g>
</svg>
