<svg id="svg" width="32" height="32" viewBox="0, 0, 400,400" xmlns="http://www.w3.org/2000/svg"><g id="svgg"><path id="path0" d="M183.333 33.930 C 90.471 41.249,25.748 123.790,41.050 215.385 C 55.993 304.833,144.298 361.967,232.967 339.557 C 311.714 319.654,360.933 242.926,347.054 161.703 C 336.128 97.761,285.964 47.452,221.795 36.080 C 211.261 34.213,192.821 33.182,183.333 33.930 M200.699 49.464 C 291.566 54.229,353.754 140.941,328.759 228.025 C 306.852 304.356,225.573 347.095,150.090 321.976 C 79.905 298.620,40.044 224.240,59.361 152.681 C 75.147 94.203,126.796 52.560,187.363 49.476 C 190.385 49.322,193.022 49.173,193.223 49.144 C 193.425 49.115,196.789 49.259,200.699 49.464 M179.487 59.210 C 102.661 66.703,50.694 139.449,66.482 217.399 C 77.321 270.916,121.159 311.485,176.190 318.928 C 182.464 319.777,204.730 319.891,211.172 319.107 C 249.373 314.460,282.526 293.969,303.946 261.765 C 331.355 220.556,332.119 161.626,305.789 119.572 C 278.855 76.551,231.878 54.100,179.487 59.210 M206.227 63.922 C 279.207 71.767,332.231 142.180,317.915 212.238 C 302.701 286.694,226.995 332.174,156.777 309.042 C 92.445 287.850,55.109 219.840,73.105 156.630 C 87.423 106.340,131.485 69.041,182.601 63.940 C 185.623 63.638,188.672 63.319,189.377 63.230 C 191.583 62.952,200.684 63.326,206.227 63.922 M182.967 89.755 C 181.960 89.913,179.158 90.307,176.740 90.631 C 153.924 93.691,130.316 104.120,116.667 117.168 C 111.623 121.989,110.541 123.772,114.710 120.392 C 131.691 106.625,160.752 95.541,180.037 95.475 C 189.428 95.443,196.633 97.316,207.255 102.549 C 218.098 107.891,220.102 108.146,228.445 105.250 L 233.516 103.489 239.194 103.485 C 259.947 103.467,281.053 120.325,284.953 140.033 C 286.633 148.519,289.495 152.004,294.792 152.013 C 300.931 152.023,300.795 147.263,294.354 136.630 C 279.552 112.197,250.583 95.319,214.838 90.302 C 207.992 89.342,187.826 88.995,182.967 89.755 M113.837 164.836 C 106.975 165.681,103.126 169.494,103.118 175.458 C 103.110 181.079,105.059 183.409,113.244 187.562 C 119.896 190.937,121.566 192.696,120.518 195.225 C 119.565 197.527,114.035 198.489,107.844 197.430 C 104.592 196.874,103.580 197.320,102.893 199.613 C 101.757 203.407,104.012 204.579,112.454 204.579 C 123.390 204.579,128.511 201.253,128.881 193.908 C 129.196 187.690,126.076 183.923,117.550 180.225 C 112.040 177.835,110.361 176.027,111.376 173.577 C 112.243 171.484,114.302 170.915,119.972 171.199 C 124.641 171.434,124.790 171.418,125.524 170.610 C 129.302 166.450,123.602 163.633,113.837 164.836 M263.187 165.331 C 242.320 172.219,245.938 204.474,267.582 204.519 C 287.755 204.562,294.362 175.341,276.210 166.367 C 273.089 164.824,266.348 164.288,263.187 165.331 M152.114 166.011 C 151.665 166.228,151.187 166.752,151.052 167.177 C 150.634 168.484,150.688 201.512,151.109 202.357 C 151.852 203.849,153.730 204.084,163.919 203.961 C 174.397 203.835,174.761 203.760,175.475 201.597 C 176.631 198.094,175.346 197.436,167.348 197.436 C 158.729 197.436,158.608 197.361,158.608 192.000 C 158.608 187.531,158.773 187.408,165.018 187.179 C 170.668 186.973,171.429 186.597,171.429 184.009 C 171.429 181.473,170.337 180.952,165.018 180.952 C 159.067 180.952,158.608 180.629,158.608 176.431 C 158.608 172.021,158.680 171.978,165.995 171.978 C 172.694 171.978,173.325 171.803,173.999 169.761 C 174.537 168.131,173.993 166.585,172.669 165.982 C 171.458 165.430,153.264 165.456,152.114 166.011 M199.438 165.916 C 197.676 166.631,197.701 166.373,197.646 184.350 C 197.592 202.206,197.646 202.893,199.157 203.702 C 200.711 204.534,212.715 204.414,215.552 203.539 C 231.755 198.540,235.000 174.252,220.362 167.550 C 216.518 165.790,202.457 164.693,199.438 165.916 M271.678 172.399 C 276.033 174.462,278.828 180.313,278.276 186.215 C 276.751 202.556,257.779 201.075,257.779 184.615 C 257.779 175.180,264.702 169.095,271.678 172.399 M212.142 172.293 C 225.469 175.430,224.274 196.835,210.723 197.724 C 207.798 197.916,206.472 197.395,205.873 195.820 C 205.278 194.256,205.272 173.786,205.866 173.070 C 206.969 171.742,208.823 171.512,212.142 172.293 M136.024 195.258 C 133.306 196.999,132.987 200.700,135.366 202.881 C 139.238 206.429,145.469 201.400,143.034 196.691 C 141.919 194.534,138.307 193.796,136.024 195.258 M182.911 195.258 C 180.193 196.999,179.873 200.700,182.252 202.881 C 186.077 206.386,192.359 201.407,189.961 196.770 C 188.806 194.537,185.233 193.770,182.911 195.258 M236.757 195.258 C 234.039 196.999,233.719 200.700,236.098 202.881 C 239.923 206.386,246.205 201.407,243.807 196.770 C 242.653 194.537,239.079 193.770,236.757 195.258 M294.292 194.860 C 293.203 195.301,291.679 197.228,291.394 198.525 C 290.286 203.572,297.654 206.194,300.381 201.722 C 302.944 197.519,298.923 192.987,294.292 194.860 M93.156 233.336 C 90.336 234.472,90.974 237.335,95.521 243.956 C 111.844 267.719,144.807 286.042,176.566 289.008 C 178.878 289.224,181.841 289.571,183.150 289.779 C 187.003 290.392,203.201 290.294,207.692 289.631 C 209.808 289.318,212.692 288.959,214.103 288.833 C 237.254 286.762,266.272 273.119,282.126 256.852 C 288.411 250.403,288.968 248.881,283.312 253.614 C 254.128 278.035,221.449 286.732,199.680 275.869 C 196.661 274.363,194.408 272.991,185.298 267.114 C 174.020 259.838,167.332 256.424,158.284 253.325 C 152.063 251.194,141.243 248.432,136.630 247.797 C 134.922 247.562,131.896 246.964,122.527 245.010 C 112.623 242.944,106.711 240.595,100.925 236.427 C 96.581 233.298,94.905 232.631,93.156 233.336 " stroke="none" fill="#fafafc" fill-rule="evenodd"></path><path id="path1" d="M187.363 49.476 C 103.462 53.749,42.142 130.608,56.605 213.370 C 75.845 323.464,210.805 367.519,291.420 290.020 C 367.149 217.219,337.905 89.265,237.997 56.277 C 225.080 52.012,200.515 48.098,193.223 49.144 C 193.022 49.173,190.385 49.322,187.363 49.476 M208.448 59.180 C 267.518 64.796,314.880 109.751,323.619 168.498 C 334.723 243.147,284.686 310.165,211.172 319.107 C 204.730 319.891,182.464 319.777,176.190 318.928 C 101.556 308.834,52.336 240.050,65.793 164.652 C 77.817 97.292,138.374 52.519,208.448 59.180 M189.377 63.230 C 188.672 63.319,185.623 63.638,182.601 63.940 C 109.888 71.196,56.714 141.790,70.871 212.271 C 85.409 284.646,158.515 330.390,227.656 310.375 C 294.875 290.916,334.870 220.026,315.211 155.185 C 298.967 101.606,251.085 64.730,195.788 63.210 C 192.967 63.132,190.082 63.141,189.377 63.230 M214.838 90.302 C 250.583 95.319,279.552 112.197,294.354 136.630 C 300.795 147.263,300.931 152.023,294.792 152.013 C 289.495 152.004,286.633 148.519,284.953 140.033 C 281.053 120.325,259.947 103.467,239.194 103.485 L 233.516 103.489 228.445 105.250 C 220.102 108.146,218.098 107.891,207.255 102.549 C 196.633 97.316,189.428 95.443,180.037 95.475 C 160.752 95.541,131.691 106.625,114.710 120.392 C 110.541 123.772,111.623 121.989,116.667 117.168 C 130.316 104.120,153.924 93.691,176.740 90.631 C 179.158 90.307,181.960 89.913,182.967 89.755 C 187.826 88.995,207.992 89.342,214.838 90.302 M124.819 165.407 C 126.852 166.245,127.194 168.771,125.524 170.610 C 124.790 171.418,124.641 171.434,119.972 171.199 C 114.302 170.915,112.243 171.484,111.376 173.577 C 110.361 176.027,112.040 177.835,117.550 180.225 C 126.076 183.923,129.196 187.690,128.881 193.908 C 128.511 201.253,123.390 204.579,112.454 204.579 C 104.012 204.579,101.757 203.407,102.893 199.613 C 103.580 197.320,104.592 196.874,107.844 197.430 C 114.035 198.489,119.565 197.527,120.518 195.225 C 121.566 192.696,119.896 190.937,113.244 187.562 C 105.059 183.409,103.110 181.079,103.118 175.458 C 103.129 167.805,108.874 164.144,119.963 164.724 C 121.978 164.829,124.163 165.137,124.819 165.407 M276.210 166.367 C 294.362 175.341,287.755 204.562,267.582 204.519 C 245.938 204.474,242.320 172.219,263.187 165.331 C 266.348 164.288,273.089 164.824,276.210 166.367 M172.669 165.982 C 173.993 166.585,174.537 168.131,173.999 169.761 C 173.325 171.803,172.694 171.978,165.995 171.978 C 158.680 171.978,158.608 172.021,158.608 176.431 C 158.608 180.629,159.067 180.952,165.018 180.952 C 170.337 180.952,171.429 181.473,171.429 184.009 C 171.429 186.597,170.668 186.973,165.018 187.179 C 158.773 187.408,158.608 187.531,158.608 192.000 C 158.608 197.361,158.729 197.436,167.348 197.436 C 175.346 197.436,176.631 198.094,175.475 201.597 C 174.761 203.760,174.397 203.835,163.919 203.961 C 153.730 204.084,151.852 203.849,151.109 202.357 C 150.688 201.512,150.634 168.484,151.052 167.177 C 151.187 166.752,151.665 166.228,152.114 166.011 C 153.264 165.456,171.458 165.430,172.669 165.982 M215.874 166.111 C 234.546 170.067,234.308 197.752,215.552 203.539 C 212.715 204.414,200.711 204.534,199.157 203.702 C 197.646 202.893,197.592 202.206,197.646 184.350 C 197.701 166.373,197.676 166.631,199.438 165.916 C 200.755 165.382,213.127 165.529,215.874 166.111 M265.109 171.929 C 255.310 175.582,255.310 193.783,265.109 197.280 C 274.324 200.568,281.730 188.154,276.807 177.673 C 274.651 173.084,269.197 170.406,265.109 171.929 M207.130 172.143 C 205.361 172.861,205.341 173.003,205.450 184.336 C 205.581 197.939,205.628 198.058,210.723 197.724 C 224.274 196.835,225.469 175.430,212.142 172.293 C 209.814 171.745,208.229 171.698,207.130 172.143 M141.404 195.061 C 145.490 197.174,143.543 203.547,138.688 203.949 C 136.850 204.102,136.617 204.027,135.366 202.881 C 131.077 198.950,136.170 192.355,141.404 195.061 M188.290 195.061 C 190.882 196.401,191.190 200.190,188.894 202.486 C 186.006 205.374,181.223 204.005,180.705 200.142 C 180.160 196.075,184.556 193.130,188.290 195.061 M242.137 195.061 C 244.728 196.401,245.036 200.190,242.740 202.486 C 239.852 205.374,235.069 204.005,234.551 200.142 C 234.006 196.075,238.402 193.130,242.137 195.061 M299.853 195.751 C 301.366 197.264,301.586 199.747,300.381 201.722 C 298.270 205.185,292.808 204.652,291.557 200.861 C 290.015 196.188,296.374 192.272,299.853 195.751 M96.530 233.653 C 97.341 234.021,99.319 235.270,100.925 236.427 C 106.711 240.595,112.623 242.944,122.527 245.010 C 131.896 246.964,134.922 247.562,136.630 247.797 C 152.631 249.999,168.585 256.331,185.298 267.114 C 194.408 272.991,196.661 274.363,199.680 275.869 C 221.449 286.732,254.128 278.035,283.312 253.614 C 288.968 248.881,288.411 250.403,282.126 256.852 C 266.272 273.119,237.254 286.762,214.103 288.833 C 212.692 288.959,209.808 289.318,207.692 289.631 C 203.201 290.294,187.003 290.392,183.150 289.779 C 181.841 289.571,178.878 289.224,176.566 289.008 C 142.642 285.840,104.602 263.205,92.328 238.884 C 90.223 234.715,92.534 231.838,96.530 233.653 " stroke="none" fill="#345cf4" fill-rule="evenodd"></path></g></svg>